<svg width="170" height="50" viewBox="0 0 170 50" fill="none" xmlns="http://www.w3.org/2000/svg">
<path fill-rule="evenodd" clip-rule="evenodd" d="M0 0H50V50H0V0ZM33.594 16.4065V38.2815H38.2815V11.719H11.719V16.4065H33.594ZM11.3281 29.1016C11.3281 34.3871 15.6129 38.6719 20.8984 38.6719C26.184 38.6719 30.4688 34.3871 30.4688 29.1016C30.4688 23.816 26.184 19.5312 20.8984 19.5312C15.6129 19.5312 11.3281 23.816 11.3281 29.1016ZM25.7812 29.1016C25.7812 31.7983 23.5951 33.9844 20.8984 33.9844C18.2017 33.9844 16.0156 31.7983 16.0156 29.1016C16.0156 26.4048 18.2017 24.2187 20.8984 24.2187C23.5951 24.2187 25.7812 26.4048 25.7812 29.1016Z" fill="white"/>
<path d="M75.2578 36L72.8516 29.8066H64.9219L62.543 36H60L67.8066 15.9297H70.0762L77.8691 36H75.2578ZM72.0996 27.5781L69.8574 21.5215L68.9004 18.5273C68.627 19.6211 68.3398 20.6191 68.0391 21.5215L65.7695 27.5781H72.0996ZM87.3984 20.7422C89.3763 20.7422 90.903 21.4258 91.9785 22.793C93.054 24.151 93.5918 26.0514 93.5918 28.4941C93.5918 30.9733 93.0449 32.8919 91.9512 34.25C90.8574 35.599 89.3398 36.2734 87.3984 36.2734C86.3867 36.2734 85.4844 36.0911 84.6914 35.7266C83.8984 35.362 83.2513 34.8197 82.75 34.0996H82.5586C82.276 35.1934 82.1074 35.8268 82.0527 36H80.2891V14.7266H82.75V19.8945C82.75 20.9245 82.7044 21.9544 82.6133 22.9844H82.75C83.7617 21.4896 85.3112 20.7422 87.3984 20.7422ZM86.9883 22.7793C85.4753 22.7793 84.3906 23.2077 83.7344 24.0645C83.0781 24.9212 82.75 26.3704 82.75 28.4121V28.5215C82.75 30.5723 83.0827 32.0397 83.748 32.9238C84.4225 33.7988 85.5208 34.2363 87.043 34.2363C88.3919 34.2363 89.3945 33.7441 90.0508 32.7598C90.7161 31.7663 91.0488 30.3353 91.0488 28.4668C91.0488 26.571 90.7161 25.1491 90.0508 24.2012C89.3854 23.2533 88.3646 22.7793 86.9883 22.7793ZM107.291 31.8574C107.291 33.2611 106.767 34.3503 105.719 35.125C104.671 35.8906 103.199 36.2734 101.303 36.2734C99.3249 36.2734 97.7526 35.959 96.5859 35.3301V33.0879C98.2357 33.89 99.8262 34.291 101.357 34.291C102.597 34.291 103.499 34.0905 104.064 33.6895C104.63 33.2884 104.912 32.7507 104.912 32.0762C104.912 31.4837 104.639 30.9824 104.092 30.5723C103.554 30.1621 102.592 29.6927 101.207 29.1641C99.7943 28.6172 98.8008 28.1523 98.2266 27.7695C97.6523 27.3776 97.2285 26.9401 96.9551 26.457C96.6908 25.974 96.5586 25.3861 96.5586 24.6934C96.5586 23.4629 97.0599 22.4922 98.0625 21.7812C99.0651 21.0703 100.441 20.7148 102.191 20.7148C103.896 20.7148 105.491 21.0521 106.977 21.7266L106.143 23.6816C104.62 23.0436 103.249 22.7246 102.027 22.7246C101.007 22.7246 100.232 22.8887 99.7031 23.2168C99.1745 23.5358 98.9102 23.9779 98.9102 24.543C98.9102 25.0898 99.138 25.5456 99.5938 25.9102C100.049 26.2656 101.111 26.7624 102.779 27.4004C104.028 27.8652 104.949 28.2982 105.541 28.6992C106.143 29.1003 106.585 29.5514 106.867 30.0527C107.15 30.554 107.291 31.1556 107.291 31.8574ZM115.959 34.2637C116.278 34.2637 116.652 34.2318 117.08 34.168C117.508 34.1042 117.832 34.0312 118.051 33.9492V35.8359C117.823 35.9362 117.467 36.0319 116.984 36.123C116.51 36.2233 116.027 36.2734 115.535 36.2734C112.6 36.2734 111.133 34.7285 111.133 31.6387V22.9023H109.014V21.7266L111.16 20.7422L112.145 17.543H113.607V20.9883H117.941V22.9023H113.607V31.5703C113.607 32.4362 113.812 33.1016 114.223 33.5664C114.642 34.0312 115.221 34.2637 115.959 34.2637ZM128.059 20.7148C128.724 20.7148 129.312 20.7695 129.822 20.8789L129.521 23.1484C128.965 23.0208 128.423 22.957 127.895 22.957C127.102 22.957 126.363 23.1758 125.68 23.6133C125.005 24.0508 124.477 24.6569 124.094 25.4316C123.711 26.1973 123.52 27.0495 123.52 27.9883V36H121.059V20.9883H123.082L123.355 23.7363H123.465C124.039 22.7428 124.718 21.9909 125.502 21.4805C126.286 20.9701 127.138 20.7148 128.059 20.7148ZM141.621 36L141.143 33.8672H141.033C140.286 34.806 139.538 35.444 138.791 35.7812C138.053 36.1094 137.118 36.2734 135.988 36.2734C134.512 36.2734 133.354 35.8861 132.516 35.1113C131.677 34.3366 131.258 33.2428 131.258 31.8301C131.258 28.7858 133.66 27.1908 138.463 27.0449L141.006 26.9492V26.0605C141.006 24.9212 140.76 24.0827 140.268 23.5449C139.775 22.998 138.987 22.7246 137.902 22.7246C137.109 22.7246 136.357 22.8431 135.646 23.0801C134.945 23.3171 134.284 23.5814 133.664 23.873L132.912 22.0273C133.669 21.6263 134.493 21.3118 135.387 21.084C136.28 20.8561 137.164 20.7422 138.039 20.7422C139.853 20.7422 141.202 21.1432 142.086 21.9453C142.97 22.7474 143.412 24.0234 143.412 25.7734V36H141.621ZM136.549 34.291C137.925 34.291 139.005 33.9219 139.789 33.1836C140.582 32.4362 140.979 31.3789 140.979 30.0117V28.6582L138.764 28.7539C137.041 28.8177 135.783 29.0911 134.99 29.5742C134.206 30.0573 133.814 30.8184 133.814 31.8574C133.814 32.6413 134.051 33.2428 134.525 33.6621C135.008 34.0814 135.683 34.291 136.549 34.291ZM154.09 36.2734C151.93 36.2734 150.248 35.6126 149.045 34.291C147.842 32.9603 147.24 31.0553 147.24 28.5762C147.24 26.0605 147.846 24.1237 149.059 22.7656C150.28 21.3984 152.016 20.7148 154.268 20.7148C154.997 20.7148 155.717 20.7923 156.428 20.9473C157.148 21.0931 157.74 21.2845 158.205 21.5215L157.453 23.5723C156.186 23.0983 155.106 22.8613 154.213 22.8613C152.7 22.8613 151.583 23.3398 150.863 24.2969C150.143 25.2448 149.783 26.6621 149.783 28.5488C149.783 30.3626 150.143 31.7526 150.863 32.7188C151.583 33.6758 152.65 34.1543 154.062 34.1543C155.384 34.1543 156.683 33.8626 157.959 33.2793V35.4668C156.92 36.0046 155.63 36.2734 154.09 36.2734ZM166.545 34.2637C166.864 34.2637 167.238 34.2318 167.666 34.168C168.094 34.1042 168.418 34.0312 168.637 33.9492V35.8359C168.409 35.9362 168.053 36.0319 167.57 36.123C167.096 36.2233 166.613 36.2734 166.121 36.2734C163.186 36.2734 161.719 34.7285 161.719 31.6387V22.9023H159.6V21.7266L161.746 20.7422L162.73 17.543H164.193V20.9883H168.527V22.9023H164.193V31.5703C164.193 32.4362 164.398 33.1016 164.809 33.5664C165.228 34.0312 165.807 34.2637 166.545 34.2637Z" fill="white"/>
</svg>
