<svg width="152" height="57" viewBox="0 0 152 57" fill="none" xmlns="http://www.w3.org/2000/svg">
<circle cx="28.5" cy="28.5" r="27" stroke="white" stroke-width="3"/>
<path fill-rule="evenodd" clip-rule="evenodd" d="M47.1821 17.1626C47.5179 17.7147 47.8299 18.2829 48.1167 18.8657L46.1557 20.5574L45.5229 21.1036L44.9007 20.5454L38.1806 14.5156L24.7122 24.132L24.2903 24.4333L23.8086 24.2415L18.126 21.9787L11.281 30.0104L11.0697 30.2583L10.7505 30.3244L6.80789 31.1407C6.73214 30.5119 6.68309 29.8748 6.66193 29.2307L10.0461 28.5299L17.1217 20.2279L17.5636 19.7095L18.1963 19.9616L24.0301 22.2844L37.6961 12.5267L38.3158 12.0844L38.8827 12.5928L45.5475 18.573L47.1821 17.1626ZM40.8499 46.5275C41.865 45.8307 42.8184 45.0505 43.6999 44.1966V28.8871H40.8499V46.5275ZM17.0999 47.144V37.05H14.2499V45.0643C15.1403 45.831 16.0932 46.5271 17.0999 47.144ZM20.8999 32.9334V47.5H23.7499V32.9334H20.8999ZM27.5499 47.5V30.5055H30.3999V47.5H27.5499ZM34.1999 25.65V47.5H37.0499V25.65H34.1999Z" fill="white"/>
<path d="M75.4434 26L73.6387 21.355H67.6914L65.9072 26H64L69.855 10.9473H71.5571L77.4019 26H75.4434ZM73.0747 19.6836L71.3931 15.1411L70.6753 12.8955C70.4702 13.7158 70.2549 14.4644 70.0293 15.1411L68.3271 19.6836H73.0747ZM83.2056 26.2051C81.7427 26.2051 80.6079 25.6992 79.8013 24.6875C78.9946 23.6758 78.5913 22.2437 78.5913 20.3911C78.5913 18.5522 78.9946 17.1167 79.8013 16.0845C80.6147 15.0522 81.7563 14.5361 83.2261 14.5361C84.7368 14.5361 85.8989 15.0898 86.7124 16.1973H86.8457C86.8252 16.0605 86.7979 15.7871 86.7637 15.377C86.7295 14.96 86.7124 14.6797 86.7124 14.5361V10.0449H88.5581V26H87.0713L86.7944 24.4927H86.7124C85.9263 25.6343 84.7573 26.2051 83.2056 26.2051ZM83.5029 24.6772C84.624 24.6772 85.4409 24.373 85.9536 23.7646C86.4731 23.1494 86.7329 22.1445 86.7329 20.75V20.4116C86.7329 18.8462 86.4697 17.7319 85.9434 17.0688C85.4238 16.3989 84.6035 16.064 83.4824 16.064C82.5322 16.064 81.7974 16.4434 81.2778 17.2021C80.7583 17.9541 80.4985 19.0308 80.4985 20.4321C80.4985 21.8267 80.7549 22.8828 81.2676 23.6006C81.7871 24.3184 82.5322 24.6772 83.5029 24.6772ZM101.919 20.3501C101.919 22.189 101.454 23.6245 100.524 24.6567C99.5947 25.689 98.3096 26.2051 96.6689 26.2051C95.6504 26.2051 94.748 25.9692 93.9619 25.4976C93.1758 25.019 92.5708 24.3354 92.147 23.4468C91.7231 22.5581 91.5112 21.5259 91.5112 20.3501C91.5112 18.5181 91.9692 17.0928 92.8853 16.0742C93.8013 15.0488 95.0864 14.5361 96.7407 14.5361C98.3267 14.5361 99.5845 15.0591 100.514 16.105C101.451 17.144 101.919 18.5591 101.919 20.3501ZM93.4185 20.3501C93.4185 21.7651 93.6953 22.8418 94.249 23.5801C94.8096 24.3115 95.6333 24.6772 96.7202 24.6772C97.7935 24.6772 98.6104 24.3115 99.1709 23.5801C99.7314 22.8418 100.012 21.7651 100.012 20.3501C100.012 18.9351 99.728 17.8721 99.1606 17.1611C98.6001 16.4434 97.7764 16.0845 96.6895 16.0845C94.5088 16.0845 93.4185 17.5063 93.4185 20.3501ZM110.184 14.5566C111.667 14.5566 112.812 15.0693 113.619 16.0947C114.425 17.1133 114.829 18.5386 114.829 20.3706C114.829 22.23 114.418 23.6689 113.598 24.6875C112.778 25.6992 111.64 26.2051 110.184 26.2051C109.425 26.2051 108.748 26.0684 108.153 25.7949C107.559 25.5215 107.073 25.1147 106.697 24.5747H106.554C106.342 25.395 106.215 25.8701 106.174 26H104.852V10.0449H106.697V13.9209C106.697 14.6934 106.663 15.4658 106.595 16.2383H106.697C107.456 15.1172 108.618 14.5566 110.184 14.5566ZM109.876 16.0845C108.741 16.0845 107.928 16.4058 107.436 17.0483C106.943 17.6909 106.697 18.7778 106.697 20.3091V20.3911C106.697 21.9292 106.947 23.0298 107.446 23.6929C107.952 24.3491 108.775 24.6772 109.917 24.6772C110.929 24.6772 111.681 24.3081 112.173 23.5698C112.672 22.8247 112.921 21.7515 112.921 20.3501C112.921 18.9282 112.672 17.8618 112.173 17.1509C111.674 16.4399 110.908 16.0845 109.876 16.0845ZM122.56 26.2051C120.872 26.2051 119.545 25.6958 118.582 24.6772C117.625 23.6519 117.146 22.2437 117.146 20.4526C117.146 18.6479 117.594 17.2124 118.489 16.146C119.385 15.0728 120.595 14.5361 122.119 14.5361C123.534 14.5361 124.662 14.9941 125.503 15.9102C126.344 16.8193 126.764 18.0532 126.764 19.6118V20.7295H119.053C119.087 22.0078 119.412 22.9785 120.027 23.6416C120.643 24.3047 121.514 24.6362 122.642 24.6362C123.244 24.6362 123.814 24.585 124.354 24.4824C124.895 24.373 125.527 24.1646 126.251 23.8569V25.4771C125.629 25.7437 125.045 25.9316 124.498 26.041C123.951 26.1504 123.305 26.2051 122.56 26.2051ZM122.099 16.0435C121.217 16.0435 120.52 16.3271 120.007 16.8945C119.494 17.4619 119.19 18.2515 119.094 19.2632H124.826C124.812 18.2104 124.57 17.4106 124.098 16.8638C123.626 16.3169 122.96 16.0435 122.099 16.0435ZM75.4434 46L73.6387 41.355H67.6914L65.9072 46H64L69.855 30.9473H71.5571L77.4019 46H75.4434ZM73.0747 39.6836L71.3931 35.1411L70.6753 32.8955C70.4702 33.7158 70.2549 34.4644 70.0293 35.1411L68.3271 39.6836H73.0747ZM86.8867 46V38.8018C86.8867 37.8857 86.6816 37.2056 86.2715 36.7612C85.8682 36.3101 85.2324 36.0845 84.3643 36.0845C83.209 36.0845 82.3682 36.4058 81.8418 37.0483C81.3223 37.6841 81.0625 38.7231 81.0625 40.1655V46H79.2168V34.7412H80.7036L80.9805 36.2793H81.083C81.4316 35.7256 81.9204 35.2983 82.5493 34.9976C83.1782 34.6899 83.8721 34.5361 84.6309 34.5361C86.0117 34.5361 87.0371 34.8711 87.707 35.541C88.377 36.2109 88.7119 37.2534 88.7119 38.6685V46H86.8867ZM99.1504 46L98.7915 44.4004H98.7095C98.1489 45.1045 97.5884 45.583 97.0278 45.8359C96.4741 46.082 95.7734 46.2051 94.9258 46.2051C93.8184 46.2051 92.9502 45.9146 92.3213 45.3335C91.6924 44.7524 91.3779 43.9321 91.3779 42.8726C91.3779 40.5894 93.1792 39.3931 96.7817 39.2837L98.689 39.2119V38.5454C98.689 37.6909 98.5044 37.062 98.1353 36.6587C97.7661 36.2485 97.1748 36.0435 96.3613 36.0435C95.7666 36.0435 95.2026 36.1323 94.6694 36.3101C94.1431 36.4878 93.6475 36.686 93.1826 36.9048L92.6187 35.5205C93.186 35.2197 93.8047 34.9839 94.4746 34.813C95.1445 34.6421 95.8076 34.5566 96.4639 34.5566C97.8242 34.5566 98.8359 34.8574 99.499 35.459C100.162 36.0605 100.494 37.0176 100.494 38.3301V46H99.1504ZM95.3462 44.7183C96.3784 44.7183 97.1885 44.4414 97.7764 43.8877C98.3711 43.3271 98.6685 42.5342 98.6685 41.5088V40.4937L97.0073 40.5654C95.7153 40.6133 94.772 40.8184 94.1772 41.1807C93.5894 41.543 93.2954 42.1138 93.2954 42.8931C93.2954 43.481 93.4731 43.9321 93.8286 44.2466C94.1909 44.561 94.6968 44.7183 95.3462 44.7183ZM105.836 46H103.99V30.0449H105.836V46ZM107.641 34.7412H109.62L112.05 41.1499C112.562 42.5444 112.877 43.5664 112.993 44.2158H113.075C113.137 43.9629 113.277 43.4912 113.496 42.8008C113.714 42.1035 113.899 41.5464 114.049 41.1294L116.336 34.7412H118.325L113.475 47.5586C113.003 48.8027 112.443 49.6948 111.793 50.2349C111.144 50.7749 110.341 51.0449 109.384 51.0449C108.871 51.0449 108.362 50.9868 107.856 50.8706V49.4043C108.198 49.4863 108.608 49.5273 109.086 49.5273C109.674 49.5273 110.173 49.3633 110.583 49.0352C110.994 48.7139 111.329 48.2148 111.588 47.5381L112.173 46.041L107.641 34.7412ZM123.873 44.6978C124.112 44.6978 124.392 44.6738 124.713 44.626C125.035 44.5781 125.277 44.5234 125.441 44.4619V45.877C125.271 45.9521 125.004 46.0239 124.642 46.0923C124.286 46.1675 123.924 46.2051 123.555 46.2051C121.354 46.2051 120.253 45.0464 120.253 42.729V36.1768H118.664V35.2949L120.273 34.5566L121.012 32.1572H122.109V34.7412H125.359V36.1768H122.109V42.6777C122.109 43.3271 122.263 43.8262 122.57 44.1748C122.885 44.5234 123.319 44.6978 123.873 44.6978ZM129.543 46H127.697V34.7412H129.543V46ZM127.554 31.6958C127.554 31.2856 127.656 30.9883 127.861 30.8037C128.073 30.6191 128.333 30.5269 128.641 30.5269C128.928 30.5269 129.177 30.6191 129.389 30.8037C129.608 30.9883 129.717 31.2856 129.717 31.6958C129.717 32.0991 129.608 32.3965 129.389 32.5879C129.177 32.7793 128.928 32.875 128.641 32.875C128.333 32.875 128.073 32.7793 127.861 32.5879C127.656 32.3965 127.554 32.0991 127.554 31.6958ZM137.623 46.2051C136.003 46.2051 134.742 45.7095 133.839 44.7183C132.937 43.7202 132.486 42.2915 132.486 40.4321C132.486 38.5454 132.94 37.0928 133.85 36.0742C134.766 35.0488 136.068 34.5361 137.756 34.5361C138.303 34.5361 138.843 34.5942 139.376 34.7104C139.917 34.8198 140.361 34.9634 140.709 35.1411L140.146 36.6792C139.195 36.3237 138.385 36.146 137.715 36.146C136.581 36.146 135.743 36.5049 135.203 37.2227C134.663 37.9336 134.393 38.9966 134.393 40.4116C134.393 41.772 134.663 42.8145 135.203 43.5391C135.743 44.2568 136.543 44.6157 137.603 44.6157C138.594 44.6157 139.568 44.397 140.525 43.9595V45.6001C139.746 46.0034 138.778 46.2051 137.623 46.2051ZM150.533 42.8931C150.533 43.9458 150.14 44.7627 149.354 45.3438C148.567 45.918 147.463 46.2051 146.042 46.2051C144.558 46.2051 143.379 45.9692 142.504 45.4976V43.8159C143.741 44.4175 144.934 44.7183 146.083 44.7183C147.012 44.7183 147.689 44.5679 148.113 44.2671C148.537 43.9663 148.749 43.563 148.749 43.0571C148.749 42.6128 148.543 42.2368 148.133 41.9292C147.73 41.6216 147.009 41.2695 145.97 40.873C144.91 40.4629 144.165 40.1143 143.734 39.8271C143.304 39.5332 142.986 39.2051 142.781 38.8428C142.583 38.4805 142.483 38.0396 142.483 37.52C142.483 36.5972 142.859 35.8691 143.611 35.3359C144.363 34.8027 145.396 34.5361 146.708 34.5361C147.986 34.5361 149.183 34.7891 150.297 35.2949L149.671 36.7612C148.53 36.2827 147.501 36.0435 146.585 36.0435C145.819 36.0435 145.238 36.1665 144.842 36.4126C144.445 36.6519 144.247 36.9834 144.247 37.4072C144.247 37.8174 144.418 38.1592 144.76 38.4326C145.102 38.6992 145.898 39.0718 147.149 39.5503C148.085 39.8989 148.776 40.2236 149.22 40.5244C149.671 40.8252 150.003 41.1636 150.215 41.5396C150.427 41.9155 150.533 42.3667 150.533 42.8931Z" fill="white"/>
</svg>
