<svg width="169" height="50" viewBox="0 0 169 50" fill="none" xmlns="http://www.w3.org/2000/svg">
<rect x="2" y="2" width="46.254" height="46" stroke="white" stroke-width="4"/>
<path d="M20.4367 30.0832H13.5687L12.0611 35.4998H7.78949L14.5738 14.4998H19.5154L26.2997 35.4998H21.8606L20.4367 30.0832ZM19.5154 26.8332L18.8454 24.4998C18.1753 22.3332 17.589 19.9165 17.0027 17.5832H16.919C16.4164 19.9165 15.7464 22.2498 15.1601 24.4998L14.49 26.8332H19.5154Z" fill="white"/>
<path d="M28.4775 19.5834H31.9115L32.1628 21.6667H32.2465C33.6704 20.3334 35.2618 19.1667 37.4395 19.1667C40.8735 19.1667 42.3811 21.5834 42.3811 25.5834V35.5H38.1933V26.0834C38.1933 23.6667 37.5232 22.75 35.9318 22.75C34.5917 22.75 33.7542 23.4167 32.5816 24.5834V35.5H28.3937V19.5834H28.4775Z" fill="white"/>
<path d="M65.348 29.656L66.356 26.52C67.084 24.196 67.756 21.984 68.4 19.576H68.512C69.184 21.956 69.828 24.196 70.584 26.52L71.564 29.656H65.348ZM74.168 38H76.912L69.94 17.476H67.056L60.084 38H62.716L64.704 31.728H72.208L74.168 38ZM79.5838 38H82.1318V26.968C83.6718 25.428 84.7358 24.644 86.3038 24.644C88.3198 24.644 89.1878 25.848 89.1878 28.704V38H91.7358V28.368C91.7358 24.476 90.2798 22.404 87.0878 22.404C85.0158 22.404 83.4478 23.552 81.9918 24.98H81.9078L81.6838 22.796H79.5838V38ZM96.701 38H99.249V22.796H96.701V38ZM97.989 19.66C98.997 19.66 99.753 18.96 99.753 18.008C99.753 16.972 98.997 16.356 97.989 16.356C96.981 16.356 96.225 16.972 96.225 18.008C96.225 18.96 96.981 19.66 97.989 19.66ZM104.412 38H106.96V26.968C108.36 25.4 109.648 24.644 110.796 24.644C112.728 24.644 113.624 25.848 113.624 28.704V38H116.172V26.968C117.6 25.4 118.832 24.644 120.008 24.644C121.94 24.644 122.836 25.848 122.836 28.704V38H125.384V28.368C125.384 24.476 123.9 22.404 120.764 22.404C118.916 22.404 117.32 23.608 115.752 25.316C115.136 23.524 113.876 22.404 111.552 22.404C109.732 22.404 108.136 23.552 106.82 25.008H106.736L106.512 22.796H104.412V38ZM133.834 38.364C135.71 38.364 137.418 37.384 138.874 36.18H138.958L139.182 38H141.282V28.648C141.282 24.896 139.714 22.404 136.018 22.404C133.582 22.404 131.426 23.496 130.026 24.392L131.034 26.156C132.238 25.344 133.834 24.532 135.598 24.532C138.09 24.532 138.734 26.408 138.734 28.368C132.266 29.096 129.382 30.748 129.382 34.052C129.382 36.796 131.286 38.364 133.834 38.364ZM134.562 36.32C133.05 36.32 131.874 35.62 131.874 33.884C131.874 31.924 133.61 30.664 138.734 30.048V34.304C137.25 35.62 136.046 36.32 134.562 36.32ZM150.516 38.364C151.44 38.364 152.448 38.084 153.316 37.804L152.812 35.9C152.308 36.096 151.608 36.292 151.076 36.292C149.312 36.292 148.724 35.228 148.724 33.352V24.868H152.84V22.796H148.724V18.54H146.596L146.288 22.796L143.908 22.936V24.868H146.176V33.296C146.176 36.348 147.268 38.364 150.516 38.364ZM162.005 38.364C164.077 38.364 165.701 37.664 167.045 36.796L166.121 35.116C165.001 35.872 163.797 36.32 162.313 36.32C159.429 36.32 157.441 34.248 157.273 31H167.521C167.577 30.636 167.633 30.104 167.633 29.544C167.633 25.204 165.449 22.404 161.585 22.404C158.057 22.404 154.725 25.484 154.725 30.412C154.725 35.424 157.973 38.364 162.005 38.364ZM157.245 29.18C157.553 26.184 159.457 24.448 161.613 24.448C163.993 24.448 165.393 26.1 165.393 29.18H157.245Z" fill="white"/>
</svg>
