<svg width="137" height="57" viewBox="0 0 137 57" fill="none" xmlns="http://www.w3.org/2000/svg">
<path fill-rule="evenodd" clip-rule="evenodd" d="M28.5 53.8265C42.4875 53.8265 53.8265 42.4875 53.8265 28.5C53.8265 14.5125 42.4875 3.17345 28.5 3.17345C14.5125 3.17345 3.17345 14.5125 3.17345 28.5C3.17345 42.4875 14.5125 53.8265 28.5 53.8265ZM28.5 57C44.2401 57 57 44.2401 57 28.5C57 12.7599 44.2401 0 28.5 0C12.7599 0 0 12.7599 0 28.5C0 44.2401 12.7599 57 28.5 57Z" fill="white"/>
<circle cx="28.5001" cy="28.5001" r="15.318" fill="white"/>
<circle cx="49.7377" cy="11.9005" r="6.52998" fill="white"/>
<path d="M79.4434 27L77.6387 22.355H71.6914L69.9072 27H68L73.855 11.9473H75.5571L81.4019 27H79.4434ZM77.0747 20.6836L75.3931 16.1411L74.6753 13.8955C74.4702 14.7158 74.2549 15.4644 74.0293 16.1411L72.3271 20.6836H77.0747ZM86.98 25.6978C87.2192 25.6978 87.4995 25.6738 87.8208 25.626C88.1421 25.5781 88.3848 25.5234 88.5488 25.4619V26.877C88.3779 26.9521 88.1113 27.0239 87.749 27.0923C87.3936 27.1675 87.0312 27.2051 86.6621 27.2051C84.4609 27.2051 83.3604 26.0464 83.3604 23.729V17.1768H81.771V16.2949L83.3809 15.5566L84.1191 13.1572H85.2163V15.7412H88.4668V17.1768H85.2163V23.6777C85.2163 24.3271 85.3701 24.8262 85.6777 25.1748C85.9922 25.5234 86.4263 25.6978 86.98 25.6978ZM100.587 21.3501C100.587 23.189 100.122 24.6245 99.1924 25.6567C98.2627 26.689 96.9775 27.2051 95.3369 27.2051C94.3184 27.2051 93.416 26.9692 92.6299 26.4976C91.8438 26.019 91.2388 25.3354 90.8149 24.4468C90.3911 23.5581 90.1792 22.5259 90.1792 21.3501C90.1792 19.5181 90.6372 18.0928 91.5532 17.0742C92.4692 16.0488 93.7544 15.5361 95.4087 15.5361C96.9946 15.5361 98.2524 16.0591 99.1821 17.105C100.119 18.144 100.587 19.5591 100.587 21.3501ZM92.0864 21.3501C92.0864 22.7651 92.3633 23.8418 92.917 24.5801C93.4775 25.3115 94.3013 25.6772 95.3882 25.6772C96.4614 25.6772 97.2783 25.3115 97.8389 24.5801C98.3994 23.8418 98.6797 22.7651 98.6797 21.3501C98.6797 19.9351 98.396 18.8721 97.8286 18.1611C97.2681 17.4434 96.4443 17.0845 95.3574 17.0845C93.1768 17.0845 92.0864 18.5063 92.0864 21.3501ZM117.844 27V19.7505C117.844 17.9731 117.082 17.0845 115.558 17.0845C114.512 17.0845 113.743 17.3887 113.25 17.9971C112.758 18.6055 112.512 19.5352 112.512 20.7861V27H110.677V19.7505C110.677 18.8618 110.489 18.1953 110.113 17.751C109.744 17.3066 109.163 17.0845 108.37 17.0845C107.331 17.0845 106.568 17.4023 106.083 18.0381C105.604 18.6738 105.365 19.7163 105.365 21.1655V27H103.52V15.7412H105.006L105.283 17.2793H105.386C105.707 16.7324 106.158 16.3052 106.739 15.9976C107.327 15.6899 107.983 15.5361 108.708 15.5361C110.472 15.5361 111.62 16.165 112.153 17.4229H112.256C112.618 16.8213 113.11 16.3564 113.732 16.0283C114.361 15.7002 115.072 15.5361 115.865 15.5361C117.137 15.5361 118.087 15.8643 118.716 16.5205C119.352 17.1768 119.669 18.2261 119.669 19.6685V27H117.844ZM125.012 27H123.166V15.7412H125.012V27ZM123.022 12.6958C123.022 12.2856 123.125 11.9883 123.33 11.8037C123.542 11.6191 123.802 11.5269 124.109 11.5269C124.396 11.5269 124.646 11.6191 124.858 11.8037C125.077 11.9883 125.186 12.2856 125.186 12.6958C125.186 13.0991 125.077 13.3965 124.858 13.5879C124.646 13.7793 124.396 13.875 124.109 13.875C123.802 13.875 123.542 13.7793 123.33 13.5879C123.125 13.3965 123.022 13.0991 123.022 12.6958ZM133.092 27.2051C131.472 27.2051 130.21 26.7095 129.308 25.7183C128.406 24.7202 127.955 23.2915 127.955 21.4321C127.955 19.5454 128.409 18.0928 129.318 17.0742C130.234 16.0488 131.537 15.5361 133.225 15.5361C133.772 15.5361 134.312 15.5942 134.845 15.7104C135.385 15.8198 135.83 15.9634 136.178 16.1411L135.614 17.6792C134.664 17.3237 133.854 17.146 133.184 17.146C132.049 17.146 131.212 17.5049 130.672 18.2227C130.132 18.9336 129.862 19.9966 129.862 21.4116C129.862 22.772 130.132 23.8145 130.672 24.5391C131.212 25.2568 132.012 25.6157 133.071 25.6157C134.062 25.6157 135.037 25.397 135.994 24.9595V26.6001C135.214 27.0034 134.247 27.2051 133.092 27.2051ZM82.0479 40.3608C82.0479 42.8354 81.3711 44.729 80.0176 46.0415C78.6709 47.3472 76.7363 48 74.2139 48H70.0405V33.0088H74.6548C76.9858 33.0088 78.8008 33.6514 80.0996 34.9365C81.3984 36.2148 82.0479 38.0229 82.0479 40.3608ZM80.0586 40.4224C80.0586 38.5151 79.5869 37.0728 78.6436 36.0952C77.707 35.1108 76.2886 34.6187 74.3882 34.6187H71.9272V46.3799H73.9678C78.0283 46.3799 80.0586 44.394 80.0586 40.4224ZM89.9126 48.2051C88.2241 48.2051 86.8979 47.6958 85.9341 46.6772C84.9771 45.6519 84.4985 44.2437 84.4985 42.4526C84.4985 40.6479 84.9463 39.2124 85.8418 38.146C86.7373 37.0728 87.9473 36.5361 89.4717 36.5361C90.8867 36.5361 92.0146 36.9941 92.8555 37.9102C93.6963 38.8193 94.1167 40.0532 94.1167 41.6118V42.7295H86.4058C86.4399 44.0078 86.7646 44.9785 87.3799 45.6416C87.9951 46.3047 88.8667 46.6362 89.9946 46.6362C90.5962 46.6362 91.167 46.585 91.707 46.4824C92.2471 46.373 92.8794 46.1646 93.604 45.8569V47.4771C92.9819 47.7437 92.3975 47.9316 91.8506 48.041C91.3037 48.1504 90.6577 48.2051 89.9126 48.2051ZM89.4512 38.0435C88.5693 38.0435 87.8721 38.3271 87.3594 38.8945C86.8467 39.4619 86.5425 40.2515 86.4468 41.2632H92.1787C92.165 40.2104 91.9224 39.4106 91.4507 38.8638C90.979 38.3169 90.3125 38.0435 89.4512 38.0435ZM104.309 44.8931C104.309 45.9458 103.916 46.7627 103.13 47.3438C102.344 47.918 101.24 48.2051 99.8179 48.2051C98.3345 48.2051 97.1553 47.9692 96.2803 47.4976V45.8159C97.5176 46.4175 98.7104 46.7183 99.8589 46.7183C100.789 46.7183 101.465 46.5679 101.889 46.2671C102.313 45.9663 102.525 45.563 102.525 45.0571C102.525 44.6128 102.32 44.2368 101.91 43.9292C101.506 43.6216 100.785 43.2695 99.7461 42.873C98.6865 42.4629 97.9414 42.1143 97.5107 41.8271C97.0801 41.5332 96.7622 41.2051 96.5571 40.8428C96.3589 40.4805 96.2598 40.0396 96.2598 39.52C96.2598 38.5972 96.6357 37.8691 97.3877 37.3359C98.1396 36.8027 99.1719 36.5361 100.484 36.5361C101.763 36.5361 102.959 36.7891 104.073 37.2949L103.448 38.7612C102.306 38.2827 101.277 38.0435 100.361 38.0435C99.5957 38.0435 99.0146 38.1665 98.6182 38.4126C98.2217 38.6519 98.0234 38.9834 98.0234 39.4072C98.0234 39.8174 98.1943 40.1592 98.5361 40.4326C98.8779 40.6992 99.6743 41.0718 100.925 41.5503C101.862 41.8989 102.552 42.2236 102.997 42.5244C103.448 42.8252 103.779 43.1636 103.991 43.5396C104.203 43.9155 104.309 44.3667 104.309 44.8931ZM108.893 48H107.047V36.7412H108.893V48ZM106.903 33.6958C106.903 33.2856 107.006 32.9883 107.211 32.8037C107.423 32.6191 107.683 32.5269 107.99 32.5269C108.277 32.5269 108.527 32.6191 108.739 32.8037C108.958 32.9883 109.067 33.2856 109.067 33.6958C109.067 34.0991 108.958 34.3965 108.739 34.5879C108.527 34.7793 108.277 34.875 107.99 34.875C107.683 34.875 107.423 34.7793 107.211 34.5879C107.006 34.3965 106.903 34.0991 106.903 33.6958ZM116.747 46.6978C117.882 46.6978 118.706 46.3936 119.218 45.7852C119.738 45.1699 119.998 44.1855 119.998 42.832V42.3911C119.998 40.8872 119.738 39.7935 119.218 39.1099C118.699 38.4263 117.861 38.0845 116.706 38.0845C115.763 38.0845 115.031 38.4604 114.512 39.2124C113.999 39.9575 113.743 41.0239 113.743 42.4116C113.743 43.8062 113.992 44.8691 114.491 45.6006C114.997 46.332 115.749 46.6978 116.747 46.6978ZM119.977 47.8975L120.039 46.5132H119.957C119.198 47.6411 118.036 48.2051 116.47 48.2051C115.014 48.2051 113.876 47.6992 113.056 46.6875C112.242 45.6689 111.835 44.2368 111.835 42.3911C111.835 40.5796 112.246 39.1509 113.066 38.105C113.893 37.0591 115.021 36.5361 116.45 36.5361C117.974 36.5361 119.15 37.1035 119.977 38.2383H120.09L120.336 36.7412H121.802V48.1846C121.802 49.7979 121.392 51.0112 120.572 51.8247C119.758 52.6382 118.49 53.0449 116.768 53.0449C115.127 53.0449 113.777 52.8057 112.717 52.3271V50.625C113.811 51.2129 115.195 51.5068 116.87 51.5068C117.827 51.5068 118.583 51.2266 119.136 50.666C119.697 50.1055 119.977 49.3296 119.977 48.3384V47.8975ZM133.051 48V40.8018C133.051 39.8857 132.846 39.2056 132.436 38.7612C132.032 38.3101 131.396 38.0845 130.528 38.0845C129.373 38.0845 128.532 38.4058 128.006 39.0483C127.486 39.6841 127.227 40.7231 127.227 42.1655V48H125.381V36.7412H126.868L127.145 38.2793H127.247C127.596 37.7256 128.084 37.2983 128.713 36.9976C129.342 36.6899 130.036 36.5361 130.795 36.5361C132.176 36.5361 133.201 36.8711 133.871 37.541C134.541 38.2109 134.876 39.2534 134.876 40.6685V48H133.051Z" fill="white"/>
</svg>
