<svg width="191" height="50" viewBox="0 0 191 50" fill="none" xmlns="http://www.w3.org/2000/svg">
<path fill-rule="evenodd" clip-rule="evenodd" d="M50 0H0V50H50V0ZM23.7651 10.2085H14.5833V39.8127H25.6217C28.9581 39.8127 31.5949 39.0567 33.5322 37.5448C35.4829 36.0329 36.4583 33.927 36.4583 31.2271C36.4583 29.3237 36.0412 27.7982 35.2071 26.6508C34.3865 25.5034 33.0411 24.7204 31.1711 24.3019V24.0994C32.5434 23.8699 33.6398 23.1882 34.4604 22.0543C35.2945 20.9203 35.7116 19.4691 35.7116 17.7007C35.7116 15.0953 34.7631 13.1987 32.8662 12.0107C30.9828 10.8093 27.9491 10.2085 23.7651 10.2085ZM24.4714 21.9328H20.839V15.3518H24.1283C25.9176 15.3518 27.2226 15.6015 28.0432 16.101C28.8773 16.587 29.2944 17.397 29.2944 18.5309C29.2944 19.7459 28.911 20.6166 28.1441 21.143C27.3908 21.6695 26.1665 21.9328 24.4714 21.9328ZM20.839 34.6289V26.914H24.7136C28.2114 26.914 29.9603 28.1425 29.9603 30.5994C29.9603 31.9628 29.55 32.9753 28.7294 33.6367C27.9087 34.2982 26.6374 34.6289 24.9154 34.6289H20.839Z" fill="white"/>
<path d="M62.7207 16.0117H68.4219C71.1016 16.0117 73.0339 16.4128 74.2188 17.2148C75.4128 18.0078 76.0098 19.2565 76.0098 20.9609C76.0098 22.1458 75.6862 23.1257 75.0391 23.9004C74.3919 24.666 73.4486 25.1628 72.209 25.3906V25.5273C73.7493 25.7917 74.8796 26.3249 75.5996 27.127C76.3288 27.929 76.6934 28.9909 76.6934 30.3125C76.6934 32.099 76.0827 33.4935 74.8613 34.4961C73.64 35.4987 71.9355 36 69.748 36H62.7207V16.0117ZM65.2363 24.5156H68.9277C70.4954 24.5156 71.6348 24.265 72.3457 23.7637C73.0566 23.2624 73.4121 22.4238 73.4121 21.248C73.4121 20.1543 73.0202 19.3659 72.2363 18.8828C71.4616 18.3997 70.2311 18.1582 68.5449 18.1582H65.2363V24.5156ZM65.2363 26.6211V33.8672H69.2695C70.8737 33.8672 72.0632 33.5573 72.8379 32.9375C73.6126 32.3177 74 31.3789 74 30.1211C74 28.9271 73.5898 28.0475 72.7695 27.4824C71.9492 26.9082 70.7188 26.6211 69.0781 26.6211H65.2363ZM93.6328 28.4668C93.6328 30.9186 93.013 32.8327 91.7734 34.209C90.5339 35.5853 88.8203 36.2734 86.6328 36.2734C85.2747 36.2734 84.0716 35.959 83.0234 35.3301C81.9753 34.6921 81.1686 33.7806 80.6035 32.5957C80.0384 31.4108 79.7559 30.0345 79.7559 28.4668C79.7559 26.0241 80.3665 24.1237 81.5879 22.7656C82.8092 21.3984 84.5228 20.7148 86.7285 20.7148C88.8431 20.7148 90.5202 21.4121 91.7598 22.8066C93.0085 24.1921 93.6328 26.0788 93.6328 28.4668ZM82.2988 28.4668C82.2988 30.3535 82.668 31.7891 83.4062 32.7734C84.1536 33.7487 85.252 34.2363 86.7012 34.2363C88.1322 34.2363 89.2214 33.7487 89.9688 32.7734C90.7161 31.7891 91.0898 30.3535 91.0898 28.4668C91.0898 26.5801 90.7116 25.1628 89.9551 24.2148C89.2077 23.2578 88.1094 22.7793 86.6602 22.7793C83.7526 22.7793 82.2988 24.6751 82.2988 28.4668ZM110.586 28.4668C110.586 30.9186 109.966 32.8327 108.727 34.209C107.487 35.5853 105.773 36.2734 103.586 36.2734C102.228 36.2734 101.025 35.959 99.9766 35.3301C98.9284 34.6921 98.1217 33.7806 97.5566 32.5957C96.9915 31.4108 96.709 30.0345 96.709 28.4668C96.709 26.0241 97.3197 24.1237 98.541 22.7656C99.7624 21.3984 101.476 20.7148 103.682 20.7148C105.796 20.7148 107.473 21.4121 108.713 22.8066C109.962 24.1921 110.586 26.0788 110.586 28.4668ZM99.252 28.4668C99.252 30.3535 99.6211 31.7891 100.359 32.7734C101.107 33.7487 102.205 34.2363 103.654 34.2363C105.085 34.2363 106.174 33.7487 106.922 32.7734C107.669 31.7891 108.043 30.3535 108.043 28.4668C108.043 26.5801 107.665 25.1628 106.908 24.2148C106.161 23.2578 105.062 22.7793 103.613 22.7793C100.706 22.7793 99.252 24.6751 99.252 28.4668ZM119.514 34.2637C119.833 34.2637 120.206 34.2318 120.635 34.168C121.063 34.1042 121.387 34.0312 121.605 33.9492V35.8359C121.378 35.9362 121.022 36.0319 120.539 36.123C120.065 36.2233 119.582 36.2734 119.09 36.2734C116.155 36.2734 114.688 34.7285 114.688 31.6387V22.9023H112.568V21.7266L114.715 20.7422L115.699 17.543H117.162V20.9883H121.496V22.9023H117.162V31.5703C117.162 32.4362 117.367 33.1016 117.777 33.5664C118.197 34.0312 118.775 34.2637 119.514 34.2637ZM134.389 31.8574C134.389 33.2611 133.865 34.3503 132.816 35.125C131.768 35.8906 130.296 36.2734 128.4 36.2734C126.423 36.2734 124.85 35.959 123.684 35.3301V33.0879C125.333 33.89 126.924 34.291 128.455 34.291C129.695 34.291 130.597 34.0905 131.162 33.6895C131.727 33.2884 132.01 32.7507 132.01 32.0762C132.01 31.4837 131.736 30.9824 131.189 30.5723C130.652 30.1621 129.69 29.6927 128.305 29.1641C126.892 28.6172 125.898 28.1523 125.324 27.7695C124.75 27.3776 124.326 26.9401 124.053 26.457C123.788 25.974 123.656 25.3861 123.656 24.6934C123.656 23.4629 124.158 22.4922 125.16 21.7812C126.163 21.0703 127.539 20.7148 129.289 20.7148C130.993 20.7148 132.589 21.0521 134.074 21.7266L133.24 23.6816C131.718 23.0436 130.346 22.7246 129.125 22.7246C128.104 22.7246 127.329 22.8887 126.801 23.2168C126.272 23.5358 126.008 23.9779 126.008 24.543C126.008 25.0898 126.236 25.5456 126.691 25.9102C127.147 26.2656 128.209 26.7624 129.877 27.4004C131.126 27.8652 132.046 28.2982 132.639 28.6992C133.24 29.1003 133.682 29.5514 133.965 30.0527C134.247 30.554 134.389 31.1556 134.389 31.8574ZM143.057 34.2637C143.376 34.2637 143.749 34.2318 144.178 34.168C144.606 34.1042 144.93 34.0312 145.148 33.9492V35.8359C144.921 35.9362 144.565 36.0319 144.082 36.123C143.608 36.2233 143.125 36.2734 142.633 36.2734C139.698 36.2734 138.23 34.7285 138.23 31.6387V22.9023H136.111V21.7266L138.258 20.7422L139.242 17.543H140.705V20.9883H145.039V22.9023H140.705V31.5703C140.705 32.4362 140.91 33.1016 141.32 33.5664C141.74 34.0312 142.318 34.2637 143.057 34.2637ZM155.156 20.7148C155.822 20.7148 156.41 20.7695 156.92 20.8789L156.619 23.1484C156.063 23.0208 155.521 22.957 154.992 22.957C154.199 22.957 153.461 23.1758 152.777 23.6133C152.103 24.0508 151.574 24.6569 151.191 25.4316C150.809 26.1973 150.617 27.0495 150.617 27.9883V36H148.156V20.9883H150.18L150.453 23.7363H150.562C151.137 22.7428 151.816 21.9909 152.6 21.4805C153.383 20.9701 154.236 20.7148 155.156 20.7148ZM168.719 36L168.24 33.8672H168.131C167.383 34.806 166.636 35.444 165.889 35.7812C165.15 36.1094 164.216 36.2734 163.086 36.2734C161.609 36.2734 160.452 35.8861 159.613 35.1113C158.775 34.3366 158.355 33.2428 158.355 31.8301C158.355 28.7858 160.757 27.1908 165.561 27.0449L168.104 26.9492V26.0605C168.104 24.9212 167.857 24.0827 167.365 23.5449C166.873 22.998 166.085 22.7246 165 22.7246C164.207 22.7246 163.455 22.8431 162.744 23.0801C162.042 23.3171 161.382 23.5814 160.762 23.873L160.01 22.0273C160.766 21.6263 161.591 21.3118 162.484 21.084C163.378 20.8561 164.262 20.7422 165.137 20.7422C166.951 20.7422 168.299 21.1432 169.184 21.9453C170.068 22.7474 170.51 24.0234 170.51 25.7734V36H168.719ZM163.646 34.291C165.023 34.291 166.103 33.9219 166.887 33.1836C167.68 32.4362 168.076 31.3789 168.076 30.0117V28.6582L165.861 28.7539C164.139 28.8177 162.881 29.0911 162.088 29.5742C161.304 30.0573 160.912 30.8184 160.912 31.8574C160.912 32.6413 161.149 33.2428 161.623 33.6621C162.106 34.0814 162.781 34.291 163.646 34.291ZM182.281 36.2734C180.267 36.2734 178.717 35.5488 177.633 34.0996H177.469L177.523 34.6602C177.596 35.3711 177.633 36.0046 177.633 36.5605V42.7266H175.172V20.9883H177.195L177.523 23.0391H177.633C178.216 22.2188 178.891 21.6263 179.656 21.2617C180.422 20.8971 181.306 20.7148 182.309 20.7148C184.259 20.7148 185.772 21.3939 186.848 22.752C187.932 24.1009 188.475 26.0059 188.475 28.4668C188.475 30.9186 187.932 32.8327 186.848 34.209C185.763 35.5853 184.241 36.2734 182.281 36.2734ZM181.871 22.7793C180.385 22.7793 179.31 23.1986 178.645 24.0371C177.988 24.8757 177.651 26.1927 177.633 27.9883V28.4668C177.633 30.4993 177.97 31.9714 178.645 32.8828C179.319 33.7852 180.413 34.2363 181.926 34.2363C183.184 34.2363 184.163 33.7259 184.865 32.7051C185.576 31.6842 185.932 30.2624 185.932 28.4395C185.932 26.6074 185.576 25.2083 184.865 24.2422C184.163 23.2669 183.165 22.7793 181.871 22.7793Z" fill="white"/>
</svg>
