<svg width="414" height="250" viewBox="0 0 414 250" fill="none" xmlns="http://www.w3.org/2000/svg">
<path d="M413.699 65.5059C412.999 60.7616 411.084 56.2794 408.14 52.4957C405.196 48.712 401.323 45.7557 396.898 43.9145C392.474 42.0732 387.649 41.4099 382.892 41.9889C378.135 42.5679 373.61 44.3696 369.755 47.2186C367.604 42.3378 364.281 38.0641 360.083 34.7768C355.885 31.4896 350.942 29.2904 345.691 28.3744C340.44 27.4584 335.044 27.8539 329.982 29.526C324.921 31.198 320.35 34.0947 316.675 37.9591C316.086 35.0717 314.515 32.4781 312.229 30.6206C309.943 28.7632 307.084 27.7571 304.14 27.7738C302.957 27.7775 301.781 27.949 300.647 28.283C300.647 28.0979 300.647 27.9358 300.647 27.7738C300.646 21.3561 298.425 15.1367 294.361 10.1726C290.297 5.20848 284.641 1.80594 278.354 0.543126C272.067 -0.719685 265.538 0.235195 259.875 3.24546C254.212 6.25573 249.765 11.1356 247.29 17.056C245.169 13.2571 241.849 10.2693 237.851 8.55986C233.852 6.85043 229.4 6.51594 225.192 7.60871C220.983 8.70148 217.255 11.1598 214.591 14.5991C211.927 18.0384 210.478 22.2646 210.469 26.6163C210.473 27.3046 210.511 27.9923 210.585 28.6766C208.675 28.0806 206.687 27.7762 204.687 27.7738C201.216 27.7783 197.808 28.705 194.811 30.459C188.268 21.2705 178.978 14.4 168.281 10.8388C157.583 7.2777 146.032 7.21005 135.294 10.6458C124.556 14.0815 115.186 20.8428 108.536 29.9542C101.886 39.0656 98.3003 50.0559 98.2961 61.3392V61.4549C94.5608 62.8686 91.3435 65.3862 89.0714 68.6731C86.7994 71.9601 85.5801 75.8611 85.5754 79.858C78.397 81.9203 72.3021 86.6975 68.581 93.1784C64.8599 99.6592 63.8047 107.335 65.6387 114.581C63.5021 113.809 61.2491 113.41 58.9777 113.4C56.1673 113.4 53.3901 114.008 50.8364 115.183C48.3961 109.693 44.1702 105.191 38.8472 102.412C33.5241 99.6325 27.4176 98.7392 21.5225 99.8774C15.6273 101.016 10.291 104.118 6.38278 108.68C2.47456 113.241 0.224798 118.993 0 124.998V250H414V65.5753L413.699 65.5059Z" fill="white"/>
</svg>
