<svg width="206" height="49" viewBox="0 0 206 49" fill="none" xmlns="http://www.w3.org/2000/svg">
<rect x="2" y="2" width="54" height="45" stroke="white" stroke-width="4"/>
<path d="M9.23166 18.3562L16.5156 15.1924L9.23166 11.6232V8.92102L20.016 14.5056V16.1156L9.23166 21.0472V18.3562Z" fill="white"/>
<path d="M33.8333 23.0588H22.2333V20.1765H33.8333V23.0588Z" fill="white"/>
<path d="M79.2793 16.9395C77.1283 16.9395 75.4375 17.6595 74.207 19.0996C72.9766 20.5397 72.3613 22.5085 72.3613 25.0059C72.3613 27.5853 72.9583 29.5768 74.1523 30.9805C75.3464 32.375 77.0462 33.0723 79.252 33.0723C80.6738 33.0723 82.2734 32.8079 84.0508 32.2793V34.4668C83.2031 34.7767 82.3874 34.9863 81.6035 35.0957C80.8197 35.2142 79.9173 35.2734 78.8965 35.2734C75.9525 35.2734 73.6829 34.3802 72.0879 32.5938C70.502 30.7982 69.709 28.2598 69.709 24.9785C69.709 22.9186 70.0872 21.1139 70.8438 19.5645C71.6094 18.015 72.7168 16.821 74.166 15.9824C75.6243 15.1439 77.3379 14.7246 79.3066 14.7246C81.4212 14.7246 83.2624 15.1165 84.8301 15.9004L83.8184 18.0332C82.2233 17.304 80.7103 16.9395 79.2793 16.9395ZM101.113 27.4668C101.113 29.9186 100.493 31.8327 99.2539 33.209C98.0143 34.5853 96.3008 35.2734 94.1133 35.2734C92.7552 35.2734 91.5521 34.959 90.5039 34.3301C89.4557 33.6921 88.6491 32.7806 88.084 31.5957C87.5189 30.4108 87.2363 29.0345 87.2363 27.4668C87.2363 25.0241 87.847 23.1237 89.0684 21.7656C90.2897 20.3984 92.0033 19.7148 94.209 19.7148C96.3236 19.7148 98.0007 20.4121 99.2402 21.8066C100.489 23.1921 101.113 25.0788 101.113 27.4668ZM89.7793 27.4668C89.7793 29.3535 90.1484 30.7891 90.8867 31.7734C91.6341 32.7487 92.7324 33.2363 94.1816 33.2363C95.6126 33.2363 96.7018 32.7487 97.4492 31.7734C98.1966 30.7891 98.5703 29.3535 98.5703 27.4668C98.5703 25.5801 98.1921 24.1628 97.4355 23.2148C96.6882 22.2578 95.5898 21.7793 94.1406 21.7793C91.2331 21.7793 89.7793 23.6751 89.7793 27.4668ZM124.123 35V25.334C124.123 22.9642 123.107 21.7793 121.074 21.7793C119.68 21.7793 118.654 22.1849 117.998 22.9961C117.342 23.8073 117.014 25.0469 117.014 26.7148V35H114.566V25.334C114.566 24.1491 114.316 23.2604 113.814 22.668C113.322 22.0755 112.548 21.7793 111.49 21.7793C110.105 21.7793 109.089 22.2031 108.441 23.0508C107.803 23.8984 107.484 25.2884 107.484 27.2207V35H105.023V19.9883H107.006L107.375 22.0391H107.512C107.94 21.3099 108.542 20.7402 109.316 20.3301C110.1 19.9199 110.975 19.7148 111.941 19.7148C114.293 19.7148 115.824 20.5534 116.535 22.2305H116.672C117.155 21.4284 117.811 20.8086 118.641 20.3711C119.479 19.9336 120.427 19.7148 121.484 19.7148C123.18 19.7148 124.447 20.1523 125.285 21.0273C126.133 21.9023 126.557 23.3014 126.557 25.2246V35H124.123ZM150.318 35V25.334C150.318 22.9642 149.302 21.7793 147.27 21.7793C145.875 21.7793 144.85 22.1849 144.193 22.9961C143.537 23.8073 143.209 25.0469 143.209 26.7148V35H140.762V25.334C140.762 24.1491 140.511 23.2604 140.01 22.668C139.518 22.0755 138.743 21.7793 137.686 21.7793C136.3 21.7793 135.284 22.2031 134.637 23.0508C133.999 23.8984 133.68 25.2884 133.68 27.2207V35H131.219V19.9883H133.201L133.57 22.0391H133.707C134.135 21.3099 134.737 20.7402 135.512 20.3301C136.296 19.9199 137.171 19.7148 138.137 19.7148C140.488 19.7148 142.02 20.5534 142.73 22.2305H142.867C143.35 21.4284 144.007 20.8086 144.836 20.3711C145.674 19.9336 146.622 19.7148 147.68 19.7148C149.375 19.7148 150.642 20.1523 151.48 21.0273C152.328 21.9023 152.752 23.3014 152.752 25.2246V35H150.318ZM166.684 35L166.205 32.8672H166.096C165.348 33.806 164.601 34.444 163.854 34.7812C163.115 35.1094 162.181 35.2734 161.051 35.2734C159.574 35.2734 158.417 34.8861 157.578 34.1113C156.74 33.3366 156.32 32.2428 156.32 30.8301C156.32 27.7858 158.722 26.1908 163.525 26.0449L166.068 25.9492V25.0605C166.068 23.9212 165.822 23.0827 165.33 22.5449C164.838 21.998 164.049 21.7246 162.965 21.7246C162.172 21.7246 161.42 21.8431 160.709 22.0801C160.007 22.3171 159.346 22.5814 158.727 22.873L157.975 21.0273C158.731 20.6263 159.556 20.3118 160.449 20.084C161.342 19.8561 162.227 19.7422 163.102 19.7422C164.915 19.7422 166.264 20.1432 167.148 20.9453C168.033 21.7474 168.475 23.0234 168.475 24.7734V35H166.684ZM161.611 33.291C162.988 33.291 164.068 32.9219 164.852 32.1836C165.645 31.4362 166.041 30.3789 166.041 29.0117V27.6582L163.826 27.7539C162.104 27.8177 160.846 28.0911 160.053 28.5742C159.269 29.0573 158.877 29.8184 158.877 30.8574C158.877 31.6413 159.114 32.2428 159.588 32.6621C160.071 33.0814 160.745 33.291 161.611 33.291ZM183.363 35V25.4023C183.363 24.181 183.09 23.2741 182.543 22.6816C182.005 22.0801 181.158 21.7793 180 21.7793C178.46 21.7793 177.339 22.2077 176.637 23.0645C175.944 23.9121 175.598 25.2975 175.598 27.2207V35H173.137V19.9883H175.119L175.488 22.0391H175.625C176.09 21.3008 176.742 20.7311 177.58 20.3301C178.419 19.9199 179.344 19.7148 180.355 19.7148C182.197 19.7148 183.564 20.1615 184.457 21.0547C185.35 21.9479 185.797 23.3379 185.797 25.2246V35H183.363ZM195.764 35.2734C193.813 35.2734 192.3 34.599 191.225 33.25C190.149 31.901 189.611 29.9915 189.611 27.5215C189.611 25.0697 190.149 23.1556 191.225 21.7793C192.309 20.403 193.831 19.7148 195.791 19.7148C197.805 19.7148 199.355 20.4531 200.439 21.9297H200.617C200.59 21.7474 200.553 21.3828 200.508 20.8359C200.462 20.2799 200.439 19.9062 200.439 19.7148V13.7266H202.9V35H200.918L200.549 32.9902H200.439C199.391 34.5124 197.833 35.2734 195.764 35.2734ZM196.16 33.2363C197.655 33.2363 198.744 32.8307 199.428 32.0195C200.12 31.1992 200.467 29.8594 200.467 28V27.5488C200.467 25.4616 200.116 23.9759 199.414 23.0918C198.721 22.1986 197.628 21.752 196.133 21.752C194.866 21.752 193.886 22.2578 193.193 23.2695C192.501 24.2721 192.154 25.7077 192.154 27.5762C192.154 29.4355 192.496 30.8438 193.18 31.8008C193.872 32.7578 194.866 33.2363 196.16 33.2363Z" fill="white"/>
</svg>
