<svg width="1195" height="1076" viewBox="0 0 1195 1076" fill="none" xmlns="http://www.w3.org/2000/svg">
<ellipse cx="597.5" cy="537.923" rx="597" ry="537.923" fill="url(#paint0_radial)"/>
<path fill-rule="evenodd" clip-rule="evenodd" d="M597.9 972.948C532.866 972.948 469.669 961.429 410.061 938.711C352.598 916.813 301.031 885.498 256.794 845.639C212.557 805.782 177.803 759.316 153.496 707.533C128.284 653.825 115.5 596.881 115.5 538.285C115.5 479.687 128.284 422.743 153.496 369.034C177.803 317.253 212.557 270.788 256.792 230.93C301.026 191.073 352.594 159.758 410.064 137.856C469.672 115.138 532.869 103.62 597.9 103.62C662.932 103.62 726.129 115.138 785.737 137.856C843.204 159.757 894.771 191.071 939.008 230.93C983.247 270.791 1018 317.258 1042.3 369.039C1067.52 422.742 1080.3 479.685 1080.3 538.285C1080.3 596.882 1067.51 653.827 1042.3 707.534C1018 759.312 983.246 805.777 939.009 845.637C894.776 885.493 843.208 916.808 785.737 938.711C726.13 961.429 662.933 972.948 597.9 972.948Z" fill="white" fill-opacity="0.04"/>
<path fill-rule="evenodd" clip-rule="evenodd" d="M597.9 909.874C542.287 909.874 488.264 900.032 437.332 880.62C388.21 861.901 344.12 835.125 306.29 801.039C268.46 766.954 238.745 727.226 217.965 682.963C196.422 637.071 185.5 588.394 185.5 538.285C185.5 488.174 196.422 439.497 217.965 393.605C238.744 349.341 268.461 309.614 306.29 275.529C344.118 241.445 388.208 214.668 437.333 195.946C488.265 176.536 542.288 166.693 597.9 166.693C653.512 166.693 707.536 176.536 758.468 195.947C807.592 214.668 851.681 241.444 889.511 275.529C927.34 309.616 957.057 349.343 977.834 393.607C999.377 439.497 1010.3 488.174 1010.3 538.285C1010.3 588.394 999.377 637.071 977.833 682.964C957.057 727.225 927.34 766.952 889.511 801.038C851.683 835.123 807.593 861.898 758.467 880.621C707.536 900.032 653.512 909.874 597.9 909.874Z" fill="white" fill-opacity="0.04"/>
<path fill-rule="evenodd" clip-rule="evenodd" d="M597.9 846.801C551.708 846.801 506.859 838.635 464.601 822.53C423.82 806.989 387.21 784.753 355.787 756.439C324.364 728.126 299.685 695.139 282.436 658.392C264.562 620.317 255.5 579.906 255.5 538.285C255.5 496.662 264.562 456.253 282.436 418.176C299.685 381.431 324.364 348.442 355.787 320.129C387.21 291.815 423.82 269.58 464.601 254.037C506.859 237.932 551.707 229.766 597.9 229.766C644.093 229.766 688.941 237.932 731.199 254.038C771.98 269.58 808.59 291.815 840.013 320.129C871.436 348.442 896.115 381.431 913.363 418.176C931.237 456.253 940.299 496.662 940.299 538.285C940.299 579.906 931.237 620.317 913.363 658.392C896.115 695.139 871.436 728.126 840.013 756.439C808.59 784.753 771.98 806.988 731.199 822.53C688.941 838.635 644.093 846.801 597.9 846.801Z" fill="white" fill-opacity="0.04"/>
<ellipse cx="597.5" cy="537.923" rx="273" ry="245.985" fill="white" fill-opacity="0.04"/>
<ellipse cx="578.5" cy="200.032" rx="4" ry="3.60418" fill="white"/>
<ellipse cx="299" cy="340.144" rx="2.5" ry="2.25261" fill="white" fill-opacity="0.5"/>
<ellipse cx="879" cy="179.758" rx="2.5" ry="2.25262" fill="white" fill-opacity="0.7"/>
<ellipse cx="394" cy="216.701" rx="2.5" ry="2.25261" fill="white" fill-opacity="0.7"/>
<ellipse cx="903" cy="720.385" rx="2.5" ry="2.25262" fill="white" fill-opacity="0.7"/>
<ellipse cx="218" cy="681.64" rx="2.5" ry="2.25261" fill="white" fill-opacity="0.7"/>
<ellipse cx="232" cy="168.946" rx="2.5" ry="2.25261" fill="white" fill-opacity="0.5"/>
<ellipse cx="727" cy="275.269" rx="2.5" ry="2.25261" fill="white" fill-opacity="0.5"/>
<ellipse cx="170" cy="462.686" rx="2.5" ry="2.25261" fill="white" fill-opacity="0.5"/>
<ellipse cx="322" cy="718.583" rx="2.5" ry="2.25261" fill="white" fill-opacity="0.5"/>
<ellipse cx="884" cy="649.202" rx="2.5" ry="2.25261" fill="white" fill-opacity="0.5"/>
<ellipse cx="189.5" cy="303.652" rx="4" ry="3.60418" fill="white"/>
<ellipse cx="251.5" cy="509.09" rx="4" ry="3.60418" fill="white"/>
<ellipse cx="157.5" cy="643.346" rx="4" ry="3.60418" fill="white"/>
<ellipse cx="909.5" cy="412.678" rx="4" ry="3.60419" fill="white"/>
<ellipse cx="831.5" cy="255.897" rx="4" ry="3.60418" fill="white"/>
<defs>
<radialGradient id="paint0_radial" cx="0" cy="0" r="1" gradientUnits="userSpaceOnUse" gradientTransform="translate(597.5 537.923) rotate(90) scale(537.923 597)">
<stop stop-color="#2E8EFD" stop-opacity="0.52"/>
<stop offset="1" stop-color="#2E8EFD" stop-opacity="0"/>
</radialGradient>
</defs>
</svg>
