<svg width="254" height="50" viewBox="0 0 254 50" fill="none" xmlns="http://www.w3.org/2000/svg">
<rect width="50" height="50" fill="white"/>
<path d="M14.268 24.032C15.5 23.64 16.984 23.304 18.664 23.304H18.832C17.74 25.992 16.284 27.98 14.688 29.548C14.436 28.064 14.268 26.44 14.268 24.704V24.032ZM9.06 32.6C8.08 32.6 7.632 32.096 7.632 31.06C7.632 29.128 9.368 26.664 11.804 25.152C11.804 27.28 12.056 29.436 12.42 31.396C11.188 32.18 10.012 32.6 9.06 32.6ZM19.868 19.272C19.84 19.748 19.7 20.56 19.56 21.064C19.308 21.036 19.056 21.036 18.776 21.036C17.404 21.036 15.836 21.26 14.352 21.652C14.436 20.616 14.52 19.608 14.604 18.656C18.02 18.488 21.716 18.124 24.516 17.648L24.488 15.072C21.548 15.744 18.384 16.108 14.912 16.248C15.024 15.576 15.136 14.932 15.248 14.4C15.332 14.008 15.444 13.504 15.584 13.084L12.672 13C12.7 13.392 12.644 13.98 12.616 14.456L12.42 16.332C11.916 16.332 11.412 16.332 10.908 16.332C9.48 16.332 7.044 16.108 6.092 15.968L6.176 18.544C7.352 18.628 9.508 18.74 10.824 18.74C11.244 18.74 11.692 18.74 12.168 18.74C12.056 19.944 11.944 21.232 11.888 22.52C8.052 24.284 5 28.008 5 31.564C5 34.14 6.568 35.316 8.5 35.316C9.984 35.316 11.58 34.756 13.008 33.972C13.12 34.448 13.26 34.896 13.4 35.316L15.948 34.56C15.724 33.888 15.5 33.16 15.304 32.404C17.544 30.5 19.756 27.532 21.296 23.668C23.592 24.396 24.796 26.104 24.796 28.008C24.796 31.228 22.108 33.86 16.956 34.42L18.44 36.744C25.02 35.708 27.54 32.096 27.54 28.148C27.54 25.012 25.44 22.492 22.08 21.484C22.248 20.98 22.444 20.308 22.612 19.944L19.868 19.272Z" fill="#002142"/>
<path d="M34.6389 27.75C35.5135 27.4858 36.5669 27.2594 37.7594 27.2594H37.8787C37.1035 29.0707 36.07 30.4103 34.9371 31.467C34.7582 30.467 34.6389 29.3726 34.6389 28.2028V27.75ZM30.942 33.5236C30.2464 33.5236 29.9284 33.1839 29.9284 32.4858C29.9284 31.1839 31.1607 29.5236 32.8899 28.5047C32.8899 29.9387 33.0688 31.3915 33.3271 32.7122C32.4526 33.2405 31.6178 33.5236 30.942 33.5236ZM38.6141 24.5424C38.5942 24.8632 38.4948 25.4103 38.3955 25.75C38.2166 25.7311 38.0377 25.7311 37.8389 25.7311C36.865 25.7311 35.752 25.882 34.6986 26.1462C34.7582 25.4481 34.8178 24.7688 34.8774 24.1273C37.3023 24.0141 39.9259 23.7688 41.9135 23.4481L41.8936 21.7122C39.8066 22.1651 37.5607 22.4103 35.0961 22.5047C35.1756 22.0519 35.2551 21.6179 35.3346 21.2594C35.3942 20.9953 35.4737 20.6556 35.5731 20.3726L33.506 20.316C33.5259 20.5802 33.4861 20.9764 33.4663 21.2971L33.3271 22.5613C32.9694 22.5613 32.6116 22.5613 32.2538 22.5613C31.2402 22.5613 29.511 22.4103 28.8352 22.316L28.8948 24.0519C29.7296 24.1085 31.2601 24.1839 32.1942 24.1839C32.4924 24.1839 32.8104 24.1839 33.1483 24.1839C33.0688 24.9953 32.9893 25.8632 32.9495 26.7311C30.2265 27.9198 28.0601 30.4292 28.0601 32.8254C28.0601 34.5613 29.1731 35.3537 30.5445 35.3537C31.5979 35.3537 32.7309 34.9764 33.7445 34.4481C33.824 34.7688 33.9234 35.0707 34.0228 35.3537L35.8315 34.8443C35.6725 34.3915 35.5135 33.9009 35.3743 33.3915C36.9644 32.1085 38.5346 30.1085 39.6278 27.5047C41.2576 27.9953 42.1122 29.1462 42.1122 30.4292C42.1122 32.599 40.2042 34.3726 36.547 34.75L37.6004 36.316C42.2712 35.6179 44.0601 33.1839 44.0601 30.5236C44.0601 28.4103 42.5694 26.7122 40.1843 26.033C40.3035 25.6934 40.4427 25.2405 40.5619 24.9953L38.6141 24.5424Z" fill="#002142"/>
<path d="M78.7305 24.8145C78.7305 28.1139 77.8281 30.6387 76.0234 32.3887C74.2279 34.1296 71.6484 35 68.2852 35H62.7207V15.0117H68.873C71.9811 15.0117 74.401 15.8685 76.1328 17.582C77.8646 19.2865 78.7305 21.6973 78.7305 24.8145ZM76.0781 24.8965C76.0781 22.3535 75.4492 20.4303 74.1914 19.127C72.9427 17.8145 71.0514 17.1582 68.5176 17.1582H65.2363V32.8398H67.957C73.3711 32.8398 76.0781 30.1921 76.0781 24.8965ZM89.2168 35.2734C86.9655 35.2734 85.1973 34.5944 83.9121 33.2363C82.6361 31.8691 81.998 29.9915 81.998 27.6035C81.998 25.1973 82.5951 23.2832 83.7891 21.8613C84.9831 20.4303 86.5964 19.7148 88.6289 19.7148C90.5156 19.7148 92.0195 20.3255 93.1406 21.5469C94.2617 22.7591 94.8223 24.4043 94.8223 26.4824V27.9727H84.541C84.5866 29.6771 85.0195 30.9714 85.8398 31.8555C86.6602 32.7396 87.8223 33.1816 89.3262 33.1816C90.1283 33.1816 90.8893 33.1133 91.6094 32.9766C92.3294 32.8307 93.1725 32.5527 94.1387 32.1426V34.3027C93.3092 34.6582 92.5299 34.9089 91.8008 35.0547C91.0716 35.2005 90.2103 35.2734 89.2168 35.2734ZM88.6016 21.7246C87.4258 21.7246 86.4961 22.1029 85.8125 22.8594C85.1289 23.6159 84.7233 24.6686 84.5957 26.0176H92.2383C92.2201 24.6139 91.8965 23.5475 91.2676 22.8184C90.6387 22.0892 89.75 21.7246 88.6016 21.7246ZM108.412 30.8574C108.412 32.2611 107.888 33.3503 106.84 34.125C105.792 34.8906 104.32 35.2734 102.424 35.2734C100.446 35.2734 98.8737 34.959 97.707 34.3301V32.0879C99.3568 32.89 100.947 33.291 102.479 33.291C103.718 33.291 104.62 33.0905 105.186 32.6895C105.751 32.2884 106.033 31.7507 106.033 31.0762C106.033 30.4837 105.76 29.9824 105.213 29.5723C104.675 29.1621 103.714 28.6927 102.328 28.1641C100.915 27.6172 99.9219 27.1523 99.3477 26.7695C98.7734 26.3776 98.3496 25.9401 98.0762 25.457C97.8118 24.974 97.6797 24.3861 97.6797 23.6934C97.6797 22.4629 98.181 21.4922 99.1836 20.7812C100.186 20.0703 101.562 19.7148 103.312 19.7148C105.017 19.7148 106.612 20.0521 108.098 20.7266L107.264 22.6816C105.742 22.0436 104.37 21.7246 103.148 21.7246C102.128 21.7246 101.353 21.8887 100.824 22.2168C100.296 22.5358 100.031 22.9779 100.031 23.543C100.031 24.0898 100.259 24.5456 100.715 24.9102C101.171 25.2656 102.232 25.7624 103.9 26.4004C105.149 26.8652 106.07 27.2982 106.662 27.6992C107.264 28.1003 107.706 28.5514 107.988 29.0527C108.271 29.554 108.412 30.1556 108.412 30.8574ZM114.523 35H112.062V19.9883H114.523V35ZM111.871 15.9277C111.871 15.3809 112.008 14.9844 112.281 14.7383C112.564 14.4922 112.91 14.3691 113.32 14.3691C113.703 14.3691 114.036 14.4922 114.318 14.7383C114.61 14.9844 114.756 15.3809 114.756 15.9277C114.756 16.4655 114.61 16.862 114.318 17.1172C114.036 17.3724 113.703 17.5 113.32 17.5C112.91 17.5 112.564 17.3724 112.281 17.1172C112.008 16.862 111.871 16.4655 111.871 15.9277ZM124.996 33.2637C126.509 33.2637 127.607 32.8581 128.291 32.0469C128.984 31.2266 129.33 29.9141 129.33 28.1094V27.5215C129.33 25.5163 128.984 24.0579 128.291 23.1465C127.598 22.235 126.482 21.7793 124.941 21.7793C123.684 21.7793 122.708 22.2806 122.016 23.2832C121.332 24.2767 120.99 25.6986 120.99 27.5488C120.99 29.4082 121.323 30.8255 121.988 31.8008C122.663 32.776 123.665 33.2637 124.996 33.2637ZM129.303 34.8633L129.385 33.0176H129.275C128.264 34.5215 126.714 35.2734 124.627 35.2734C122.686 35.2734 121.168 34.599 120.074 33.25C118.99 31.8919 118.447 29.9824 118.447 27.5215C118.447 25.1061 118.994 23.2012 120.088 21.8066C121.191 20.4121 122.695 19.7148 124.6 19.7148C126.632 19.7148 128.2 20.4714 129.303 21.9844H129.453L129.781 19.9883H131.736V35.2461C131.736 37.3971 131.189 39.015 130.096 40.0996C129.011 41.1842 127.32 41.7266 125.023 41.7266C122.836 41.7266 121.036 41.4076 119.623 40.7695V38.5C121.081 39.2839 122.927 39.6758 125.16 39.6758C126.436 39.6758 127.443 39.3021 128.182 38.5547C128.929 37.8073 129.303 36.7728 129.303 35.4512V34.8633ZM146.734 35V25.4023C146.734 24.181 146.461 23.2741 145.914 22.6816C145.376 22.0801 144.529 21.7793 143.371 21.7793C141.831 21.7793 140.71 22.2077 140.008 23.0645C139.315 23.9121 138.969 25.2975 138.969 27.2207V35H136.508V19.9883H138.49L138.859 22.0391H138.996C139.461 21.3008 140.113 20.7311 140.951 20.3301C141.79 19.9199 142.715 19.7148 143.727 19.7148C145.568 19.7148 146.935 20.1615 147.828 21.0547C148.721 21.9479 149.168 23.3379 149.168 25.2246V35H146.734ZM172.766 29.6543C172.766 31.3952 172.137 32.7669 170.879 33.7695C169.621 34.7721 167.871 35.2734 165.629 35.2734C163.259 35.2734 161.427 34.959 160.133 34.3301V31.9238C160.98 32.2884 161.906 32.5755 162.908 32.7852C163.92 32.9948 164.863 33.0996 165.738 33.0996C167.233 33.0996 168.359 32.8125 169.115 32.2383C169.872 31.6641 170.25 30.8757 170.25 29.873C170.25 29.2077 170.113 28.6608 169.84 28.2324C169.566 27.804 169.106 27.403 168.459 27.0293C167.821 26.6556 166.85 26.2318 165.547 25.7578C163.697 25.0833 162.375 24.2904 161.582 23.3789C160.789 22.4583 160.393 21.2734 160.393 19.8242C160.393 18.2656 160.976 17.026 162.143 16.1055C163.318 15.1849 164.863 14.7246 166.777 14.7246C168.773 14.7246 170.61 15.0983 172.287 15.8457L171.508 18.0059C169.794 17.2949 168.199 16.9395 166.723 16.9395C165.538 16.9395 164.608 17.1947 163.934 17.7051C163.268 18.2155 162.936 18.931 162.936 19.8516C162.936 20.5078 163.063 21.0547 163.318 21.4922C163.583 21.9206 164.002 22.3125 164.576 22.668C165.16 23.0234 166.071 23.429 167.311 23.8848C168.796 24.4316 169.904 24.9648 170.633 25.4844C171.362 25.9948 171.9 26.5872 172.246 27.2617C172.592 27.9271 172.766 28.7246 172.766 29.6543ZM174.105 19.9883H176.744L179.984 28.5332C180.668 30.3926 181.087 31.7552 181.242 32.6211H181.352C181.434 32.2839 181.62 31.6549 181.912 30.7344C182.204 29.8047 182.45 29.0618 182.65 28.5059L185.699 19.9883H188.352L181.885 37.0781C181.256 38.737 180.508 39.9264 179.643 40.6465C178.777 41.3665 177.706 41.7266 176.43 41.7266C175.746 41.7266 175.067 41.6491 174.393 41.4941V39.5391C174.848 39.6484 175.395 39.7031 176.033 39.7031C176.817 39.7031 177.482 39.4844 178.029 39.0469C178.576 38.6185 179.023 37.9531 179.369 37.0508L180.148 35.0547L174.105 19.9883ZM200.506 30.8574C200.506 32.2611 199.982 33.3503 198.934 34.125C197.885 34.8906 196.413 35.2734 194.518 35.2734C192.54 35.2734 190.967 34.959 189.801 34.3301V32.0879C191.451 32.89 193.041 33.291 194.572 33.291C195.812 33.291 196.714 33.0905 197.279 32.6895C197.844 32.2884 198.127 31.7507 198.127 31.0762C198.127 30.4837 197.854 29.9824 197.307 29.5723C196.769 29.1621 195.807 28.6927 194.422 28.1641C193.009 27.6172 192.016 27.1523 191.441 26.7695C190.867 26.3776 190.443 25.9401 190.17 25.457C189.906 24.974 189.773 24.3861 189.773 23.6934C189.773 22.4629 190.275 21.4922 191.277 20.7812C192.28 20.0703 193.656 19.7148 195.406 19.7148C197.111 19.7148 198.706 20.0521 200.191 20.7266L199.357 22.6816C197.835 22.0436 196.464 21.7246 195.242 21.7246C194.221 21.7246 193.447 21.8887 192.918 22.2168C192.389 22.5358 192.125 22.9779 192.125 23.543C192.125 24.0898 192.353 24.5456 192.809 24.9102C193.264 25.2656 194.326 25.7624 195.994 26.4004C197.243 26.8652 198.163 27.2982 198.756 27.6992C199.357 28.1003 199.799 28.5514 200.082 29.0527C200.365 29.554 200.506 30.1556 200.506 30.8574ZM209.174 33.2637C209.493 33.2637 209.867 33.2318 210.295 33.168C210.723 33.1042 211.047 33.0312 211.266 32.9492V34.8359C211.038 34.9362 210.682 35.0319 210.199 35.123C209.725 35.2233 209.242 35.2734 208.75 35.2734C205.815 35.2734 204.348 33.7285 204.348 30.6387V21.9023H202.229V20.7266L204.375 19.7422L205.359 16.543H206.822V19.9883H211.156V21.9023H206.822V30.5703C206.822 31.4362 207.027 32.1016 207.438 32.5664C207.857 33.0312 208.436 33.2637 209.174 33.2637ZM220.658 35.2734C218.407 35.2734 216.639 34.5944 215.354 33.2363C214.077 31.8691 213.439 29.9915 213.439 27.6035C213.439 25.1973 214.036 23.2832 215.23 21.8613C216.424 20.4303 218.038 19.7148 220.07 19.7148C221.957 19.7148 223.461 20.3255 224.582 21.5469C225.703 22.7591 226.264 24.4043 226.264 26.4824V27.9727H215.982C216.028 29.6771 216.461 30.9714 217.281 31.8555C218.102 32.7396 219.264 33.1816 220.768 33.1816C221.57 33.1816 222.331 33.1133 223.051 32.9766C223.771 32.8307 224.614 32.5527 225.58 32.1426V34.3027C224.751 34.6582 223.971 34.9089 223.242 35.0547C222.513 35.2005 221.652 35.2734 220.658 35.2734ZM220.043 21.7246C218.867 21.7246 217.938 22.1029 217.254 22.8594C216.57 23.6159 216.165 24.6686 216.037 26.0176H223.68C223.661 24.6139 223.338 23.5475 222.709 22.8184C222.08 22.0892 221.191 21.7246 220.043 21.7246ZM249.178 35V25.334C249.178 22.9642 248.161 21.7793 246.129 21.7793C244.734 21.7793 243.709 22.1849 243.053 22.9961C242.396 23.8073 242.068 25.0469 242.068 26.7148V35H239.621V25.334C239.621 24.1491 239.37 23.2604 238.869 22.668C238.377 22.0755 237.602 21.7793 236.545 21.7793C235.16 21.7793 234.143 22.2031 233.496 23.0508C232.858 23.8984 232.539 25.2884 232.539 27.2207V35H230.078V19.9883H232.061L232.43 22.0391H232.566C232.995 21.3099 233.596 20.7402 234.371 20.3301C235.155 19.9199 236.03 19.7148 236.996 19.7148C239.348 19.7148 240.879 20.5534 241.59 22.2305H241.727C242.21 21.4284 242.866 20.8086 243.695 20.3711C244.534 19.9336 245.482 19.7148 246.539 19.7148C248.234 19.7148 249.501 20.1523 250.34 21.0273C251.188 21.9023 251.611 23.3014 251.611 25.2246V35H249.178Z" fill="white"/>
</svg>
