<svg width="161" height="37" viewBox="0 0 161 37" fill="none" xmlns="http://www.w3.org/2000/svg">
<path d="M70.2787 28.6832H54.0551V0.406168H70.2787V5.31887H60.0282V11.5274H69.5658V16.4401H60.0282V23.7318H70.2787V28.6832Z" fill="white"/>
<path d="M77.5397 37C76.1909 37 75.0156 36.8582 74.0136 36.5745V31.5844C75.0413 31.8423 75.979 31.9713 76.8268 31.9713C78.137 31.9713 79.0747 31.5586 79.6399 30.7334C80.2051 29.9211 80.4877 28.6445 80.4877 26.9038V0.406168H86.4607V26.8651C86.4607 30.1661 85.7093 32.6804 84.2064 34.4083C82.7035 36.1361 80.4813 37 77.5397 37Z" fill="white"/>
<path d="M113.336 20.8306C113.336 23.3837 112.418 25.3952 110.581 26.8651C108.757 28.3351 106.214 29.07 102.951 29.07C99.9452 29.07 97.2863 28.5027 94.9741 27.368V21.7977C96.8752 22.6487 98.4809 23.2483 99.7911 23.5964C101.114 23.9446 102.322 24.1187 103.413 24.1187C104.724 24.1187 105.726 23.8672 106.419 23.3643C107.126 22.8615 107.479 22.1136 107.479 21.1208C107.479 20.5663 107.325 20.0763 107.017 19.6508C106.708 19.2124 106.252 18.7933 105.649 18.3936C105.058 17.9939 103.844 17.3556 102.007 16.4788C100.286 15.6665 98.9947 14.8864 98.134 14.1385C97.2734 13.3907 96.5862 12.5203 96.0724 11.5274C95.5586 10.5346 95.3017 9.37411 95.3017 8.046C95.3017 5.54452 96.143 3.57815 97.8258 2.14689C99.5213 0.71563 101.859 0 104.839 0C106.304 0 107.697 0.174072 109.02 0.522216C110.356 0.870361 111.75 1.36034 113.202 1.99216L111.275 6.65342C109.772 6.0345 108.526 5.60254 107.537 5.35755C106.561 5.11256 105.597 4.99007 104.647 4.99007C103.516 4.99007 102.649 5.2544 102.045 5.78306C101.442 6.31173 101.14 7.00157 101.14 7.85259C101.14 8.38125 101.262 8.84544 101.506 9.24516C101.75 9.63199 102.135 10.0124 102.662 10.3863C103.202 10.7473 104.467 11.4049 106.458 12.3591C109.091 13.6228 110.896 14.8928 111.872 16.1694C112.848 17.433 113.336 18.9868 113.336 20.8306Z" fill="white"/>
<path d="M14.1008 21.5985L0 15.2559V13.1851L14.1008 6.00263V9.47802L4.57685 14.0684L14.1008 18.1376V21.5985Z" fill="white"/>
<path d="M21.3479 10.2889C21.3479 11.0806 21.4713 11.6743 21.7182 12.0701C21.965 12.4562 22.36 12.6493 22.9031 12.6493C23.4363 12.6493 23.8313 12.4562 24.0881 12.0701C24.3448 11.6839 24.4732 11.0902 24.4732 10.2889C24.4732 8.72502 23.9498 7.94306 22.9031 7.94306C22.36 7.94306 21.965 8.13613 21.7182 8.52229C21.4713 8.90844 21.3479 9.49733 21.3479 10.2889ZM28.0576 10.26C28.0576 11.0999 27.9539 11.8577 27.7466 12.5335C27.5491 13.1996 27.238 13.7643 26.8134 14.2277C26.3888 14.6815 25.8507 15.0338 25.199 15.2848C24.5472 15.5262 23.7721 15.6469 22.8735 15.6469C22.0342 15.6469 21.2936 15.5262 20.6517 15.2848C20.0198 15.0338 19.4865 14.6815 19.0521 14.2277C18.6274 13.7643 18.3065 13.1996 18.0893 12.5335C17.872 11.8577 17.7634 11.0999 17.7634 10.26C17.7634 9.4201 17.8622 8.6671 18.0597 8.00098C18.2572 7.33486 18.5633 6.77494 18.978 6.3212C19.4026 5.86747 19.9358 5.51993 20.5777 5.27859C21.2195 5.03724 21.9848 4.91656 22.8735 4.91656C23.7227 4.91656 24.4682 5.03724 25.1101 5.27859C25.7618 5.51993 26.3049 5.86747 26.7394 6.3212C27.1739 6.77494 27.4997 7.33486 27.717 8.00098C27.9441 8.6671 28.0576 9.4201 28.0576 10.26ZM37.789 5.22066L25.9247 23.6692H22.5328L34.3971 5.22066H37.789ZM35.9079 18.5865C35.9079 19.3781 36.0313 19.9718 36.2782 20.3676C36.5251 20.7538 36.92 20.9468 37.4631 20.9468C37.9964 20.9468 38.3913 20.7538 38.6481 20.3676C38.9048 19.9814 39.0332 19.3877 39.0332 18.5865C39.0332 17.0225 38.5098 16.2406 37.4631 16.2406C36.92 16.2406 36.5251 16.4336 36.2782 16.8198C36.0313 17.206 35.9079 17.7948 35.9079 18.5865ZM42.6176 18.5575C42.6176 19.3974 42.514 20.1504 42.3066 20.8165C42.1091 21.4826 41.7981 22.0474 41.3735 22.5108C40.9488 22.9645 40.4107 23.3169 39.759 23.5679C39.1072 23.8092 38.3321 23.9299 37.4335 23.9299C36.5942 23.9299 35.8585 23.8092 35.2266 23.5679C34.5946 23.3169 34.0614 22.9645 33.6269 22.5108C33.2023 22.0474 32.8813 21.4826 32.6641 20.8165C32.4469 20.1504 32.3382 19.3974 32.3382 18.5575C32.3382 17.7176 32.437 16.9646 32.6345 16.2985C32.832 15.6324 33.1381 15.0724 33.5528 14.6187C33.9675 14.165 34.4958 13.8174 35.1377 13.5761C35.7795 13.3347 36.5448 13.2141 37.4335 13.2141C38.2827 13.2141 39.0282 13.3347 39.6701 13.5761C40.3218 13.8174 40.8649 14.165 41.2994 14.6187C41.7339 15.0724 42.0597 15.6324 42.277 16.2985C42.5041 16.9646 42.6176 17.7176 42.6176 18.5575Z" fill="white"/>
<path d="M123.417 10.2889C123.417 11.0806 123.536 11.6743 123.774 12.0701C124.012 12.4562 124.393 12.6493 124.917 12.6493C125.431 12.6493 125.812 12.4562 126.06 12.0701C126.307 11.6839 126.431 11.0902 126.431 10.2889C126.431 8.72502 125.926 7.94306 124.917 7.94306C124.393 7.94306 124.012 8.13613 123.774 8.52229C123.536 8.90844 123.417 9.49733 123.417 10.2889ZM129.887 10.26C129.887 11.0999 129.787 11.8577 129.587 12.5335C129.397 13.1996 129.097 13.7643 128.688 14.2277C128.278 14.6815 127.759 15.0338 127.131 15.2848C126.502 15.5262 125.755 15.6469 124.888 15.6469C124.079 15.6469 123.365 15.5262 122.746 15.2848C122.137 15.0338 121.622 14.6815 121.203 14.2277C120.794 13.7643 120.484 13.1996 120.275 12.5335C120.066 11.8577 119.961 11.0999 119.961 10.26C119.961 9.4201 120.056 8.6671 120.246 8.00098C120.437 7.33486 120.732 6.77494 121.132 6.3212C121.541 5.86747 122.056 5.51993 122.675 5.27859C123.293 5.03724 124.031 4.91656 124.888 4.91656C125.707 4.91656 126.426 5.03724 127.045 5.27859C127.674 5.51993 128.197 5.86747 128.616 6.3212C129.035 6.77494 129.349 7.33486 129.559 8.00098C129.778 8.6671 129.887 9.4201 129.887 10.26ZM139.271 5.22066L127.831 23.6692H124.56L136 5.22066H139.271ZM137.457 18.5865C137.457 19.3781 137.576 19.9718 137.814 20.3676C138.052 20.7538 138.433 20.9468 138.957 20.9468C139.471 20.9468 139.852 20.7538 140.1 20.3676C140.347 19.9814 140.471 19.3877 140.471 18.5865C140.471 17.0225 139.966 16.2406 138.957 16.2406C138.433 16.2406 138.052 16.4336 137.814 16.8198C137.576 17.206 137.457 17.7948 137.457 18.5865ZM143.927 18.5575C143.927 19.3974 143.827 20.1504 143.627 20.8165C143.437 21.4826 143.137 22.0474 142.728 22.5108C142.318 22.9645 141.799 23.3169 141.171 23.5679C140.542 23.8092 139.795 23.9299 138.928 23.9299C138.119 23.9299 137.41 23.8092 136.8 23.5679C136.191 23.3169 135.677 22.9645 135.258 22.5108C134.848 22.0474 134.539 21.4826 134.329 20.8165C134.12 20.1504 134.015 19.3974 134.015 18.5575C134.015 17.7176 134.11 16.9646 134.301 16.2985C134.491 15.6324 134.786 15.0724 135.186 14.6187C135.586 14.165 136.096 13.8174 136.715 13.5761C137.333 13.3347 138.071 13.2141 138.928 13.2141C139.747 13.2141 140.466 13.3347 141.085 13.5761C141.714 13.8174 142.237 14.165 142.656 14.6187C143.075 15.0724 143.389 15.6324 143.599 16.2985C143.818 16.9646 143.927 17.7176 143.927 18.5575Z" fill="white"/>
<path d="M147.403 18.1376L156.587 14.0684L147.403 9.47802V6.00263L161 13.1851V15.2559L147.403 21.5985V18.1376Z" fill="white"/>
</svg>
