<svg width="131" height="60" viewBox="0 0 131 60" fill="none" xmlns="http://www.w3.org/2000/svg">
<path d="M30.5857 4.39778e-10H20.2477V19.9213H30.5857C36.0205 19.9213 40.4806 15.4796 40.4806 10.0344V9.88685C40.4658 4.45646 36.0205 4.39778e-10 30.5857 4.39778e-10Z" fill="white" fill-opacity="0.7"/>
<path d="M20.2329 4.39779e-10L20.3068 19.9213H9.89493C4.4601 19.9213 4.40137e-10 15.4648 4.40137e-10 10.0344V9.88685C4.40137e-10 4.45646 4.44534 4.39779e-10 9.89493 4.39779e-10H20.2329Z" fill="white"/>
<path d="M20.2331 39.7837H9.96891C4.53408 39.7837 0.0739746 35.342 0.0739746 29.8969V29.7493C0.0739746 24.3189 4.51931 19.8625 9.96891 19.8625H20.3069L20.2331 39.7837Z" fill="white" fill-opacity="0.5"/>
<path d="M30.2755 39.7686C35.7811 39.7686 40.2443 35.3091 40.2443 29.808C40.2443 24.3068 35.7811 19.8473 30.2755 19.8473C24.7699 19.8473 20.3068 24.3068 20.3068 29.808C20.3068 35.3091 24.7699 39.7686 30.2755 39.7686Z" fill="white" fill-opacity="0.7"/>
<path d="M9.83587 39.7835C4.41581 39.9901 0.088623 44.4318 0.088623 49.8917C0.088623 55.4697 4.62257 59.9999 10.2051 59.9999C15.6695 59.9999 20.1148 55.6763 20.3068 50.2607H20.3216V39.7835H9.83587Z" fill="white" fill-opacity="0.4"/>
<path d="M52.8 42H55.404V32.788H63.244V30.604H55.404V23.66H64.644V21.476H52.8V42ZM68.0252 42H70.5732V26.796H68.0252V42ZM69.3132 23.66C70.3212 23.66 71.0772 22.96 71.0772 22.008C71.0772 20.972 70.3212 20.356 69.3132 20.356C68.3052 20.356 67.5492 20.972 67.5492 22.008C67.5492 22.96 68.3052 23.66 69.3132 23.66ZM80.8602 49C85.5642 49 88.5322 46.564 88.5322 43.736C88.5322 41.244 86.7682 40.124 83.2402 40.124H80.2722C78.2282 40.124 77.6122 39.452 77.6122 38.472C77.6122 37.632 78.0322 37.128 78.5922 36.652C79.2642 36.988 80.1042 37.184 80.8602 37.184C83.9402 37.184 86.4042 35.14 86.4042 31.892C86.4042 30.576 85.9002 29.456 85.1722 28.756H88.2802V26.796H82.9882C82.4562 26.6 81.7002 26.404 80.8602 26.404C77.7802 26.404 75.1482 28.504 75.1482 31.836C75.1482 33.656 76.1282 35.112 77.1362 35.924V36.036C76.3522 36.596 75.4282 37.604 75.4282 38.864C75.4282 40.068 76.0162 40.88 76.8282 41.356V41.468C75.4002 42.392 74.5602 43.624 74.5602 44.912C74.5602 47.544 77.1362 49 80.8602 49ZM80.8602 35.448C79.0962 35.448 77.6122 34.048 77.6122 31.836C77.6122 29.596 79.0682 28.28 80.8602 28.28C82.6522 28.28 84.0802 29.624 84.0802 31.836C84.0802 34.048 82.5962 35.448 80.8602 35.448ZM81.2242 47.264C78.4522 47.264 76.8002 46.2 76.8002 44.576C76.8002 43.68 77.2762 42.784 78.3682 42C79.0402 42.168 79.7682 42.252 80.3282 42.252H82.9602C84.9762 42.252 86.0682 42.728 86.0682 44.128C86.0682 45.724 84.1362 47.264 81.2242 47.264ZM91.5135 42H94.0615V30.968C95.4615 29.4 96.7495 28.644 97.8975 28.644C99.8295 28.644 100.726 29.848 100.726 32.704V42H103.274V30.968C104.702 29.4 105.934 28.644 107.11 28.644C109.042 28.644 109.938 29.848 109.938 32.704V42H112.486V32.368C112.486 28.476 111.002 26.404 107.866 26.404C106.018 26.404 104.422 27.608 102.854 29.316C102.238 27.524 100.978 26.404 98.6535 26.404C96.8335 26.404 95.2375 27.552 93.9215 29.008H93.8375L93.6135 26.796H91.5135V42ZM120.935 42.364C122.811 42.364 124.519 41.384 125.975 40.18H126.059L126.283 42H128.383V32.648C128.383 28.896 126.815 26.404 123.119 26.404C120.683 26.404 118.527 27.496 117.127 28.392L118.135 30.156C119.339 29.344 120.935 28.532 122.699 28.532C125.191 28.532 125.835 30.408 125.835 32.368C119.367 33.096 116.483 34.748 116.483 38.052C116.483 40.796 118.387 42.364 120.935 42.364ZM121.663 40.32C120.151 40.32 118.975 39.62 118.975 37.884C118.975 35.924 120.711 34.664 125.835 34.048V38.304C124.351 39.62 123.147 40.32 121.663 40.32Z" fill="white"/>
</svg>
