<svg width="97" height="54" viewBox="0 0 97 54" fill="none" xmlns="http://www.w3.org/2000/svg">
<path fill-rule="evenodd" clip-rule="evenodd" d="M53.094 26.7186L26.7185 0.34314L19.1492 7.91241L19.1491 7.91231L17.2021 9.85936L17.2022 9.85946L0.343018 26.7186L26.7185 53.094L53.094 26.7186ZM17.2022 9.85946L22.8103 15.4676C22.5293 16.0256 22.3711 16.6557 22.3711 17.323C22.3711 19.1214 23.5205 20.6512 25.1246 21.2182V33.6202C23.5204 34.1871 22.371 35.7171 22.371 37.5154C22.371 39.7965 24.2202 41.6457 26.5012 41.6457C28.7823 41.6457 30.6315 39.7965 30.6315 37.5154C30.6315 35.8107 29.5987 34.3471 28.1246 33.7164V21.122C28.2033 21.0884 28.2807 21.0524 28.3568 21.014L32.9064 25.5637C32.6255 26.1215 32.4672 26.7518 32.4672 27.419C32.4672 29.7001 34.3164 31.5493 36.5975 31.5493C38.8786 31.5493 40.7278 29.7001 40.7278 27.419C40.7278 25.1379 38.8786 23.2887 36.5975 23.2887C35.9896 23.2887 35.4124 23.4201 34.8927 23.6559L30.2645 19.0278C30.5003 18.5081 30.6316 17.9309 30.6316 17.323C30.6316 15.0418 28.7824 13.1927 26.5014 13.1927C25.8935 13.1927 25.3164 13.324 24.7967 13.5598L19.1492 7.91241L17.2022 9.85946Z" fill="white"/>
<path d="M70.1208 28.1637H77.0251V37.9664C75.9679 38.3037 74.8923 38.5589 73.7986 38.732C72.7048 38.9052 71.4379 38.9918 69.9978 38.9918C66.9535 38.9918 64.5974 38.0895 62.9294 36.2848C61.2615 34.4801 60.4275 31.9599 60.4275 28.7242C60.4275 26.637 60.8422 24.8141 61.6716 23.2555C62.5011 21.6969 63.6951 20.5074 65.2537 19.6871C66.8214 18.8577 68.6671 18.443 70.7908 18.443C72.9236 18.443 74.9106 18.8349 76.7517 19.6188L75.7947 21.8063C74.0356 21.0406 72.3175 20.6578 70.6404 20.6578C68.2615 20.6578 66.4021 21.3779 65.0623 22.818C63.7224 24.2581 63.0525 26.2268 63.0525 28.7242C63.0525 31.3675 63.6951 33.3772 64.9802 34.7535C66.2654 36.1298 68.1339 36.818 70.5857 36.818C71.9255 36.818 73.2335 36.6585 74.5095 36.3395V30.4059H70.1208V28.1637ZM83.9568 38.7184H81.4958V23.7066H83.9568V38.7184ZM81.3044 19.6461C81.3044 19.0992 81.4412 18.7027 81.7146 18.4566C81.9972 18.2106 82.3435 18.0875 82.7537 18.0875C83.1365 18.0875 83.4692 18.2106 83.7517 18.4566C84.0434 18.7027 84.1892 19.0992 84.1892 19.6461C84.1892 20.1839 84.0434 20.5803 83.7517 20.8356C83.4692 21.0908 83.1365 21.2184 82.7537 21.2184C82.3435 21.2184 81.9972 21.0908 81.7146 20.8356C81.4412 20.5803 81.3044 20.1839 81.3044 19.6461ZM93.7322 36.982C94.0512 36.982 94.4249 36.9501 94.8533 36.8863C95.2817 36.8225 95.6052 36.7496 95.824 36.6676V38.5543C95.5961 38.6546 95.2406 38.7503 94.7576 38.8414C94.2836 38.9417 93.8005 38.9918 93.3083 38.9918C90.3735 38.9918 88.906 37.4469 88.906 34.357V25.6207H86.7869V24.4449L88.9333 23.4606L89.9177 20.2613H91.3806V23.7066H95.7146V25.6207H91.3806V34.2887C91.3806 35.1546 91.5857 35.8199 91.9958 36.2848C92.4151 36.7496 92.9939 36.982 93.7322 36.982Z" fill="white"/>
</svg>
