<svg width="156" height="54" viewBox="0 0 156 54" fill="none" xmlns="http://www.w3.org/2000/svg">
<path d="M23.4693 27.7736C23.4098 27.8655 23.2944 28.1552 23.1371 28.6391C22.9763 29.1266 22.7805 29.7343 22.5498 30.4761C22.319 31.2074 22.0673 32.0305 21.8016 32.9384L20.973 35.7221C20.6584 36.6688 20.4137 37.5944 20.134 38.5058L19.4348 40.9716L18.9104 42.8156L18.6656 43.6988C18.5607 43.992 18.4559 44.317 18.2811 44.6773C18.1063 45.0306 17.8965 45.3733 17.6867 45.6947C17.442 46.0127 17.1973 46.2847 16.9176 46.4966C16.6379 46.7086 16.3582 46.8146 16.0436 46.8146C15.5541 46.8146 15.2045 46.645 14.9598 46.32C14.715 45.9844 14.6102 45.3803 14.6102 44.4972V43.6988C14.6102 43.4056 14.75 42.851 14.9598 42.0455C15.1695 41.233 15.4143 40.3216 15.7289 39.3042C16.0086 38.2797 16.3582 37.227 16.6729 36.1354L17.6168 33.168C16.7777 34.0865 15.9037 35.005 14.9598 35.8881C14.0158 36.8066 13.0369 37.6191 12.058 38.3256C11.0441 39.0322 10.0303 39.6327 9.01642 40.092C8.00255 40.5512 7.02365 40.7632 6.0797 40.7632C4.99591 40.7632 4.08693 40.5159 3.31779 40.0213C2.54865 39.5267 1.88439 38.9262 1.39494 38.149C0.905487 37.3718 0.520917 36.4887 0.276191 35.5349C0.139844 34.6199 2.08383e-09 33.6308 2.08383e-09 32.6769V32.3237C2.08383e-09 32.2177 0.0139844 32.1011 0.0349609 31.9916C0.118867 30.2253 0.367089 28.4236 0.76914 26.5725C1.18867 24.7073 1.71308 22.8633 2.37734 21.0263C3.0416 19.1893 3.81074 17.3877 4.68476 15.6355C5.59374 13.9539 6.53769 12.2936 7.55155 10.7392C8.56542 9.18487 9.6562 7.73649 10.8029 6.42941C11.9566 5.11527 13.1348 3.98482 14.348 3.03807C15.5576 2.08426 16.7812 1.3424 18.0188 0.812508C19.2425 0.282611 20.4661 0 21.6758 0C23.0742 0 24.4237 0.388591 25.7312 1.15517C27.0248 1.94295 28.2484 3.17938 29.3951 4.91037C29.6538 5.29896 29.8147 5.68755 29.8846 6.08321C29.9545 6.4718 29.9895 6.8498 29.9895 7.19599C29.9895 8.02263 29.7972 8.6797 29.4056 9.15308C29.021 9.64765 28.5666 9.85961 28.0072 9.85961C27.5177 9.85961 27.0632 9.61232 26.6437 9.08243C26.2242 8.55253 25.7347 7.81067 25.2453 6.85686C24.7558 5.9737 24.2314 5.33782 23.6371 4.94923C23.0427 4.56064 22.4134 4.38401 21.7142 4.38401C20.6304 4.38401 19.5117 4.84325 18.288 5.76174C17.0644 6.68023 15.8757 7.846 14.6871 9.32971C13.4984 10.8134 12.3447 12.5091 11.2609 14.4167C10.1771 16.3243 9.19821 18.2673 8.35915 20.2809C7.52009 22.2945 6.85583 24.2375 6.36638 26.1804C5.87693 28.1234 5.6322 29.8544 5.6322 31.4087C5.6322 31.9386 5.66716 32.4685 5.73708 32.9984C5.80701 33.5636 5.94685 34.0229 6.12165 34.4821C6.29646 34.9414 6.57615 35.2946 6.92575 35.5772C7.27536 35.8599 7.69489 36.0012 8.18435 36.0012C8.74372 36.0012 9.40798 35.8245 10.1072 35.4359C10.8414 35.0474 11.5756 34.5528 12.3447 33.9169C13.1138 33.281 13.9179 32.5745 14.6871 31.7973C15.4562 31.0201 16.2254 30.2076 16.8896 29.3951C17.5539 28.5826 18.1832 27.8054 18.6726 27.0636C19.197 26.3217 19.5816 25.6858 19.8613 25.1206L21.8855 18.5464C22.1442 17.8504 22.4799 17.3523 22.9099 17.0627C23.3294 16.7659 23.7594 16.6176 24.2034 16.6176C24.4132 16.6176 24.6335 16.6529 24.8502 16.7235C25.06 16.7942 25.2627 16.9072 25.4341 17.0627C25.6089 17.204 25.7382 17.4159 25.8396 17.6632C25.9445 17.9105 26.0144 18.1931 26.0144 18.5464C26.0144 19.4295 25.9445 20.2632 25.8046 21.0334C25.6648 21.8105 25.455 22.5524 25.2103 23.2942C25.0005 24.0184 24.7209 24.7568 24.4412 25.5022C24.1615 26.244 23.8818 27.0212 23.6021 27.8337L23.4693 27.7736ZM52.4973 33.1715C51.8225 34.09 51.0359 34.9873 50.1409 35.8563C49.2424 36.7324 48.316 37.5096 47.365 38.1879C46.4141 38.8661 45.4771 39.4137 44.5577 39.827C43.6347 40.2403 42.8096 40.4452 42.0754 40.4452C41.3413 40.4452 40.7364 40.1979 40.275 39.7034C39.8135 39.2088 39.5827 38.361 39.5827 37.1599C39.5827 36.312 39.7086 35.3229 39.9533 34.1925C39.5548 34.899 39.0548 35.6408 38.457 36.3474C37.8627 37.0892 37.1739 37.7604 36.4083 38.361C35.6391 38.9615 34.7791 39.4561 33.8282 39.8094C32.8772 40.1626 31.8424 40.3746 30.7166 40.3746C30.2167 40.3746 29.7273 40.3039 29.2588 40.1626C28.7693 40.0213 28.3498 39.8094 28.0002 39.4914C27.6506 39.1735 27.3709 38.7496 27.1262 38.2197C26.9164 37.6898 26.8115 37.0186 26.8115 36.2414L26.8814 35.3936C26.9514 34.8637 27.1262 33.9805 27.4758 32.8147C27.8254 31.6489 28.3148 30.1299 29.0141 28.2576C29.7133 26.3853 30.6572 24.1597 31.9158 21.5103C32.2305 20.8037 32.5801 20.3092 33.0346 19.9912C33.4541 19.6733 33.9086 19.532 34.398 19.532C34.6078 19.532 34.8176 19.5673 35.0623 19.638C35.2721 19.6733 35.4818 19.7793 35.6916 19.9206C35.9013 20.0619 36.0412 20.2385 36.181 20.4505C36.2859 20.6271 36.3558 20.8744 36.3558 21.157C36.3558 21.3336 36.3209 21.5103 36.2859 21.6516C36.181 21.9695 36.0412 22.3581 35.7965 22.8527L34.8875 24.5978C34.5379 25.2337 34.1883 25.9402 33.8037 26.6891C33.4191 27.4416 33.0695 28.2435 32.7549 29.0277C32.4402 29.8402 32.1605 30.6704 31.9158 31.5006C31.6711 32.3484 31.5312 33.1609 31.4963 33.9381C31.4963 34.2914 31.5662 34.574 31.706 34.8566C31.8459 35.1392 32.1256 35.2805 32.4752 35.2805C33.4541 35.2805 34.433 34.9626 35.342 34.2914C36.251 33.6308 37.09 32.8077 37.8592 31.8256C38.6283 30.8364 39.3275 29.7766 39.9568 28.6462C40.5861 27.5158 41.0756 26.4913 41.4951 25.5587C41.7748 24.9334 42.0545 24.2622 42.2642 23.5451C42.474 22.8385 42.7187 22.1673 42.9984 21.5668C43.2431 20.9662 43.5578 20.4505 43.9074 20.0477C44.222 19.645 44.6416 19.4472 45.166 19.4472C45.6904 19.4472 46.1449 19.6592 46.4595 20.0831C46.7742 20.507 46.949 21.0016 46.949 21.6021C46.949 21.92 46.8441 22.3793 46.6343 22.9445C46.4246 23.5097 46.1799 24.1809 45.8652 24.9228L44.8513 27.3144C44.4668 28.1622 44.1521 29.0101 43.8375 29.8932C43.5228 30.7587 43.2431 31.6242 43.0334 32.4509C42.8236 33.2987 42.7187 34.0759 42.7187 34.7824C42.7187 35.4536 43.0683 35.7715 43.7326 35.7715C44.222 35.7715 44.8164 35.6302 45.5156 35.277C46.2148 34.959 46.949 34.4998 47.7181 33.8992C48.4873 33.2987 49.2564 32.5922 50.0256 31.7797C50.7947 30.9671 51.4939 30.1052 52.0882 29.1655L52.333 32.9101L52.4973 33.1715Z" fill="white"/>
<path d="M53.2106 31.7939C53.0428 32.2178 52.8784 32.7123 52.7211 33.2705C52.5568 33.8287 52.4764 34.3303 52.4764 34.7719C52.4764 35.0474 52.5218 35.2664 52.6162 35.4325C52.7071 35.5985 52.8819 35.6798 53.1407 35.6798C53.4658 35.6798 53.8678 35.5667 54.3538 35.3371C54.8363 35.1075 55.3572 34.8072 55.9165 34.4257C56.4759 34.0512 57.0633 33.6202 57.6646 33.1327C58.2729 32.6382 58.8777 32.1083 59.4756 31.6137C60.0699 31.0838 60.6433 30.5539 61.1887 30.024C61.734 29.4941 62.2235 28.9995 62.657 28.5756C62.7759 28.4343 62.9192 28.3637 63.0905 28.293C63.2583 28.2224 63.4052 28.187 63.5275 28.187C63.8422 28.187 64.0869 28.293 64.2967 28.5756C64.5064 28.8229 64.6113 29.1762 64.6113 29.6001C64.6113 29.9887 64.5064 30.4126 64.2967 30.8718C64.0869 31.3311 63.7023 31.7903 63.1779 32.2496C62.199 33.3094 61.2201 34.3338 60.2063 35.323C59.2273 36.2768 58.2135 37.1599 57.2346 37.9018C56.2557 38.6437 55.2768 39.2089 54.2979 39.6681C53.319 40.092 52.375 40.304 51.466 40.304C50.8367 40.304 50.3123 40.198 49.8928 39.9861C49.4733 39.7741 49.1586 39.4915 48.8789 39.1382C48.6342 38.785 48.4594 38.361 48.3545 37.9018C48.2496 37.4072 48.2147 36.9127 48.2147 36.3828C48.2147 35.4643 48.3195 34.5458 48.5643 33.592C48.809 32.6382 49.0537 31.755 49.3684 30.9778C49.9277 29.5294 50.4522 28.1164 51.0115 26.7033L52.5498 22.8174L59.5035 5.1224C59.7657 4.41587 60.1328 3.91423 60.6048 3.60336C61.0803 3.32075 61.5488 3.17944 62.0277 3.17944C62.5172 3.17944 62.9367 3.32075 63.3353 3.63869C63.7198 3.94249 63.9296 4.45119 63.9296 5.14713C63.9296 5.47566 63.8597 5.82539 63.7373 6.19279C63.5975 6.54605 63.4576 6.94877 63.2478 7.36916C62.8633 8.22406 62.4088 9.27679 61.8844 10.5273L60.1363 14.6252C59.542 16.0913 58.9127 17.628 58.2834 19.2176L56.3955 23.8807C55.7662 25.3927 55.2068 26.8128 54.6824 28.1694L53.319 31.6773L53.2106 31.7939Z" fill="white"/>
<path d="M85.8289 26.8129C86.0492 26.661 86.2485 26.5409 86.4338 26.449C86.6155 26.3572 86.7938 26.3077 86.9582 26.3077C87.2973 26.3077 87.5525 26.4632 87.7203 26.767C87.8951 27.0708 88 27.4382 88 27.8833C88 28.3602 87.8951 28.8477 87.6853 29.3423C87.4756 29.8368 87.1959 30.2537 86.7764 30.5787C85.1332 32.0518 83.6648 33.3942 82.4063 34.6059C81.1127 35.8176 79.924 36.8597 78.7703 37.7323C77.6166 38.6155 76.4979 39.2867 75.4141 39.7812C74.3303 40.2758 73.1766 40.5231 71.918 40.5231C70.7643 40.5231 69.8553 40.2758 69.226 39.7459C68.5967 39.2513 68.282 38.5448 68.282 37.6263V37.4144C68.282 37.379 68.317 37.273 68.317 37.2024C68.3869 36.6725 68.6317 36.0366 69.0512 35.2948C69.4707 34.5882 69.9602 33.8464 70.5545 33.0692C71.1488 32.292 71.7781 31.5148 72.4424 30.7377C73.1066 29.9605 73.701 29.2186 74.2953 28.5121C74.8547 27.8056 75.3092 27.1697 75.6938 26.5691C76.0783 26.0039 76.2531 25.5093 76.2531 25.1561C76.2531 24.9441 76.1832 24.7675 76.0364 24.6262C75.8721 24.5202 75.6168 24.4496 75.2672 24.4496C74.6379 24.4496 74.0086 24.6262 73.3584 24.9441C72.6941 25.2621 72.0438 25.7213 71.4006 26.2512C70.7713 26.8164 70.142 27.417 69.5406 28.1235C68.9393 28.83 68.3869 29.5719 67.8276 30.3137C67.3031 31.0909 66.8137 31.8328 66.3592 32.61C65.9397 33.3871 65.5551 34.0937 65.2404 34.7295L64.8559 35.5774L64.3315 36.8491L63.7022 38.2622L63.1078 39.6399L62.6184 40.8057C62.4785 41.159 62.3737 41.3709 62.3037 41.5122C62.2338 41.6889 62.1289 42.0068 61.9541 42.466L61.3248 44.084L60.5906 46.0269L59.8914 47.9346L59.2971 49.5525C59.1223 50.0118 59.0174 50.3226 58.9824 50.4887C58.8076 50.9479 58.6328 51.4072 58.4231 51.8311C58.2133 52.255 57.9861 52.6189 57.7169 52.9403C57.4512 53.2583 57.1435 53.5232 56.7974 53.7175C56.4478 53.8941 56.0632 54.0001 55.6437 54.0001C55.0843 54.0001 54.6298 53.8588 54.2802 53.6045C53.9306 53.3572 53.7208 52.8273 53.7208 52.0854C53.7208 51.7322 53.7558 51.3436 53.8607 50.955C53.9306 50.5664 54.0704 50.2061 54.2103 49.8245C54.3152 49.4359 54.49 49.0827 54.6298 48.7294C54.7697 48.3761 54.9095 48.0229 55.0144 47.6837C55.8185 45.8468 56.675 44.0098 57.5316 42.1516C58.3881 40.2935 59.2097 38.4777 60.0138 36.676C60.8039 34.8744 61.5346 33.1081 62.2163 31.3417C62.8806 29.6107 63.44 27.9292 63.8945 26.3254L64.3839 24.9265C64.5937 24.3259 64.8384 23.7254 65.1181 23.1601C65.3978 22.5949 65.7124 22.065 66.062 21.6411C66.4116 21.2172 66.7962 20.9946 67.1808 20.9946C67.8101 20.9946 68.2541 21.1359 68.5303 21.4185C68.81 21.7294 68.9498 22.1251 68.9498 22.6903C68.9498 22.7963 68.9358 22.9729 68.9043 23.2202C68.8694 23.4675 68.8344 23.7148 68.7785 23.9797L68.6282 24.7216C68.5932 24.9689 68.5233 25.1455 68.4883 25.2515C69.0477 24.6297 69.677 24.015 70.3342 23.3968C70.9985 22.7857 71.6977 22.2311 72.3969 21.7365C73.0962 21.2419 73.8303 20.818 74.5645 20.5177C75.2987 20.1998 76.0329 20.0408 76.7671 20.0408C77.2915 20.0408 77.7809 20.1115 78.2914 20.2528C78.7808 20.4011 79.2353 20.6166 79.6199 20.9028C80.0289 21.1854 80.3471 21.5387 80.5918 21.9626C80.8365 22.3865 80.9589 22.8917 80.9589 23.4604C80.9589 24.2129 80.7631 25.0148 80.3995 25.8626C80.0149 26.7246 79.5604 27.5936 78.9801 28.4414C78.4207 29.3105 77.8019 30.1512 77.1411 30.9673C76.4769 31.7798 75.8825 32.5216 75.2882 33.1928L73.8199 34.9238C73.4353 35.3831 73.2255 35.701 73.2185 35.8777C73.2185 36.0896 73.2884 36.2662 73.4283 36.4076C73.5681 36.5489 73.8129 36.6195 74.1275 36.6195C74.4002 36.6195 74.7848 36.4605 75.2812 36.1603C75.7986 35.8423 76.5049 35.3478 77.4138 34.62C78.3228 33.8782 79.4975 32.9244 80.8994 31.6879C82.2979 30.4656 84.0459 28.9325 86.0981 27.0708L85.8289 26.8129Z" fill="white"/>
<path d="M104.402 28.4453H111.307V38.248C110.249 38.5853 109.174 38.8405 108.08 39.0137C106.986 39.1868 105.719 39.2734 104.279 39.2734C101.235 39.2734 98.8789 38.3711 97.2109 36.5664C95.543 34.7617 94.709 32.2415 94.709 29.0059C94.709 26.9186 95.1237 25.0957 95.9531 23.5371C96.7826 21.9785 97.9766 20.7891 99.5352 19.9688C101.103 19.1393 102.949 18.7246 105.072 18.7246C107.205 18.7246 109.192 19.1165 111.033 19.9004L110.076 22.0879C108.317 21.3223 106.599 20.9395 104.922 20.9395C102.543 20.9395 100.684 21.6595 99.3438 23.0996C98.0039 24.5397 97.334 26.5085 97.334 29.0059C97.334 31.6491 97.9766 33.6589 99.2617 35.0352C100.547 36.4115 102.415 37.0996 104.867 37.0996C106.207 37.0996 107.515 36.9401 108.791 36.6211V30.6875H104.402V28.4453ZM118.102 23.9883V33.6543C118.102 34.8665 118.37 35.7689 118.908 36.3613C119.455 36.9447 120.298 37.2363 121.438 37.2363C122.978 37.2363 124.099 36.8079 124.801 35.9512C125.503 35.0944 125.854 33.7135 125.854 31.8086V23.9883H128.328V39H126.305L125.949 37.0176H125.826C125.38 37.7376 124.746 38.2936 123.926 38.6855C123.105 39.0775 122.153 39.2734 121.068 39.2734C119.264 39.2734 117.901 38.8405 116.98 37.9746C116.069 37.1087 115.613 35.7233 115.613 33.8184V23.9883H118.102ZM135.547 39H133.086V17.7266H135.547V39ZM147.414 39.2734C145.4 39.2734 143.85 38.5488 142.766 37.0996H142.602L142.656 37.6602C142.729 38.3711 142.766 39.0046 142.766 39.5605V45.7266H140.305V23.9883H142.328L142.656 26.0391H142.766C143.349 25.2188 144.023 24.6263 144.789 24.2617C145.555 23.8971 146.439 23.7148 147.441 23.7148C149.392 23.7148 150.905 24.3939 151.98 25.752C153.065 27.1009 153.607 29.0059 153.607 31.4668C153.607 33.9186 153.065 35.8327 151.98 37.209C150.896 38.5853 149.374 39.2734 147.414 39.2734ZM147.004 25.7793C145.518 25.7793 144.443 26.1986 143.777 27.0371C143.121 27.8757 142.784 29.1927 142.766 30.9883V31.4668C142.766 33.4993 143.103 34.9714 143.777 35.8828C144.452 36.7852 145.546 37.2363 147.059 37.2363C148.316 37.2363 149.296 36.7259 149.998 35.7051C150.709 34.6842 151.064 33.2624 151.064 31.4395C151.064 29.6074 150.709 28.2083 149.998 27.2422C149.296 26.2669 148.298 25.7793 147.004 25.7793Z" fill="white"/>
</svg>
