<svg width="188" height="50" viewBox="0 0 188 50" fill="none" xmlns="http://www.w3.org/2000/svg">
<rect x="2" y="2" width="46.254" height="46" stroke="white" stroke-width="4"/>
<path d="M26.1001 36.3266L24.5828 31.3706H16.9535L15.4362 36.3266H10.6554L18.0414 15.42H23.4663L30.8809 36.3266H26.1001ZM23.5236 27.6678C22.1208 23.1769 21.3288 20.6372 21.1475 20.0485C20.9757 19.4599 20.8517 18.9947 20.7753 18.6529C20.4604 19.8682 19.5586 22.8731 18.07 27.6678H23.5236Z" fill="white"/>
<path d="M33.2925 16.2888C33.2925 14.8741 34.0846 14.1668 35.6686 14.1668C37.2527 14.1668 38.0447 14.8741 38.0447 16.2888C38.0447 16.9629 37.8443 17.4898 37.4435 17.8696C37.0523 18.2399 36.4607 18.425 35.6686 18.425C34.0846 18.425 33.2925 17.7129 33.2925 16.2888ZM37.8443 36.3266H33.4786V20.4046H37.8443V36.3266Z" fill="white"/>
<path d="M62.8 38H65.404V17.476H62.8V38ZM73.4671 38.364C74.1391 38.364 74.5871 38.28 74.9511 38.14L74.5871 36.18C74.3071 36.236 74.1951 36.236 74.0551 36.236C73.6631 36.236 73.3271 35.928 73.3271 35.144V15.712H70.7791V34.976C70.7791 37.132 71.5631 38.364 73.4671 38.364ZM81.4515 38.364C82.1235 38.364 82.5715 38.28 82.9355 38.14L82.5715 36.18C82.2915 36.236 82.1795 36.236 82.0395 36.236C81.6475 36.236 81.3115 35.928 81.3115 35.144V15.712H78.7635V34.976C78.7635 37.132 79.5475 38.364 81.4515 38.364ZM91.1719 38.364C93.2719 38.364 94.7839 37.272 96.2119 35.62H96.2959L96.4919 38H98.6199V22.796H96.0719V33.576C94.6159 35.396 93.5239 36.152 91.9559 36.152C89.9399 36.152 89.0999 34.948 89.0999 32.12V22.796H86.5519V32.428C86.5519 36.292 87.9799 38.364 91.1719 38.364ZM107.732 38.364C111.316 38.364 113.276 36.32 113.276 33.856C113.276 30.972 110.84 30.076 108.628 29.236C106.92 28.592 105.268 28.06 105.268 26.604C105.268 25.428 106.136 24.42 108.04 24.42C109.412 24.42 110.476 24.98 111.54 25.764L112.772 24.112C111.568 23.188 109.916 22.404 108.04 22.404C104.736 22.404 102.804 24.308 102.804 26.716C102.804 29.292 105.212 30.328 107.34 31.112C109.02 31.756 110.812 32.456 110.812 33.996C110.812 35.312 109.832 36.376 107.816 36.376C105.996 36.376 104.624 35.648 103.308 34.584L102.048 36.264C103.504 37.468 105.576 38.364 107.732 38.364ZM121.012 38.364C121.936 38.364 122.944 38.084 123.812 37.804L123.308 35.9C122.804 36.096 122.104 36.292 121.572 36.292C119.808 36.292 119.22 35.228 119.22 33.352V24.868H123.336V22.796H119.22V18.54H117.092L116.784 22.796L114.404 22.936V24.868H116.672V33.296C116.672 36.348 117.764 38.364 121.012 38.364ZM126.779 38H129.327V28.228C130.335 25.624 131.903 24.728 133.163 24.728C133.779 24.728 134.143 24.784 134.647 24.98L135.123 22.74C134.647 22.488 134.171 22.404 133.499 22.404C131.791 22.404 130.251 23.636 129.187 25.568H129.103L128.879 22.796H126.779V38ZM140.369 38.364C142.245 38.364 143.953 37.384 145.409 36.18H145.493L145.717 38H147.817V28.648C147.817 24.896 146.249 22.404 142.553 22.404C140.117 22.404 137.961 23.496 136.561 24.392L137.569 26.156C138.773 25.344 140.369 24.532 142.133 24.532C144.625 24.532 145.269 26.408 145.269 28.368C138.801 29.096 135.917 30.748 135.917 34.052C135.917 36.796 137.821 38.364 140.369 38.364ZM141.097 36.32C139.585 36.32 138.409 35.62 138.409 33.884C138.409 31.924 140.145 30.664 145.269 30.048V34.304C143.785 35.62 142.581 36.32 141.097 36.32ZM157.052 38.364C157.976 38.364 158.984 38.084 159.852 37.804L159.348 35.9C158.844 36.096 158.144 36.292 157.612 36.292C155.848 36.292 155.26 35.228 155.26 33.352V24.868H159.376V22.796H155.26V18.54H153.132L152.824 22.796L150.444 22.936V24.868H152.712V33.296C152.712 36.348 153.803 38.364 157.052 38.364ZM168.316 38.364C172.04 38.364 175.372 35.452 175.372 30.412C175.372 25.344 172.04 22.404 168.316 22.404C164.592 22.404 161.26 25.344 161.26 30.412C161.26 35.452 164.592 38.364 168.316 38.364ZM168.316 36.236C165.684 36.236 163.92 33.912 163.92 30.412C163.92 26.912 165.684 24.532 168.316 24.532C170.948 24.532 172.74 26.912 172.74 30.412C172.74 33.912 170.948 36.236 168.316 36.236ZM179.389 38H181.937V28.228C182.945 25.624 184.513 24.728 185.773 24.728C186.389 24.728 186.753 24.784 187.257 24.98L187.733 22.74C187.257 22.488 186.781 22.404 186.109 22.404C184.401 22.404 182.861 23.636 181.797 25.568H181.713L181.489 22.796H179.389V38Z" fill="white"/>
</svg>
