<svg width="192" height="50" viewBox="0 0 192 50" fill="none" xmlns="http://www.w3.org/2000/svg">
<path fill-rule="evenodd" clip-rule="evenodd" d="M50 0H0V50H50V0ZM13.1469 41.7836L13.1468 41.7837L13.1467 41.7833C13.1468 41.7834 13.1468 41.7835 13.1469 41.7836ZM13.1469 41.7836C14.2545 44.1328 16.4364 46.0793 20.195 46.0793C24.357 46.0793 27.2097 43.8642 27.2097 38.9975V22.9549H22.5109V38.9311C22.5109 41.2803 21.5375 41.8842 19.9936 41.8842C18.3828 41.8842 17.7113 40.7769 16.9732 39.4681L13.1469 41.7836ZM33.5878 39.065L29.762 41.2802C31.1378 43.9989 33.9572 46.0797 38.3204 46.0797C42.7842 46.0797 46.1069 43.7641 46.1069 39.5349C46.1069 35.6081 43.8581 33.8631 39.864 32.1512L38.6894 31.6478C36.6759 30.7751 35.8032 30.2044 35.8032 28.7947C35.8032 27.6538 36.6759 26.7812 38.052 26.7812C39.3944 26.7812 40.2668 27.3516 41.0724 28.7947L44.7308 26.4454C43.187 23.7268 41.039 22.6862 38.0519 22.6862C33.8563 22.6862 31.1713 25.3714 31.1713 28.8955C31.1713 32.7218 33.4201 34.5342 36.8102 35.9771L37.9846 36.4809C40.1327 37.4204 41.408 37.991 41.408 39.602C41.408 40.9446 40.1665 41.918 38.2196 41.918C35.9039 41.918 34.5949 40.7098 33.5878 39.065Z" fill="white"/>
<path d="M62.8906 40.3184C62.0339 40.3184 61.3411 40.1953 60.8125 39.9492V37.8301C61.4596 38.0124 62.1341 38.1035 62.8359 38.1035C63.7474 38.1035 64.431 37.8255 64.8867 37.2695C65.3424 36.7227 65.5703 35.9297 65.5703 34.8906V15.0117H68.0996V34.6855C68.0996 36.4902 67.6484 37.8802 66.7461 38.8555C65.8529 39.8307 64.5677 40.3184 62.8906 40.3184ZM82.3047 35L81.8262 32.8672H81.7168C80.9694 33.806 80.222 34.444 79.4746 34.7812C78.7363 35.1094 77.8021 35.2734 76.6719 35.2734C75.1953 35.2734 74.0378 34.8861 73.1992 34.1113C72.3607 33.3366 71.9414 32.2428 71.9414 30.8301C71.9414 27.7858 74.3431 26.1908 79.1465 26.0449L81.6895 25.9492V25.0605C81.6895 23.9212 81.4434 23.0827 80.9512 22.5449C80.459 21.998 79.6706 21.7246 78.5859 21.7246C77.793 21.7246 77.041 21.8431 76.3301 22.0801C75.6283 22.3171 74.9674 22.5814 74.3477 22.873L73.5957 21.0273C74.3522 20.6263 75.1771 20.3118 76.0703 20.084C76.9635 19.8561 77.8477 19.7422 78.7227 19.7422C80.5365 19.7422 81.8854 20.1432 82.7695 20.9453C83.6536 21.7474 84.0957 23.0234 84.0957 24.7734V35H82.3047ZM77.2324 33.291C78.6087 33.291 79.6888 32.9219 80.4727 32.1836C81.2656 31.4362 81.6621 30.3789 81.6621 29.0117V27.6582L79.4473 27.7539C77.7246 27.8177 76.4668 28.0911 75.6738 28.5742C74.89 29.0573 74.498 29.8184 74.498 30.8574C74.498 31.6413 74.735 32.2428 75.209 32.6621C75.6921 33.0814 76.3665 33.291 77.2324 33.291ZM92.0664 35L86.3789 19.9883H89.0176L92.2031 28.834C92.832 30.6113 93.2331 31.9375 93.4062 32.8125H93.5156C93.543 32.694 93.5749 32.5618 93.6113 32.416C93.6569 32.2611 93.707 32.097 93.7617 31.9238C93.8164 31.7415 94.1536 30.7116 94.7734 28.834L97.9727 19.9883H100.598L94.8965 35H92.0664ZM112.246 35L111.768 32.8672H111.658C110.911 33.806 110.163 34.444 109.416 34.7812C108.678 35.1094 107.743 35.2734 106.613 35.2734C105.137 35.2734 103.979 34.8861 103.141 34.1113C102.302 33.3366 101.883 32.2428 101.883 30.8301C101.883 27.7858 104.285 26.1908 109.088 26.0449L111.631 25.9492V25.0605C111.631 23.9212 111.385 23.0827 110.893 22.5449C110.4 21.998 109.612 21.7246 108.527 21.7246C107.734 21.7246 106.982 21.8431 106.271 22.0801C105.57 22.3171 104.909 22.5814 104.289 22.873L103.537 21.0273C104.294 20.6263 105.118 20.3118 106.012 20.084C106.905 19.8561 107.789 19.7422 108.664 19.7422C110.478 19.7422 111.827 20.1432 112.711 20.9453C113.595 21.7474 114.037 23.0234 114.037 24.7734V35H112.246ZM107.174 33.291C108.55 33.291 109.63 32.9219 110.414 32.1836C111.207 31.4362 111.604 30.3789 111.604 29.0117V27.6582L109.389 27.7539C107.666 27.8177 106.408 28.0911 105.615 28.5742C104.831 29.0573 104.439 29.8184 104.439 30.8574C104.439 31.6413 104.676 32.2428 105.15 32.6621C105.633 33.0814 106.308 33.291 107.174 33.291ZM130.375 29.6543C130.375 31.3952 129.746 32.7669 128.488 33.7695C127.23 34.7721 125.48 35.2734 123.238 35.2734C120.868 35.2734 119.036 34.959 117.742 34.3301V31.9238C118.59 32.2884 119.515 32.5755 120.518 32.7852C121.529 32.9948 122.473 33.0996 123.348 33.0996C124.842 33.0996 125.968 32.8125 126.725 32.2383C127.481 31.6641 127.859 30.8757 127.859 29.873C127.859 29.2077 127.723 28.6608 127.449 28.2324C127.176 27.804 126.715 27.403 126.068 27.0293C125.43 26.6556 124.46 26.2318 123.156 25.7578C121.306 25.0833 119.984 24.2904 119.191 23.3789C118.398 22.4583 118.002 21.2734 118.002 19.8242C118.002 18.2656 118.585 17.026 119.752 16.1055C120.928 15.1849 122.473 14.7246 124.387 14.7246C126.383 14.7246 128.219 15.0983 129.896 15.8457L129.117 18.0059C127.404 17.2949 125.809 16.9395 124.332 16.9395C123.147 16.9395 122.217 17.1947 121.543 17.7051C120.878 18.2155 120.545 18.931 120.545 19.8516C120.545 20.5078 120.673 21.0547 120.928 21.4922C121.192 21.9206 121.611 22.3125 122.186 22.668C122.769 23.0234 123.68 23.429 124.92 23.8848C126.406 24.4316 127.513 24.9648 128.242 25.4844C128.971 25.9948 129.509 26.5872 129.855 27.2617C130.202 27.9271 130.375 28.7246 130.375 29.6543ZM140.082 35.2734C137.922 35.2734 136.24 34.6126 135.037 33.291C133.834 31.9603 133.232 30.0553 133.232 27.5762C133.232 25.0605 133.839 23.1237 135.051 21.7656C136.272 20.3984 138.008 19.7148 140.26 19.7148C140.989 19.7148 141.709 19.7923 142.42 19.9473C143.14 20.0931 143.732 20.2845 144.197 20.5215L143.445 22.5723C142.178 22.0983 141.098 21.8613 140.205 21.8613C138.692 21.8613 137.576 22.3398 136.855 23.2969C136.135 24.2448 135.775 25.6621 135.775 27.5488C135.775 29.3626 136.135 30.7526 136.855 31.7188C137.576 32.6758 138.642 33.1543 140.055 33.1543C141.376 33.1543 142.675 32.8626 143.951 32.2793V34.4668C142.912 35.0046 141.622 35.2734 140.082 35.2734ZM154.52 19.7148C155.185 19.7148 155.773 19.7695 156.283 19.8789L155.982 22.1484C155.426 22.0208 154.884 21.957 154.355 21.957C153.562 21.957 152.824 22.1758 152.141 22.6133C151.466 23.0508 150.938 23.6569 150.555 24.4316C150.172 25.1973 149.98 26.0495 149.98 26.9883V35H147.52V19.9883H149.543L149.816 22.7363H149.926C150.5 21.7428 151.179 20.9909 151.963 20.4805C152.747 19.9701 153.599 19.7148 154.52 19.7148ZM161.547 35H159.086V19.9883H161.547V35ZM158.895 15.9277C158.895 15.3809 159.031 14.9844 159.305 14.7383C159.587 14.4922 159.934 14.3691 160.344 14.3691C160.727 14.3691 161.059 14.4922 161.342 14.7383C161.633 14.9844 161.779 15.3809 161.779 15.9277C161.779 16.4655 161.633 16.862 161.342 17.1172C161.059 17.3724 160.727 17.5 160.344 17.5C159.934 17.5 159.587 17.3724 159.305 17.1172C159.031 16.862 158.895 16.4655 158.895 15.9277ZM173.414 35.2734C171.4 35.2734 169.85 34.5488 168.766 33.0996H168.602L168.656 33.6602C168.729 34.3711 168.766 35.0046 168.766 35.5605V41.7266H166.305V19.9883H168.328L168.656 22.0391H168.766C169.349 21.2188 170.023 20.6263 170.789 20.2617C171.555 19.8971 172.439 19.7148 173.441 19.7148C175.392 19.7148 176.905 20.3939 177.98 21.752C179.065 23.1009 179.607 25.0059 179.607 27.4668C179.607 29.9186 179.065 31.8327 177.98 33.209C176.896 34.5853 175.374 35.2734 173.414 35.2734ZM173.004 21.7793C171.518 21.7793 170.443 22.1986 169.777 23.0371C169.121 23.8757 168.784 25.1927 168.766 26.9883V27.4668C168.766 29.4993 169.103 30.9714 169.777 31.8828C170.452 32.7852 171.546 33.2363 173.059 33.2363C174.316 33.2363 175.296 32.7259 175.998 31.7051C176.709 30.6842 177.064 29.2624 177.064 27.4395C177.064 25.6074 176.709 24.2083 175.998 23.2422C175.296 22.2669 174.298 21.7793 173.004 21.7793ZM188.549 33.2637C188.868 33.2637 189.242 33.2318 189.67 33.168C190.098 33.1042 190.422 33.0312 190.641 32.9492V34.8359C190.413 34.9362 190.057 35.0319 189.574 35.123C189.1 35.2233 188.617 35.2734 188.125 35.2734C185.19 35.2734 183.723 33.7285 183.723 30.6387V21.9023H181.604V20.7266L183.75 19.7422L184.734 16.543H186.197V19.9883H190.531V21.9023H186.197V30.5703C186.197 31.4362 186.402 32.1016 186.812 32.5664C187.232 33.0312 187.811 33.2637 188.549 33.2637Z" fill="white"/>
</svg>
