<svg width="1025" height="870" viewBox="0 0 1025 870" fill="none" xmlns="http://www.w3.org/2000/svg">
<g clip-path="url(#clip0)">
<circle cx="601.5" cy="503" r="597" fill="url(#paint0_radial)"/>
<path fill-rule="evenodd" clip-rule="evenodd" d="M601.9 985.8C536.866 985.8 473.669 973.016 414.061 947.803C356.598 923.5 305.031 888.746 260.794 844.51C216.557 800.276 181.803 748.707 157.496 691.237C132.284 631.63 119.5 568.433 119.5 503.401C119.5 438.368 132.284 375.17 157.496 315.563C181.803 258.095 216.557 206.527 260.792 162.291C305.026 118.057 356.594 83.303 414.064 58.996C473.672 33.783 536.869 21 601.9 21C666.932 21 730.129 33.783 789.737 58.996C847.204 83.302 898.771 118.055 943.008 162.291C987.247 206.53 1022 258.1 1046.3 315.568C1071.52 375.169 1084.3 438.366 1084.3 503.401C1084.3 568.434 1071.51 631.632 1046.3 691.238C1022 748.702 987.246 800.27 943.009 844.508C898.776 888.741 847.208 923.495 789.737 947.804C730.13 973.016 666.933 985.8 601.9 985.8Z" fill="white" fill-opacity="0.04"/>
<path fill-rule="evenodd" clip-rule="evenodd" d="M601.9 915.8C546.287 915.8 492.264 904.877 441.332 883.333C392.21 862.558 348.12 832.841 310.29 795.012C272.46 757.183 242.745 713.093 221.965 663.968C200.422 613.036 189.5 559.013 189.5 503.401C189.5 447.787 200.422 393.764 221.965 342.832C242.744 293.707 272.461 249.617 310.29 211.789C348.118 173.961 392.208 144.244 441.333 123.466C492.265 101.924 546.288 91 601.9 91C657.512 91 711.536 101.924 762.468 123.467C811.592 144.244 855.681 173.96 893.511 211.789C931.34 249.619 961.057 293.709 981.834 342.834C1003.38 393.764 1014.3 447.787 1014.3 503.401C1014.3 559.013 1003.38 613.036 981.833 663.969C961.057 713.091 931.34 757.181 893.511 795.011C855.683 832.839 811.593 862.555 762.467 883.334C711.536 904.877 657.512 915.8 601.9 915.8Z" fill="white" fill-opacity="0.04"/>
<path fill-rule="evenodd" clip-rule="evenodd" d="M601.9 845.8C555.708 845.8 510.859 836.737 468.601 818.863C427.82 801.615 391.21 776.937 359.787 745.514C328.364 714.091 303.685 677.481 286.436 636.699C268.562 594.442 259.5 549.593 259.5 503.401C259.5 457.207 268.562 412.36 286.436 370.102C303.685 329.321 328.364 292.709 359.787 261.287C391.21 229.863 427.82 205.186 468.601 187.936C510.859 170.063 555.707 161 601.9 161C648.093 161 692.941 170.063 735.199 187.937C775.98 205.186 812.59 229.863 844.013 261.287C875.436 292.709 900.115 329.321 917.363 370.102C935.237 412.36 944.299 457.207 944.299 503.401C944.299 549.593 935.237 594.442 917.363 636.699C900.115 677.481 875.436 714.091 844.013 745.514C812.59 776.937 775.98 801.614 735.199 818.863C692.941 836.737 648.093 845.8 601.9 845.8Z" fill="white" fill-opacity="0.04"/>
<circle cx="582.5" cy="128" r="4" fill="white"/>
<circle cx="303" cy="283.5" r="2.5" fill="white" fill-opacity="0.5"/>
<circle cx="883" cy="105.5" r="2.5" fill="white" fill-opacity="0.7"/>
<circle cx="398" cy="146.5" r="2.5" fill="white" fill-opacity="0.7"/>
<circle cx="907" cy="705.5" r="2.5" fill="white" fill-opacity="0.7"/>
<circle cx="222" cy="662.5" r="2.5" fill="white" fill-opacity="0.7"/>
<circle cx="236" cy="93.5" r="2.5" fill="white" fill-opacity="0.5"/>
<circle cx="731" cy="211.5" r="2.5" fill="white" fill-opacity="0.5"/>
<circle cx="174" cy="419.5" r="2.5" fill="white" fill-opacity="0.5"/>
<circle cx="326" cy="703.5" r="2.5" fill="white" fill-opacity="0.5"/>
<circle cx="888" cy="626.5" r="2.5" fill="white" fill-opacity="0.5"/>
<circle cx="193.5" cy="243" r="4" fill="white"/>
<circle cx="255.5" cy="471" r="4" fill="white"/>
<circle cx="161.5" cy="620" r="4" fill="white"/>
<circle cx="913.5" cy="364" r="4" fill="white"/>
<circle cx="835.5" cy="190" r="4" fill="white"/>
</g>
<defs>
<radialGradient id="paint0_radial" cx="0" cy="0" r="1" gradientUnits="userSpaceOnUse" gradientTransform="translate(601.5 503) rotate(90) scale(597)">
<stop stop-color="#2E8EFD" stop-opacity="0.52"/>
<stop offset="1" stop-color="#2E8EFD" stop-opacity="0"/>
</radialGradient>
<clipPath id="clip0">
<rect width="1025" height="870" fill="white"/>
</clipPath>
</defs>
</svg>
