<svg width="1025" height="870" viewBox="0 0 1025 870" fill="none" xmlns="http://www.w3.org/2000/svg">
<g clip-path="url(#clip0)">
<path d="M748 680L0 807V1063.5L1106.5 1086.5V848.5L748 680Z" fill="#002142"/>
<path fill-rule="evenodd" clip-rule="evenodd" d="M682.031 415L663.327 454.081L650.437 457.404L639.214 484.831L618.433 501.87H630.84L623.354 526.379L645.723 520.531L623.354 548.278L518.524 586.675L499.754 604.165L442.048 633.079L385 723.469L436.008 694.268L450.663 668.16L446.896 688.281L478.392 662.978C470.593 677.547 466.694 684.831 466.694 684.831C466.694 684.831 460.095 706.119 446.896 748.697L455.938 774H466.694L463.529 745.16L486.269 694.268L513.75 659.537L530.817 655.329L513.75 704.194L518.524 759.847H537.039V704.194L557.478 684.831L573.456 638.761H595.705V709.015L614.413 745.16L630.84 742.644L614.413 709.015L623.354 633.079L635.242 627.261L639.214 712.272L654.744 742.644H668.383L654.744 709.015L659.942 638.203L668.383 621.548V594.5L678.016 612.429L693.516 557.543V473.719L703 436.388L698.844 432.634L691.779 443.436V423.808L682.031 415Z" fill="#002142"/>
</g>
<defs>
<clipPath id="clip0">
<rect width="1025" height="870" fill="white"/>
</clipPath>
</defs>
</svg>
