<svg width="133" height="61" viewBox="0 0 133 61" fill="none" xmlns="http://www.w3.org/2000/svg">
<path fill-rule="evenodd" clip-rule="evenodd" d="M0 11.9882L3.29881 48.7424L18.1007 52.8239L32.9433 48.736L36.2453 11.9882H0ZM18.1232 28.6247H12.1185L11.704 24.0094H18.1071H18.1232H29.0525H29.0675L29.1583 22.996L29.3655 20.7101L29.4734 19.5014H18.1232H18.1072H18.1071H6.74402L6.85298 20.7101L7.96825 33.1327H18.1071V33.133H23.6941L23.1674 38.9782L18.1071 40.3355V40.3363L18.103 40.3374L13.049 38.9812L12.7264 35.3868H10.2704H8.17126L8.80688 42.4641L18.1019 45.0269L18.1233 45.0216V45.0205L27.4095 42.4643L27.4779 41.7023L28.544 29.8358L28.6541 28.625H27.432H18.1232V28.6247Z" fill="white"/>
<mask id="path-2-outside-1" maskUnits="userSpaceOnUse" x="25.7537" y="17.1643" width="40" height="43" fill="black">
<rect fill="white" x="25.7537" y="17.1643" width="40" height="43"/>
<path fill-rule="evenodd" clip-rule="evenodd" d="M27.7537 18.1643L31.0525 54.9174L45.8544 58.9999L60.698 54.9121L64 18.1643H27.7537ZM51.8814 34.4859H45.8767V38.9929H51.4785L50.9488 44.8391L45.8972 46.194L45.8842 46.1974L40.8302 44.8422L40.5076 41.2468H38.0517H35.9525L36.5881 48.3241L45.8831 50.888L45.9045 50.8827V50.8814L55.1909 48.3241L55.2593 47.5632L56.0315 38.9929H56.0317L57.1469 26.5713L57.2548 25.3615H45.8927H45.8767V25.3616H34.5264L34.6343 26.5713L34.8415 28.8561L34.9323 29.8696H34.9462H45.8927V29.8696H52.2959L51.8814 34.4859ZM45.8767 34.4858V37.2853V38.9822V38.9939H40.9017H40.8878L40.796 37.9804L40.5898 35.6956L40.4808 34.4858H45.8767Z"/>
</mask>
<path fill-rule="evenodd" clip-rule="evenodd" d="M27.7537 18.1643L31.0525 54.9174L45.8544 58.9999L60.698 54.9121L64 18.1643H27.7537ZM51.8814 34.4859H45.8767V38.9929H51.4785L50.9488 44.8391L45.8972 46.194L45.8842 46.1974L40.8302 44.8422L40.5076 41.2468H38.0517H35.9525L36.5881 48.3241L45.8831 50.888L45.9045 50.8827V50.8814L55.1909 48.3241L55.2593 47.5632L56.0315 38.9929H56.0317L57.1469 26.5713L57.2548 25.3615H45.8927H45.8767V25.3616H34.5264L34.6343 26.5713L34.8415 28.8561L34.9323 29.8696H34.9462H45.8927V29.8696H52.2959L51.8814 34.4859ZM45.8767 34.4858V37.2853V38.9822V38.9939H40.9017H40.8878L40.796 37.9804L40.5898 35.6956L40.4808 34.4858H45.8767Z" fill="white"/>
<path d="M31.0525 54.9174L30.0565 55.0068L30.1184 55.6971L30.7866 55.8814L31.0525 54.9174ZM27.7537 18.1643V17.1643H26.6599L26.7577 18.2537L27.7537 18.1643ZM45.8544 58.9999L45.5885 59.9639L45.8542 60.0372L46.1199 59.964L45.8544 58.9999ZM60.698 54.9121L60.9635 55.8762L61.6319 55.6921L61.694 55.0016L60.698 54.9121ZM64 18.1643L64.996 18.2538L65.0939 17.1643H64V18.1643ZM45.8767 34.4859V33.4859H44.8767V34.4859H45.8767ZM51.8814 34.4859V35.4859H52.7957L52.8774 34.5753L51.8814 34.4859ZM45.8767 38.9929H44.8767V39.9929H45.8767V38.9929ZM51.4785 38.9929L52.4744 39.0831L52.5732 37.9929H51.4785V38.9929ZM50.9488 44.8391L51.2079 45.8049L51.8818 45.6242L51.9447 44.9293L50.9488 44.8391ZM45.8972 46.194L46.1502 47.1615L46.1562 47.1599L45.8972 46.194ZM45.8842 46.1974L45.6252 47.1633L45.881 47.2319L46.1372 47.1649L45.8842 46.1974ZM40.8302 44.8422L39.8342 44.9316L39.8967 45.6272L40.5712 45.8081L40.8302 44.8422ZM40.5076 41.2468L41.5036 41.1575L41.4219 40.2468H40.5076V41.2468ZM35.9525 41.2468V40.2468H34.8587L34.9565 41.3363L35.9525 41.2468ZM36.5881 48.3241L35.5921 48.4135L35.6541 49.1038L36.3222 49.2881L36.5881 48.3241ZM45.8831 50.888L45.6172 51.852L45.8699 51.9217L46.1243 51.8585L45.8831 50.888ZM45.9045 50.8827L46.1457 51.8531L46.9045 51.6646V50.8827H45.9045ZM45.9045 50.8814L45.639 49.9173L44.9045 50.1196V50.8814H45.9045ZM55.1909 48.3241L55.4564 49.2882L56.1249 49.1041L56.1869 48.4136L55.1909 48.3241ZM55.2593 47.5632L54.2633 47.4735L54.2633 47.4737L55.2593 47.5632ZM56.0315 38.9929V37.9929H55.1176L55.0356 38.9031L56.0315 38.9929ZM56.0317 38.9929V39.9929H56.9459L57.0277 39.0823L56.0317 38.9929ZM57.1469 26.5713L58.1429 26.6607L58.143 26.6601L57.1469 26.5713ZM57.2548 25.3615L58.2509 25.4504L58.348 24.3615H57.2548V25.3615ZM45.8767 25.3615V24.3615H44.8767V25.3615H45.8767ZM45.8767 25.3616V26.3616H46.8767V25.3616H45.8767ZM34.5264 25.3616V24.3616H33.4332L33.5303 25.4504L34.5264 25.3616ZM34.6343 26.5713L33.6382 26.6602L33.6384 26.6617L34.6343 26.5713ZM34.8415 28.8561L35.8375 28.7669L35.8374 28.7658L34.8415 28.8561ZM34.9323 29.8696L33.9363 29.9588L34.0179 30.8696H34.9323V29.8696ZM45.8927 29.8696V30.8696H46.8927V29.8696H45.8927ZM45.8927 29.8696V28.8696H44.8927V29.8696H45.8927ZM52.2959 29.8696L53.2919 29.959L53.3897 28.8696H52.2959V29.8696ZM45.8767 34.4858H46.8767V33.4858H45.8767V34.4858ZM45.8767 38.9939V39.9939H46.8767V38.9939H45.8767ZM40.8878 38.9939L39.8919 39.0841L39.9744 39.9939H40.8878V38.9939ZM40.796 37.9804L39.8 38.0703L39.8001 38.0707L40.796 37.9804ZM40.5898 35.6956L39.5938 35.7853L39.5938 35.7855L40.5898 35.6956ZM40.4808 34.4858V33.4858H39.3867L39.4849 34.5755L40.4808 34.4858ZM32.0485 54.828L28.7497 18.0749L26.7577 18.2537L30.0565 55.0068L32.0485 54.828ZM46.1203 58.0359L31.3184 53.9534L30.7866 55.8814L45.5885 59.9639L46.1203 58.0359ZM60.4325 53.948L45.5889 58.0358L46.1199 59.964L60.9635 55.8762L60.4325 53.948ZM63.004 18.0748L59.702 54.8226L61.694 55.0016L64.996 18.2538L63.004 18.0748ZM27.7537 19.1643H64V17.1643H27.7537V19.1643ZM45.8767 35.4859H51.8814V33.4859H45.8767V35.4859ZM46.8767 38.9929V34.4859H44.8767V38.9929H46.8767ZM51.4785 37.9929H45.8767V39.9929H51.4785V37.9929ZM51.9447 44.9293L52.4744 39.0831L50.4825 38.9026L49.9529 44.7488L51.9447 44.9293ZM46.1562 47.1599L51.2079 45.8049L50.6898 43.8732L45.6381 45.2282L46.1562 47.1599ZM46.1372 47.1649L46.1501 47.1615L45.6442 45.2265L45.6312 45.2299L46.1372 47.1649ZM40.5712 45.8081L45.6252 47.1633L46.1432 45.2315L41.0892 43.8763L40.5712 45.8081ZM39.5116 41.3362L39.8342 44.9316L41.8262 44.7529L41.5036 41.1575L39.5116 41.3362ZM38.0517 42.2468H40.5076V40.2468H38.0517V42.2468ZM35.9525 42.2468H38.0517V40.2468H35.9525V42.2468ZM37.5841 48.2346L36.9485 41.1574L34.9565 41.3363L35.5921 48.4135L37.5841 48.2346ZM46.149 49.924L36.854 47.3601L36.3222 49.2881L45.6172 51.852L46.149 49.924ZM45.6633 49.9122L45.642 49.9175L46.1243 51.8585L46.1457 51.8531L45.6633 49.9122ZM44.9045 50.8814V50.8827H46.9045V50.8814H44.9045ZM54.9254 47.36L45.639 49.9173L46.17 51.8456L55.4564 49.2882L54.9254 47.36ZM54.2633 47.4737L54.1949 48.2346L56.1869 48.4136L56.2553 47.6527L54.2633 47.4737ZM55.0356 38.9031L54.2633 47.4735L56.2552 47.653L57.0275 39.0826L55.0356 38.9031ZM56.0317 37.9929H56.0315V39.9929H56.0317V37.9929ZM56.151 26.4819L55.0357 38.9034L57.0277 39.0823L58.1429 26.6607L56.151 26.4819ZM56.2588 25.2727L56.1509 26.4825L58.143 26.6601L58.2509 25.4504L56.2588 25.2727ZM45.8927 26.3615H57.2548V24.3615H45.8927V26.3615ZM45.8767 26.3615H45.8927V24.3615H45.8767V26.3615ZM46.8767 25.3616V25.3615H44.8767V25.3616H46.8767ZM34.5264 26.3616H45.8767V24.3616H34.5264V26.3616ZM35.6303 26.4825L35.5224 25.2727L33.5303 25.4504L33.6382 26.6602L35.6303 26.4825ZM35.8374 28.7658L35.6302 26.481L33.6384 26.6617L33.8456 28.9465L35.8374 28.7658ZM35.9283 29.7804L35.8375 28.7669L33.8455 28.9454L33.9363 29.9588L35.9283 29.7804ZM34.9462 28.8696H34.9323V30.8696H34.9462V28.8696ZM45.8927 28.8696H34.9462V30.8696H45.8927V28.8696ZM44.8927 29.8696V29.8696H46.8927V29.8696H44.8927ZM52.2959 28.8696H45.8927V30.8696H52.2959V28.8696ZM52.8774 34.5753L53.2919 29.959L51.2999 29.7801L50.8855 34.3964L52.8774 34.5753ZM46.8767 37.2853V34.4858H44.8767V37.2853H46.8767ZM46.8767 38.9822V37.2853H44.8767V38.9822H46.8767ZM46.8767 38.9939V38.9822H44.8767V38.9939H46.8767ZM40.9017 39.9939H45.8767V37.9939H40.9017V39.9939ZM40.8878 39.9939H40.9017V37.9939H40.8878V39.9939ZM39.8001 38.0707L39.8919 39.0841L41.8838 38.9036L41.7919 37.8901L39.8001 38.0707ZM39.5938 35.7855L39.8 38.0703L41.7919 37.8905L41.5858 35.6057L39.5938 35.7855ZM39.4849 34.5755L39.5938 35.7853L41.5858 35.6059L41.4768 34.3961L39.4849 34.5755ZM45.8767 33.4858H40.4808V35.4858H45.8767V33.4858Z" fill="#002142" mask="url(#path-2-outside-1)"/>
<path d="M88.5044 27H86.6177V20.0068H78.9272V27H77.0405V12.0088H78.9272V18.3457H86.6177V12.0088H88.5044V27ZM97.3535 27H95.4565V13.6699H90.7705V12.0088H102.009V13.6699H97.3535V27ZM110.909 27L105.967 13.8545H105.885C105.987 14.9482 106.039 16.2983 106.039 17.9048V27H104.295V12.0088H107.084L111.709 24.293H111.791L116.498 12.0088H119.266V27H117.4V17.7817C117.4 16.7563 117.448 15.4541 117.543 13.875H117.461L112.458 27H110.909ZM123.347 27V12.0088H125.234V25.3184H131.786V27H123.347ZM83.4595 34.4546C81.8462 34.4546 80.5781 34.9946 79.6553 36.0747C78.7324 37.1548 78.271 38.6313 78.271 40.5044C78.271 42.439 78.7188 43.9326 79.6143 44.9854C80.5098 46.0312 81.7847 46.5542 83.439 46.5542C84.5054 46.5542 85.7051 46.356 87.0381 45.9595V47.6001C86.4023 47.8325 85.7905 47.9897 85.2026 48.0718C84.6147 48.1606 83.938 48.2051 83.1724 48.2051C80.9644 48.2051 79.2622 47.5352 78.0659 46.1953C76.8765 44.8486 76.2817 42.9448 76.2817 40.4839C76.2817 38.939 76.5654 37.5854 77.1328 36.4233C77.707 35.2612 78.5376 34.3657 79.6245 33.7368C80.7183 33.1079 82.0034 32.7935 83.48 32.7935C85.0659 32.7935 86.4468 33.0874 87.6226 33.6753L86.8638 35.2749C85.6675 34.728 84.5327 34.4546 83.4595 34.4546ZM98.8096 43.9907C98.8096 45.2964 98.3379 46.3252 97.3945 47.0771C96.4512 47.8291 95.1387 48.2051 93.457 48.2051C91.6797 48.2051 90.3057 47.9692 89.335 47.4976V45.6929C89.9707 45.9663 90.6646 46.1816 91.4165 46.3389C92.1753 46.4961 92.8828 46.5747 93.5391 46.5747C94.6602 46.5747 95.5044 46.3594 96.0718 45.9287C96.6392 45.498 96.9229 44.9067 96.9229 44.1548C96.9229 43.6558 96.8203 43.2456 96.6152 42.9243C96.4102 42.603 96.0649 42.3022 95.5796 42.022C95.1011 41.7417 94.373 41.4238 93.3955 41.0684C92.0078 40.5625 91.0166 39.9678 90.4219 39.2842C89.8271 38.5938 89.5298 37.7051 89.5298 36.6182C89.5298 35.4492 89.9673 34.5195 90.8423 33.8291C91.7241 33.1387 92.8828 32.7935 94.3184 32.7935C95.8154 32.7935 97.1929 33.0737 98.4507 33.6343L97.8662 35.2544C96.5811 34.7212 95.3848 34.4546 94.2773 34.4546C93.3887 34.4546 92.6914 34.646 92.1855 35.0288C91.6865 35.4116 91.437 35.9482 91.437 36.6387C91.437 37.1309 91.5327 37.541 91.7241 37.8691C91.9224 38.1904 92.2368 38.4844 92.6675 38.751C93.105 39.0176 93.7886 39.3218 94.7183 39.6636C95.8325 40.0737 96.6631 40.4736 97.21 40.8633C97.7568 41.2461 98.1602 41.6904 98.4199 42.1963C98.6797 42.6953 98.8096 43.2935 98.8096 43.9907ZM110.335 43.9907C110.335 45.2964 109.863 46.3252 108.92 47.0771C107.977 47.8291 106.664 48.2051 104.982 48.2051C103.205 48.2051 101.831 47.9692 100.86 47.4976V45.6929C101.496 45.9663 102.19 46.1816 102.942 46.3389C103.701 46.4961 104.408 46.5747 105.064 46.5747C106.186 46.5747 107.03 46.3594 107.597 45.9287C108.165 45.498 108.448 44.9067 108.448 44.1548C108.448 43.6558 108.346 43.2456 108.141 42.9243C107.936 42.603 107.59 42.3022 107.105 42.022C106.626 41.7417 105.898 41.4238 104.921 41.0684C103.533 40.5625 102.542 39.9678 101.947 39.2842C101.353 38.5938 101.055 37.7051 101.055 36.6182C101.055 35.4492 101.493 34.5195 102.368 33.8291C103.25 33.1387 104.408 32.7935 105.844 32.7935C107.341 32.7935 108.718 33.0737 109.976 33.6343L109.392 35.2544C108.106 34.7212 106.91 34.4546 105.803 34.4546C104.914 34.4546 104.217 34.646 103.711 35.0288C103.212 35.4116 102.962 35.9482 102.962 36.6387C102.962 37.1309 103.058 37.541 103.25 37.8691C103.448 38.1904 103.762 38.4844 104.193 38.751C104.63 39.0176 105.314 39.3218 106.244 39.6636C107.358 40.0737 108.188 40.4736 108.735 40.8633C109.282 41.2461 109.686 41.6904 109.945 42.1963C110.205 42.6953 110.335 43.2935 110.335 43.9907Z" fill="white"/>
<path d="M6.86342 9H5.70155V5.1756H1.16187V9H0V0.27748H1.16187V4.05362H5.70155V0.27748H6.86342V9Z" fill="white"/>
<path d="M14.4725 0.27748V1.39946H12.1487V9H10.9869V1.39946H8.72302V0.27748H14.4725Z" fill="white"/>
<path d="M24.9417 0V9H23.7918V3.35389L20.6056 7.90214H20.5817L17.4554 3.51072V9H16.3295V0H16.3414L20.6056 6.08043L24.9297 0H24.9417Z" fill="white"/>
<path d="M28.5921 0.27748V7.86595H33V9H27.4302V0.27748H28.5921Z" fill="white"/>
<path d="M47.9386 14.161C47.617 14.3685 47.2081 14.5625 46.712 14.7429C46.225 14.9143 45.6921 15 45.1132 15C44.0933 15 43.1929 14.779 42.4119 14.3369C41.6401 13.8949 41.0429 13.2995 40.6202 12.5507C40.2067 11.802 40 10.9765 40 10.0744C40 9.10916 40.2113 8.24312 40.634 7.47632C41.0566 6.7005 41.6401 6.09608 42.3843 5.66306C43.1378 5.22102 43.9877 5 44.9341 5C45.4945 5 46.0183 5.07217 46.5052 5.21651C46.9922 5.36085 47.4286 5.55029 47.8145 5.78484L47.277 7.01624C46.5144 6.51105 45.7472 6.25846 44.9754 6.25846C44.3322 6.25846 43.735 6.42535 43.1837 6.75913C42.6416 7.09292 42.2052 7.54849 41.8744 8.12585C41.5528 8.69418 41.392 9.32116 41.392 10.0068C41.392 10.7104 41.539 11.3464 41.833 11.9148C42.1363 12.4831 42.5635 12.9296 43.1148 13.2544C43.6753 13.5701 44.3184 13.728 45.0443 13.728C45.9356 13.728 46.712 13.4799 47.3735 12.9838L47.9386 14.161Z" fill="white"/>
<path d="M55.3443 6.85386C54.986 6.66441 54.6047 6.51105 54.2004 6.39378C53.7961 6.2765 53.4148 6.21786 53.0564 6.21786C52.5143 6.21786 52.0825 6.33965 51.7609 6.58322C51.4485 6.81777 51.2923 7.14253 51.2923 7.55751C51.2923 7.96346 51.4761 8.29725 51.8436 8.55886C52.2203 8.81146 52.7532 9.06405 53.4423 9.31664C53.9569 9.49707 54.3887 9.69553 54.7379 9.91204C55.0962 10.1195 55.3902 10.4127 55.6199 10.7916C55.8588 11.1615 55.9783 11.6351 55.9783 12.2124C55.9783 12.7357 55.8451 13.2093 55.5786 13.6333C55.3121 14.0573 54.9308 14.3911 54.4347 14.6346C53.9477 14.8782 53.3734 15 52.7119 15C52.0963 15 51.5036 14.9053 50.934 14.7158C50.3643 14.5174 49.8635 14.2693 49.4317 13.9716L50.0243 12.9296C50.3643 13.1822 50.7732 13.3987 51.251 13.5792C51.7288 13.7506 52.1744 13.8363 52.5878 13.8363C53.1208 13.8363 53.5848 13.7009 53.9799 13.4303C54.3841 13.1597 54.5863 12.7582 54.5863 12.226C54.5863 11.7749 54.4163 11.4186 54.0763 11.157C53.7456 10.8863 53.277 10.6337 52.6705 10.3992C52.1101 10.1917 51.6415 9.98872 51.2647 9.79026C50.8972 9.59179 50.5802 9.32116 50.3138 8.97835C50.0473 8.62652 49.9141 8.18899 49.9141 7.66576C49.9141 6.89896 50.1851 6.28101 50.7272 5.81191C51.2785 5.33378 51.9906 5.08119 52.8635 5.05413C53.9385 5.05413 54.9354 5.31574 55.8542 5.83897L55.3443 6.85386Z" fill="white"/>
<path d="M63.366 6.85386C63.0077 6.66441 62.6264 6.51105 62.2221 6.39378C61.8178 6.2765 61.4365 6.21786 61.0782 6.21786C60.5361 6.21786 60.1042 6.33965 59.7826 6.58322C59.4702 6.81777 59.314 7.14253 59.314 7.55751C59.314 7.96346 59.4978 8.29725 59.8653 8.55886C60.242 8.81146 60.7749 9.06405 61.4641 9.31664C61.9786 9.49707 62.4104 9.69553 62.7596 9.91204C63.1179 10.1195 63.412 10.4127 63.6417 10.7916C63.8806 11.1615 64 11.6351 64 12.2124C64 12.7357 63.8668 13.2093 63.6003 13.6333C63.3339 14.0573 62.9525 14.3911 62.4564 14.6346C61.9694 14.8782 61.3951 15 60.7336 15C60.118 15 59.5254 14.9053 58.9557 14.7158C58.386 14.5174 57.8853 14.2693 57.4534 13.9716L58.0461 12.9296C58.386 13.1822 58.7949 13.3987 59.2727 13.5792C59.7505 13.7506 60.1961 13.8363 60.6096 13.8363C61.1425 13.8363 61.6065 13.7009 62.0016 13.4303C62.4058 13.1597 62.608 12.7582 62.608 12.226C62.608 11.7749 62.438 11.4186 62.098 11.157C61.7673 10.8863 61.2987 10.6337 60.6923 10.3992C60.1318 10.1917 59.6632 9.98872 59.2865 9.79026C58.9189 9.59179 58.6019 9.32116 58.3355 8.97835C58.069 8.62652 57.9358 8.18899 57.9358 7.66576C57.9358 6.89896 58.2068 6.28101 58.749 5.81191C59.3002 5.33378 60.0123 5.08119 60.8852 5.05413C61.9602 5.05413 62.9571 5.31574 63.876 5.83897L63.366 6.85386Z" fill="white"/>
</svg>
