<svg width="183" height="50" viewBox="0 0 183 50" fill="none" xmlns="http://www.w3.org/2000/svg">
<path fill-rule="evenodd" clip-rule="evenodd" d="M43.7532 4H6.22552L24.5426 41.5277L43.7532 4ZM4 8.55961V46H22.2745L4 8.55961ZM26.7468 46H46V8.38913L26.7468 46ZM0 0H4H46H50V4V46V50H46H4H0V46V4V0Z" fill="white"/>
<path d="M67.6543 22L62.7119 8.85449H62.6299C62.7324 9.94824 62.7837 11.2983 62.7837 12.9048V22H61.0405V7.00879H63.8296L68.4541 19.293H68.5361L73.2427 7.00879H76.0112V22H74.145V12.7817C74.145 11.7563 74.1929 10.4541 74.2886 8.875H74.2065L69.2026 22H67.6543ZM86.7881 22L86.4292 20.4004H86.3472C85.7866 21.1045 85.2261 21.583 84.6655 21.8359C84.1118 22.082 83.4111 22.2051 82.5635 22.2051C81.4561 22.2051 80.5879 21.9146 79.959 21.3335C79.3301 20.7524 79.0156 19.9321 79.0156 18.8726C79.0156 16.5894 80.8169 15.3931 84.4194 15.2837L86.3267 15.2119V14.5454C86.3267 13.6909 86.1421 13.062 85.7729 12.6587C85.4038 12.2485 84.8125 12.0435 83.999 12.0435C83.4043 12.0435 82.8403 12.1323 82.3071 12.3101C81.7808 12.4878 81.2852 12.686 80.8203 12.9048L80.2563 11.5205C80.8237 11.2197 81.4424 10.9839 82.1123 10.813C82.7822 10.6421 83.4453 10.5566 84.1016 10.5566C85.4619 10.5566 86.4736 10.8574 87.1367 11.459C87.7998 12.0605 88.1313 13.0176 88.1313 14.3301V22H86.7881ZM82.9839 20.7183C84.0161 20.7183 84.8262 20.4414 85.4141 19.8877C86.0088 19.3271 86.3062 18.5342 86.3062 17.5088V16.4937L84.645 16.5654C83.353 16.6133 82.4097 16.8184 81.8149 17.1807C81.2271 17.543 80.9331 18.1138 80.9331 18.8931C80.9331 19.481 81.1108 19.9321 81.4663 20.2466C81.8286 20.561 82.3345 20.7183 82.9839 20.7183ZM95.3911 20.6978C95.6304 20.6978 95.9106 20.6738 96.2319 20.626C96.5532 20.5781 96.7959 20.5234 96.96 20.4619V21.877C96.7891 21.9521 96.5225 22.0239 96.1602 22.0923C95.8047 22.1675 95.4424 22.2051 95.0732 22.2051C92.8721 22.2051 91.7715 21.0464 91.7715 18.729V12.1768H90.1821V11.2949L91.792 10.5566L92.5303 8.15723H93.6274V10.7412H96.8779V12.1768H93.6274V18.6777C93.6274 19.3271 93.7812 19.8262 94.0889 20.1748C94.4033 20.5234 94.8374 20.6978 95.3911 20.6978ZM104.004 22.2051C102.316 22.2051 100.99 21.6958 100.026 20.6772C99.0688 19.6519 98.5903 18.2437 98.5903 16.4526C98.5903 14.6479 99.0381 13.2124 99.9336 12.146C100.829 11.0728 102.039 10.5361 103.563 10.5361C104.979 10.5361 106.106 10.9941 106.947 11.9102C107.788 12.8193 108.208 14.0532 108.208 15.6118V16.7295H100.498C100.532 18.0078 100.856 18.9785 101.472 19.6416C102.087 20.3047 102.958 20.6362 104.086 20.6362C104.688 20.6362 105.259 20.585 105.799 20.4824C106.339 20.373 106.971 20.1646 107.696 19.8569V21.4771C107.074 21.7437 106.489 21.9316 105.942 22.041C105.396 22.1504 104.75 22.2051 104.004 22.2051ZM103.543 12.0435C102.661 12.0435 101.964 12.3271 101.451 12.8945C100.938 13.4619 100.634 14.2515 100.539 15.2632H106.271C106.257 14.2104 106.014 13.4106 105.542 12.8638C105.071 12.3169 104.404 12.0435 103.543 12.0435ZM116.319 10.5361C116.818 10.5361 117.259 10.5771 117.642 10.6592L117.417 12.3613C117 12.2656 116.593 12.2178 116.196 12.2178C115.602 12.2178 115.048 12.3818 114.535 12.71C114.029 13.0381 113.633 13.4927 113.346 14.0737C113.059 14.6479 112.915 15.2871 112.915 15.9912V22H111.069V10.7412H112.587L112.792 12.8022H112.874C113.305 12.0571 113.814 11.4932 114.402 11.1104C114.99 10.7275 115.629 10.5361 116.319 10.5361ZM121.59 22H119.744V10.7412H121.59V22ZM119.601 7.6958C119.601 7.28564 119.703 6.98828 119.908 6.80371C120.12 6.61914 120.38 6.52686 120.688 6.52686C120.975 6.52686 121.224 6.61914 121.436 6.80371C121.655 6.98828 121.764 7.28564 121.764 7.6958C121.764 8.09912 121.655 8.39648 121.436 8.58789C121.224 8.7793 120.975 8.875 120.688 8.875C120.38 8.875 120.12 8.7793 119.908 8.58789C119.703 8.39648 119.601 8.09912 119.601 7.6958ZM132.11 22L131.751 20.4004H131.669C131.109 21.1045 130.548 21.583 129.988 21.8359C129.434 22.082 128.733 22.2051 127.886 22.2051C126.778 22.2051 125.91 21.9146 125.281 21.3335C124.652 20.7524 124.338 19.9321 124.338 18.8726C124.338 16.5894 126.139 15.3931 129.742 15.2837L131.649 15.2119V14.5454C131.649 13.6909 131.464 13.062 131.095 12.6587C130.726 12.2485 130.135 12.0435 129.321 12.0435C128.727 12.0435 128.163 12.1323 127.629 12.3101C127.103 12.4878 126.607 12.686 126.143 12.9048L125.579 11.5205C126.146 11.2197 126.765 10.9839 127.435 10.813C128.104 10.6421 128.768 10.5566 129.424 10.5566C130.784 10.5566 131.796 10.8574 132.459 11.459C133.122 12.0605 133.454 13.0176 133.454 14.3301V22H132.11ZM128.306 20.7183C129.338 20.7183 130.148 20.4414 130.736 19.8877C131.331 19.3271 131.628 18.5342 131.628 17.5088V16.4937L129.967 16.5654C128.675 16.6133 127.732 16.8184 127.137 17.1807C126.549 17.543 126.255 18.1138 126.255 18.8931C126.255 19.481 126.433 19.9321 126.789 20.2466C127.151 20.561 127.657 20.7183 128.306 20.7183ZM138.796 22H136.95V6.04492H138.796V22ZM73.0479 34.3608C73.0479 36.8354 72.3711 38.729 71.0176 40.0415C69.6709 41.3472 67.7363 42 65.2139 42H61.0405V27.0088H65.6548C67.9858 27.0088 69.8008 27.6514 71.0996 28.9365C72.3984 30.2148 73.0479 32.0229 73.0479 34.3608ZM71.0586 34.4224C71.0586 32.5151 70.5869 31.0728 69.6436 30.0952C68.707 29.1108 67.2886 28.6187 65.3882 28.6187H62.9272V40.3799H64.9678C69.0283 40.3799 71.0586 38.394 71.0586 34.4224ZM80.9126 42.2051C79.2241 42.2051 77.8979 41.6958 76.9341 40.6772C75.9771 39.6519 75.4985 38.2437 75.4985 36.4526C75.4985 34.6479 75.9463 33.2124 76.8418 32.146C77.7373 31.0728 78.9473 30.5361 80.4717 30.5361C81.8867 30.5361 83.0146 30.9941 83.8555 31.9102C84.6963 32.8193 85.1167 34.0532 85.1167 35.6118V36.7295H77.4058C77.4399 38.0078 77.7646 38.9785 78.3799 39.6416C78.9951 40.3047 79.8667 40.6362 80.9946 40.6362C81.5962 40.6362 82.167 40.585 82.707 40.4824C83.2471 40.373 83.8794 40.1646 84.604 39.8569V41.4771C83.9819 41.7437 83.3975 41.9316 82.8506 42.041C82.3037 42.1504 81.6577 42.2051 80.9126 42.2051ZM80.4512 32.0435C79.5693 32.0435 78.8721 32.3271 78.3594 32.8945C77.8467 33.4619 77.5425 34.2515 77.4468 35.2632H83.1787C83.165 34.2104 82.9224 33.4106 82.4507 32.8638C81.979 32.3169 81.3125 32.0435 80.4512 32.0435ZM95.3091 38.8931C95.3091 39.9458 94.916 40.7627 94.1299 41.3438C93.3438 41.918 92.2397 42.2051 90.8179 42.2051C89.3345 42.2051 88.1553 41.9692 87.2803 41.4976V39.8159C88.5176 40.4175 89.7104 40.7183 90.8589 40.7183C91.7886 40.7183 92.4653 40.5679 92.8892 40.2671C93.313 39.9663 93.5249 39.563 93.5249 39.0571C93.5249 38.6128 93.3198 38.2368 92.9097 37.9292C92.5063 37.6216 91.7852 37.2695 90.7461 36.873C89.6865 36.4629 88.9414 36.1143 88.5107 35.8271C88.0801 35.5332 87.7622 35.2051 87.5571 34.8428C87.3589 34.4805 87.2598 34.0396 87.2598 33.52C87.2598 32.5972 87.6357 31.8691 88.3877 31.3359C89.1396 30.8027 90.1719 30.5361 91.4844 30.5361C92.7627 30.5361 93.959 30.7891 95.0732 31.2949L94.4478 32.7612C93.3062 32.2827 92.2773 32.0435 91.3613 32.0435C90.5957 32.0435 90.0146 32.1665 89.6182 32.4126C89.2217 32.6519 89.0234 32.9834 89.0234 33.4072C89.0234 33.8174 89.1943 34.1592 89.5361 34.4326C89.8779 34.6992 90.6743 35.0718 91.9253 35.5503C92.8618 35.8989 93.5522 36.2236 93.9966 36.5244C94.4478 36.8252 94.7793 37.1636 94.9912 37.5396C95.2031 37.9155 95.3091 38.3667 95.3091 38.8931ZM99.8926 42H98.0469V30.7412H99.8926V42ZM97.9033 27.6958C97.9033 27.2856 98.0059 26.9883 98.2109 26.8037C98.4229 26.6191 98.6826 26.5269 98.9902 26.5269C99.2773 26.5269 99.5269 26.6191 99.7388 26.8037C99.9575 26.9883 100.067 27.2856 100.067 27.6958C100.067 28.0991 99.9575 28.3965 99.7388 28.5879C99.5269 28.7793 99.2773 28.875 98.9902 28.875C98.6826 28.875 98.4229 28.7793 98.2109 28.5879C98.0059 28.3965 97.9033 28.0991 97.9033 27.6958ZM107.747 40.6978C108.882 40.6978 109.706 40.3936 110.218 39.7852C110.738 39.1699 110.998 38.1855 110.998 36.832V36.3911C110.998 34.8872 110.738 33.7935 110.218 33.1099C109.699 32.4263 108.861 32.0845 107.706 32.0845C106.763 32.0845 106.031 32.4604 105.512 33.2124C104.999 33.9575 104.743 35.0239 104.743 36.4116C104.743 37.8062 104.992 38.8691 105.491 39.6006C105.997 40.332 106.749 40.6978 107.747 40.6978ZM110.977 41.8975L111.039 40.5132H110.957C110.198 41.6411 109.036 42.2051 107.47 42.2051C106.014 42.2051 104.876 41.6992 104.056 40.6875C103.242 39.6689 102.835 38.2368 102.835 36.3911C102.835 34.5796 103.246 33.1509 104.066 32.105C104.893 31.0591 106.021 30.5361 107.45 30.5361C108.974 30.5361 110.15 31.1035 110.977 32.2383H111.09L111.336 30.7412H112.802V42.1846C112.802 43.7979 112.392 45.0112 111.572 45.8247C110.758 46.6382 109.49 47.0449 107.768 47.0449C106.127 47.0449 104.777 46.8057 103.717 46.3271V44.625C104.811 45.2129 106.195 45.5068 107.87 45.5068C108.827 45.5068 109.583 45.2266 110.136 44.666C110.697 44.1055 110.977 43.3296 110.977 42.3384V41.8975ZM124.051 42V34.8018C124.051 33.8857 123.846 33.2056 123.436 32.7612C123.032 32.3101 122.396 32.0845 121.528 32.0845C120.373 32.0845 119.532 32.4058 119.006 33.0483C118.486 33.6841 118.227 34.7231 118.227 36.1655V42H116.381V30.7412H117.868L118.145 32.2793H118.247C118.596 31.7256 119.084 31.2983 119.713 30.9976C120.342 30.6899 121.036 30.5361 121.795 30.5361C123.176 30.5361 124.201 30.8711 124.871 31.541C125.541 32.2109 125.876 33.2534 125.876 34.6685V42H124.051ZM135.074 42V27.0088H136.96V40.3184H143.513V42H135.074ZM147.676 42H145.83V30.7412H147.676V42ZM145.687 27.6958C145.687 27.2856 145.789 26.9883 145.994 26.8037C146.206 26.6191 146.466 26.5269 146.773 26.5269C147.061 26.5269 147.31 26.6191 147.522 26.8037C147.741 26.9883 147.85 27.2856 147.85 27.6958C147.85 28.0991 147.741 28.3965 147.522 28.5879C147.31 28.7793 147.061 28.875 146.773 28.875C146.466 28.875 146.206 28.7793 145.994 28.5879C145.789 28.3965 145.687 28.0991 145.687 27.6958ZM155.53 40.6978C156.665 40.6978 157.489 40.3936 158.001 39.7852C158.521 39.1699 158.781 38.1855 158.781 36.832V36.3911C158.781 34.8872 158.521 33.7935 158.001 33.1099C157.482 32.4263 156.645 32.0845 155.489 32.0845C154.546 32.0845 153.814 32.4604 153.295 33.2124C152.782 33.9575 152.526 35.0239 152.526 36.4116C152.526 37.8062 152.775 38.8691 153.274 39.6006C153.78 40.332 154.532 40.6978 155.53 40.6978ZM158.76 41.8975L158.822 40.5132H158.74C157.981 41.6411 156.819 42.2051 155.253 42.2051C153.797 42.2051 152.659 41.6992 151.839 40.6875C151.025 39.6689 150.619 38.2368 150.619 36.3911C150.619 34.5796 151.029 33.1509 151.849 32.105C152.676 31.0591 153.804 30.5361 155.233 30.5361C156.757 30.5361 157.933 31.1035 158.76 32.2383H158.873L159.119 30.7412H160.585V42.1846C160.585 43.7979 160.175 45.0112 159.355 45.8247C158.542 46.6382 157.273 47.0449 155.551 47.0449C153.91 47.0449 152.56 46.8057 151.5 46.3271V44.625C152.594 45.2129 153.979 45.5068 155.653 45.5068C156.61 45.5068 157.366 45.2266 157.919 44.666C158.48 44.1055 158.76 43.3296 158.76 42.3384V41.8975ZM171.834 42V34.8018C171.834 33.8857 171.629 33.2056 171.219 32.7612C170.815 32.3101 170.18 32.0845 169.312 32.0845C168.17 32.0845 167.333 32.4023 166.799 33.0381C166.273 33.6738 166.01 34.7231 166.01 36.186V42H164.164V26.0449H166.01V30.7207C166.01 31.3359 165.976 31.8623 165.907 32.2998H166.03C166.365 31.7529 166.84 31.3257 167.456 31.0181C168.071 30.7104 168.765 30.5566 169.537 30.5566C170.904 30.5566 171.933 30.8848 172.624 31.541C173.314 32.1904 173.659 33.2329 173.659 34.6685V42H171.834ZM180.909 40.6978C181.148 40.6978 181.428 40.6738 181.75 40.626C182.071 40.5781 182.313 40.5234 182.478 40.4619V41.877C182.307 41.9521 182.04 42.0239 181.678 42.0923C181.322 42.1675 180.96 42.2051 180.591 42.2051C178.39 42.2051 177.289 41.0464 177.289 38.729V32.1768H175.7V31.2949L177.31 30.5566L178.048 28.1572H179.145V30.7412H182.396V32.1768H179.145V38.6777C179.145 39.3271 179.299 39.8262 179.606 40.1748C179.921 40.5234 180.355 40.6978 180.909 40.6978Z" fill="white"/>
</svg>
