<svg width="965" height="965" viewBox="0 0 965 965" fill="none" xmlns="http://www.w3.org/2000/svg">
<path fill-rule="evenodd" clip-rule="evenodd" d="M482.4 964.8C417.366 964.8 354.169 952.016 294.561 926.803C237.098 902.5 185.531 867.746 141.294 823.51C97.057 779.276 62.303 727.707 37.996 670.237C12.784 610.63 -3.27148e-06 547.433 -3.27148e-06 482.401C-3.27148e-06 417.368 12.784 354.17 37.996 294.563C62.303 237.095 97.057 185.527 141.292 141.291C185.526 97.057 237.094 62.303 294.564 37.996C354.172 12.783 417.369 0 482.4 0C547.432 0 610.629 12.783 670.237 37.996C727.704 62.302 779.271 97.055 823.508 141.291C867.747 185.53 902.5 237.1 926.804 294.568C952.016 354.169 964.799 417.366 964.799 482.401C964.799 547.434 952.015 610.632 926.802 670.238C902.5 727.702 867.746 779.27 823.509 823.508C779.276 867.741 727.708 902.495 670.237 926.804C610.63 952.016 547.433 964.8 482.4 964.8Z" fill="white" fill-opacity="0.04"/>
<path fill-rule="evenodd" clip-rule="evenodd" d="M482.4 894.8C426.787 894.8 372.764 883.877 321.832 862.333C272.71 841.558 228.62 811.841 190.79 774.012C152.96 736.183 123.245 692.093 102.465 642.968C80.922 592.036 70 538.013 70 482.401C70 426.787 80.922 372.764 102.465 321.832C123.244 272.707 152.961 228.617 190.79 190.789C228.618 152.961 272.708 123.244 321.833 102.466C372.765 80.924 426.788 70 482.4 70C538.012 70 592.036 80.924 642.968 102.467C692.092 123.244 736.181 152.96 774.011 190.789C811.84 228.619 841.557 272.709 862.334 321.834C883.877 372.764 894.799 426.787 894.799 482.401C894.799 538.013 883.877 592.036 862.333 642.969C841.557 692.091 811.84 736.181 774.011 774.011C736.183 811.839 692.093 841.555 642.967 862.334C592.036 883.877 538.012 894.8 482.4 894.8Z" fill="white" fill-opacity="0.04"/>
<path fill-rule="evenodd" clip-rule="evenodd" d="M482.4 824.8C436.208 824.8 391.359 815.737 349.101 797.863C308.32 780.615 271.71 755.937 240.287 724.514C208.864 693.091 184.185 656.481 166.936 615.699C149.062 573.442 140 528.593 140 482.401C140 436.207 149.062 391.36 166.936 349.102C184.185 308.321 208.864 271.709 240.287 240.287C271.71 208.863 308.32 184.186 349.101 166.936C391.359 149.063 436.207 140 482.4 140C528.593 140 573.441 149.063 615.699 166.937C656.48 184.186 693.09 208.863 724.513 240.287C755.936 271.709 780.615 308.321 797.863 349.102C815.737 391.36 824.799 436.207 824.799 482.401C824.799 528.593 815.737 573.442 797.863 615.699C780.615 656.481 755.936 693.091 724.513 724.514C693.09 755.937 656.48 780.614 615.699 797.863C573.441 815.737 528.593 824.8 482.4 824.8Z" fill="white" fill-opacity="0.04"/>
</svg>
