<svg width="869" height="900" viewBox="0 0 869 900" fill="none" xmlns="http://www.w3.org/2000/svg">
<path fill-rule="evenodd" clip-rule="evenodd" d="M482.4 962.8C417.366 962.8 354.169 950.016 294.561 924.803C237.098 900.5 185.531 865.746 141.294 821.51C97.057 777.276 62.303 725.707 37.996 668.237C12.784 608.63 -3.27148e-06 545.433 -3.27148e-06 480.401C-3.27148e-06 415.368 12.784 352.17 37.996 292.563C62.303 235.095 97.057 183.527 141.292 139.291C185.526 95.057 237.094 60.303 294.564 35.996C354.172 10.783 417.369 -2 482.4 -2C547.432 -2 610.629 10.783 670.237 35.996C727.704 60.302 779.271 95.055 823.508 139.291C867.747 183.53 902.5 235.1 926.804 292.568C952.016 352.169 964.799 415.366 964.799 480.401C964.799 545.434 952.015 608.632 926.802 668.238C902.5 725.702 867.746 777.27 823.509 821.508C779.276 865.741 727.708 900.495 670.237 924.804C610.63 950.016 547.433 962.8 482.4 962.8Z" fill="white" fill-opacity="0.04"/>
<path fill-rule="evenodd" clip-rule="evenodd" d="M482.4 892.8C426.787 892.8 372.764 881.877 321.832 860.333C272.71 839.558 228.62 809.841 190.79 772.012C152.96 734.183 123.245 690.093 102.465 640.968C80.922 590.036 70 536.013 70 480.401C70 424.787 80.922 370.764 102.465 319.832C123.244 270.707 152.961 226.617 190.79 188.789C228.618 150.961 272.708 121.244 321.833 100.466C372.765 78.924 426.788 68 482.4 68C538.012 68 592.036 78.924 642.968 100.467C692.092 121.244 736.181 150.96 774.011 188.789C811.84 226.619 841.557 270.709 862.334 319.834C883.877 370.764 894.799 424.787 894.799 480.401C894.799 536.013 883.877 590.036 862.333 640.969C841.557 690.091 811.84 734.181 774.011 772.011C736.183 809.839 692.093 839.555 642.967 860.334C592.036 881.877 538.012 892.8 482.4 892.8Z" fill="white" fill-opacity="0.04"/>
<path fill-rule="evenodd" clip-rule="evenodd" d="M482.4 822.8C436.208 822.8 391.359 813.737 349.101 795.863C308.32 778.615 271.71 753.937 240.287 722.514C208.864 691.091 184.185 654.481 166.936 613.699C149.062 571.442 140 526.593 140 480.401C140 434.207 149.062 389.36 166.936 347.102C184.185 306.321 208.864 269.709 240.287 238.287C271.71 206.863 308.32 182.186 349.101 164.936C391.359 147.063 436.207 138 482.4 138C528.593 138 573.441 147.063 615.699 164.937C656.48 182.186 693.09 206.863 724.513 238.287C755.936 269.709 780.615 306.321 797.863 347.102C815.737 389.36 824.799 434.207 824.799 480.401C824.799 526.593 815.737 571.442 797.863 613.699C780.615 654.481 755.936 691.091 724.513 722.514C693.09 753.937 656.48 778.614 615.699 795.863C573.441 813.737 528.593 822.8 482.4 822.8Z" fill="white" fill-opacity="0.04"/>
</svg>
