<svg width="1194" height="1194" viewBox="0 0 1194 1194" fill="none" xmlns="http://www.w3.org/2000/svg">
<circle cx="597" cy="597" r="597" fill="url(#paint0_radial)"/>
<path fill-rule="evenodd" clip-rule="evenodd" d="M597.4 1079.8C532.366 1079.8 469.169 1067.02 409.561 1041.8C352.098 1017.5 300.531 982.746 256.294 938.51C212.057 894.276 177.303 842.707 152.996 785.237C127.784 725.63 115 662.433 115 597.401C115 532.368 127.784 469.17 152.996 409.563C177.303 352.095 212.057 300.527 256.292 256.291C300.526 212.057 352.094 177.303 409.564 152.996C469.172 127.783 532.369 115 597.4 115C662.432 115 725.629 127.783 785.237 152.996C842.704 177.302 894.271 212.055 938.508 256.291C982.747 300.53 1017.5 352.1 1041.8 409.568C1067.02 469.169 1079.8 532.366 1079.8 597.401C1079.8 662.434 1067.01 725.632 1041.8 785.238C1017.5 842.702 982.746 894.27 938.509 938.508C894.276 982.741 842.708 1017.49 785.237 1041.8C725.63 1067.02 662.433 1079.8 597.4 1079.8Z" fill="white" fill-opacity="0.04"/>
<path fill-rule="evenodd" clip-rule="evenodd" d="M597.4 1009.8C541.787 1009.8 487.764 998.877 436.832 977.333C387.71 956.558 343.62 926.841 305.79 889.012C267.96 851.183 238.245 807.093 217.465 757.968C195.922 707.036 185 653.013 185 597.401C185 541.787 195.922 487.764 217.465 436.832C238.244 387.707 267.961 343.617 305.79 305.789C343.618 267.961 387.708 238.244 436.833 217.466C487.765 195.924 541.788 185 597.4 185C653.012 185 707.036 195.924 757.968 217.467C807.092 238.244 851.181 267.96 889.011 305.789C926.84 343.619 956.557 387.709 977.334 436.834C998.877 487.764 1009.8 541.787 1009.8 597.401C1009.8 653.013 998.877 707.036 977.333 757.969C956.557 807.091 926.84 851.181 889.011 889.011C851.183 926.839 807.093 956.555 757.967 977.334C707.036 998.877 653.012 1009.8 597.4 1009.8Z" fill="white" fill-opacity="0.04"/>
<path fill-rule="evenodd" clip-rule="evenodd" d="M597.4 939.8C551.208 939.8 506.359 930.737 464.101 912.863C423.32 895.615 386.71 870.937 355.287 839.514C323.864 808.091 299.185 771.481 281.936 730.699C264.062 688.442 255 643.593 255 597.401C255 551.207 264.062 506.36 281.936 464.102C299.185 423.321 323.864 386.709 355.287 355.287C386.71 323.863 423.32 299.186 464.101 281.936C506.359 264.063 551.207 255 597.4 255C643.593 255 688.441 264.063 730.699 281.937C771.48 299.186 808.09 323.863 839.513 355.287C870.936 386.709 895.615 423.321 912.863 464.102C930.737 506.36 939.799 551.207 939.799 597.401C939.799 643.593 930.737 688.442 912.863 730.699C895.615 771.481 870.936 808.091 839.513 839.514C808.09 870.937 771.48 895.614 730.699 912.863C688.441 930.737 643.593 939.8 597.4 939.8Z" fill="white" fill-opacity="0.04"/>
<defs>
<radialGradient id="paint0_radial" cx="0" cy="0" r="1" gradientUnits="userSpaceOnUse" gradientTransform="translate(597 597) rotate(90) scale(597)">
<stop stop-color="#2E8EFD" stop-opacity="0.52"/>
<stop offset="1" stop-color="#2E8EFD" stop-opacity="0"/>
</radialGradient>
</defs>
</svg>
