<svg width="836" height="889" viewBox="0 0 836 889" fill="none" xmlns="http://www.w3.org/2000/svg">
<path fill-rule="evenodd" clip-rule="evenodd" d="M482.9 964.8C417.866 964.8 354.669 952.016 295.061 926.803C237.598 902.5 186.031 867.746 141.794 823.51C97.557 779.276 62.803 727.707 38.496 670.237C13.284 610.63 0.499997 547.433 0.499997 482.401C0.499997 417.368 13.284 354.17 38.496 294.563C62.803 237.095 97.557 185.527 141.792 141.291C186.026 97.057 237.594 62.303 295.064 37.996C354.672 12.783 417.869 0 482.9 0C547.932 0 611.129 12.783 670.737 37.996C728.204 62.302 779.771 97.055 824.008 141.291C868.247 185.53 903 237.1 927.304 294.568C952.516 354.169 965.299 417.366 965.299 482.401C965.299 547.434 952.515 610.632 927.302 670.238C903 727.702 868.246 779.27 824.009 823.508C779.776 867.741 728.208 902.495 670.737 926.804C611.13 952.016 547.933 964.8 482.9 964.8Z" fill="white" fill-opacity="0.04"/>
<path fill-rule="evenodd" clip-rule="evenodd" d="M482.9 894.8C427.287 894.8 373.264 883.877 322.332 862.333C273.21 841.558 229.12 811.841 191.29 774.012C153.46 736.183 123.745 692.093 102.965 642.968C81.422 592.036 70.5 538.013 70.5 482.401C70.5 426.787 81.422 372.764 102.965 321.832C123.744 272.707 153.461 228.617 191.29 190.789C229.118 152.961 273.208 123.244 322.333 102.466C373.265 80.924 427.288 70 482.9 70C538.512 70 592.536 80.924 643.468 102.467C692.592 123.244 736.681 152.96 774.511 190.789C812.34 228.619 842.057 272.709 862.834 321.834C884.377 372.764 895.299 426.787 895.299 482.401C895.299 538.013 884.377 592.036 862.833 642.969C842.057 692.091 812.34 736.181 774.511 774.011C736.683 811.839 692.593 841.555 643.467 862.334C592.536 883.877 538.512 894.8 482.9 894.8Z" fill="white" fill-opacity="0.04"/>
<path fill-rule="evenodd" clip-rule="evenodd" d="M482.9 824.8C436.708 824.8 391.859 815.737 349.601 797.863C308.82 780.615 272.21 755.937 240.787 724.514C209.364 693.091 184.685 656.481 167.436 615.699C149.562 573.442 140.5 528.593 140.5 482.401C140.5 436.207 149.562 391.36 167.436 349.102C184.685 308.321 209.364 271.709 240.787 240.287C272.21 208.863 308.82 184.186 349.601 166.936C391.859 149.063 436.707 140 482.9 140C529.093 140 573.941 149.063 616.199 166.937C656.98 184.186 693.59 208.863 725.013 240.287C756.436 271.709 781.115 308.321 798.363 349.102C816.237 391.36 825.299 436.207 825.299 482.401C825.299 528.593 816.237 573.442 798.363 615.699C781.115 656.481 756.436 693.091 725.013 724.514C693.59 755.937 656.98 780.614 616.199 797.863C573.941 815.737 529.093 824.8 482.9 824.8Z" fill="white" fill-opacity="0.04"/>
</svg>
