<svg width="210" height="57" viewBox="0 0 210 57" fill="none" xmlns="http://www.w3.org/2000/svg">
<path d="M49.4999 36C49.2112 36 48.9304 36.0585 48.6819 36.1963L40.8182 40.6482C40.3093 40.9358 40 41.4786 40 42.0561V50.9438C40 51.521 40.3093 52.0631 40.8182 52.3513L42.8718 53.5135C43.8697 53.9956 44.2375 53.988 44.6916 53.988C46.1688 53.988 47.0123 53.1093 47.0123 51.5821V42.8089C47.0123 42.6849 46.9028 42.5962 46.7786 42.5962H45.7936C45.6674 42.5962 45.5599 42.6849 45.5599 42.8089V51.5821C45.5599 52.2589 44.8406 52.9398 43.6734 52.3677L41.5362 51.1401C41.4605 51.0999 41.4025 51.0287 41.4025 50.9438V42.0559C41.4025 41.9718 41.4598 41.886 41.5362 41.8432L49.3832 37.4079C49.4186 37.3876 49.4589 37.3769 49.5 37.3769C49.5411 37.3769 49.5814 37.3876 49.6168 37.4079L57.4641 41.8434C57.5388 41.8876 57.5977 41.9692 57.5977 42.0564V50.944C57.5977 51.0289 57.5541 51.1158 57.4808 51.1567L49.6168 55.5923C49.5495 55.6316 49.4567 55.6316 49.3832 55.5923L47.3629 54.4139C47.3322 54.3976 47.2978 54.389 47.2628 54.389C47.2278 54.389 47.1934 54.3976 47.1627 54.4139C46.6051 54.7237 46.5002 54.7597 45.9771 54.9376C45.8483 54.9817 45.6527 55.0502 46.044 55.2652L48.6819 56.787C48.9306 56.9277 49.213 57.0012 49.5001 57C49.7872 57.0017 50.0696 56.9283 50.3181 56.7873L58.182 52.3515C58.6909 52.0615 59 51.5212 59 50.944V42.0561C59 41.4788 58.6909 40.9369 58.182 40.6487L50.3181 36.1968C50.0717 36.0587 49.789 36.0002 49.5001 36.0002L49.4999 36Z" fill="white"/>
<path d="M51.6036 42.3507C49.3644 42.3507 48.0308 43.285 48.0308 44.8387C48.0308 46.5239 49.3544 46.9871 51.5036 47.1955C54.0747 47.4423 54.275 47.8124 54.275 48.3086C54.275 49.1692 53.5751 49.5361 51.9211 49.5361C49.8426 49.5361 49.3859 49.0274 49.233 48.014C49.2149 47.9052 49.1293 47.8174 49.0158 47.8174H47.9974C47.872 47.8174 47.7637 47.9234 47.7637 48.0467C47.7637 49.3441 48.4835 50.8783 51.9211 50.8783C54.4093 50.8783 55.8446 49.9208 55.8446 48.2431C55.8446 46.5801 54.6853 46.1336 52.2715 45.8208C49.8326 45.5044 49.6001 45.3494 49.6001 44.7896C49.6001 44.3273 49.7974 43.709 51.6036 43.709C53.2173 43.709 53.8137 44.0503 54.058 45.1169C54.0794 45.217 54.1694 45.2969 54.275 45.2969H55.2937C55.3563 45.2969 55.4171 45.2591 55.4605 45.215C55.5032 45.1679 55.5334 45.1149 55.5274 45.0514C55.3696 43.2147 54.1202 42.3507 51.6036 42.3507Z" fill="white"/>
<path d="M67.298 0.000115867C67.2039 0.000178536 67.1115 0.0248491 67.0298 0.0716981C66.9486 0.119404 66.8812 0.187527 66.8342 0.269355C66.7872 0.351184 66.7622 0.443895 66.7618 0.538354V14.2667C66.7618 14.4014 66.6994 14.5221 66.5832 14.5897C66.5262 14.623 66.4615 14.6406 66.3956 14.6406C66.3297 14.6406 66.2649 14.623 66.2079 14.5897L63.9741 13.2977C63.8112 13.203 63.6263 13.1532 63.438 13.1532C63.2498 13.1532 63.0649 13.203 62.902 13.2977L53.9849 18.4658C53.6516 18.6591 53.4489 19.0305 53.4489 19.4171V29.7536C53.4489 30.1397 53.6518 30.4934 53.9849 30.6867L62.902 35.8551C63.0648 35.95 63.2498 36 63.438 36C63.6263 36 63.8113 35.95 63.9741 35.8551L72.8912 30.6867C73.0545 30.5923 73.19 30.4564 73.2842 30.2925C73.3783 30.1287 73.4277 29.9428 73.4274 29.7536V3.98403C73.4272 3.79043 73.3758 3.60037 73.2785 3.43325C73.1812 3.26612 73.0414 3.12792 72.8736 3.03276L67.566 0.0537402C67.4828 0.0070995 67.3904 -0.00113121 67.298 0.000115867ZM9.9356 12.9029C9.76572 12.9096 9.60577 12.9395 9.45328 13.0283L0.535976 18.1967C0.37263 18.291 0.237011 18.4269 0.142881 18.5908C0.0487506 18.7546 -0.000541948 18.9406 4.49428e-06 19.1298L0.0178868 33.002C0.0178868 33.1948 0.116984 33.3742 0.285873 33.4684C0.366842 33.5173 0.459522 33.5431 0.553983 33.5431C0.648444 33.5431 0.741124 33.5173 0.822093 33.4684L6.11153 30.4178C6.44657 30.2178 6.66538 29.8701 6.66538 29.4845V23.0062C6.66538 22.6196 6.8678 22.2649 7.2016 22.0729L9.45303 20.763C9.61581 20.6679 9.80095 20.6183 9.98925 20.6193C10.173 20.6193 10.3618 20.6654 10.5252 20.763L12.7769 22.0729C12.9404 22.167 13.0761 22.303 13.1703 22.4669C13.2645 22.6309 13.3138 22.8169 13.3131 23.0062V29.4843C13.3131 29.8699 13.5342 30.22 13.867 30.4176L19.1564 33.4684C19.2374 33.5173 19.3301 33.5431 19.4245 33.5431C19.519 33.5431 19.6117 33.5173 19.6926 33.4684C19.7741 33.4211 19.8418 33.353 19.8889 33.2711C19.936 33.1892 19.9608 33.0963 19.9609 33.0018L19.9782 19.1298C19.9793 18.9405 19.9302 18.7543 19.836 18.5904C19.7419 18.4264 19.606 18.2906 19.4423 18.1967L10.5252 13.0283C10.3745 12.9395 10.214 12.9099 10.0429 12.9029H9.9356ZM90.0641 13.0283C89.8779 13.0283 89.6953 13.0757 89.5282 13.172L80.6111 18.3404C80.4478 18.4347 80.3123 18.5707 80.2181 18.7345C80.1239 18.8984 80.0745 19.0843 80.0749 19.2734V29.61C80.0749 29.9988 80.293 30.351 80.6288 30.5433L89.4745 35.6039C89.8011 35.791 90.2 35.8052 90.5288 35.6214L95.8898 32.6247C96.0599 32.5299 96.1749 32.3528 96.1757 32.1582C96.1766 32.0635 96.1522 31.9703 96.1051 31.8882C96.058 31.8061 95.9898 31.7382 95.9077 31.6916L86.937 26.5232C86.7691 26.4269 86.6511 26.2321 86.6511 26.0386V22.8087C86.6511 22.6154 86.7703 22.4383 86.937 22.342L89.7246 20.7268C89.8061 20.6794 89.8986 20.6545 89.9928 20.6545C90.0869 20.6545 90.1794 20.6794 90.2609 20.7268L93.0483 22.342C93.1299 22.3891 93.1977 22.4571 93.2449 22.539C93.292 22.6209 93.3167 22.7138 93.3165 22.8084V25.3567C93.3162 25.4513 93.3409 25.5442 93.388 25.6261C93.435 25.708 93.5028 25.776 93.5845 25.8231C93.7516 25.9201 93.9538 25.9204 94.1204 25.8231L99.4638 22.7012C99.6268 22.6065 99.7621 22.4704 99.8562 22.3066C99.9504 22.1427 99.9999 21.957 100 21.7678V19.2737C100 18.8883 99.7963 18.5339 99.4638 18.3404L90.6004 13.172C90.4374 13.0773 90.2524 13.0279 90.0641 13.0286V13.0283ZM63.4022 20.745C63.4489 20.745 63.5035 20.7565 63.5452 20.7807L66.6011 22.5573C66.6841 22.6054 66.7442 22.6944 66.7442 22.7905V26.3436C66.7442 26.4401 66.6846 26.5289 66.6011 26.5771L63.5452 28.3537C63.5044 28.3771 63.4582 28.3894 63.4112 28.3894C63.3642 28.3894 63.318 28.3771 63.2772 28.3537L60.2216 26.5771C60.1384 26.5287 60.0785 26.4401 60.0785 26.3436V22.7905C60.0785 22.6942 60.1386 22.6059 60.2216 22.5573L63.2772 20.7809C63.3148 20.7575 63.3582 20.7451 63.4024 20.7452V20.745H63.4022Z" fill="white"/>
<path d="M36.7223 12.9747C36.5366 12.9747 36.3528 13.0221 36.1864 13.1184L27.2693 18.2688C26.9358 18.4616 26.7331 18.8337 26.7331 19.2198V29.5563C26.7331 29.9429 26.936 30.2961 27.2693 30.4897L36.1864 35.6578C36.3492 35.7528 36.5342 35.8028 36.7225 35.8028C36.9108 35.8028 37.0957 35.7528 37.2586 35.6578L46.1756 30.4897C46.3389 30.3952 46.4744 30.2592 46.5685 30.0953C46.6626 29.9315 46.712 29.7455 46.7116 29.5563V19.2198C46.7116 18.8332 46.5089 18.4616 46.1756 18.2688L37.2586 13.1184C37.0956 13.0238 36.9106 12.9743 36.7223 12.9747ZM90.0461 22.1988C90.0106 22.1988 89.9711 22.1988 89.939 22.2168L88.2236 23.2217C88.1916 23.2395 88.1648 23.2655 88.146 23.297C88.1272 23.3286 88.1169 23.3645 88.1163 23.4013V25.3751C88.1163 25.4495 88.159 25.5176 88.2236 25.5547L89.939 26.5417C90.0034 26.5791 90.0719 26.5791 90.1355 26.5417L91.8509 25.5545C91.8828 25.5365 91.9095 25.5105 91.9283 25.4791C91.9471 25.4477 91.9574 25.4118 91.9582 25.3751V23.401C91.9574 23.3643 91.9471 23.3285 91.9283 23.2971C91.9095 23.2656 91.8828 23.2396 91.8509 23.2217L90.1355 22.2165C90.1037 22.1978 90.0818 22.1991 90.0461 22.1991V22.1988Z" fill="white"/>
<path d="M128.566 41H125.627L114.922 24.4023H114.812L114.881 25.5098C114.99 27.1686 115.045 28.6087 115.045 29.8301V41H112.721V21.0117H115.633L116.248 21.9824L122.811 32.127L126.297 37.5547H126.406C126.388 37.3359 126.352 36.5566 126.297 35.2168C126.242 33.8678 126.215 32.8926 126.215 32.291V21.0117H128.566V41ZM146.695 33.4668C146.695 35.9186 146.076 37.8327 144.836 39.209C143.596 40.5853 141.883 41.2734 139.695 41.2734C138.337 41.2734 137.134 40.959 136.086 40.3301C135.038 39.6921 134.231 38.7806 133.666 37.5957C133.101 36.4108 132.818 35.0345 132.818 33.4668C132.818 31.0241 133.429 29.1237 134.65 27.7656C135.872 26.3984 137.585 25.7148 139.791 25.7148C141.906 25.7148 143.583 26.4121 144.822 27.8066C146.071 29.1921 146.695 31.0788 146.695 33.4668ZM135.361 33.4668C135.361 35.3535 135.73 36.7891 136.469 37.7734C137.216 38.7487 138.314 39.2363 139.764 39.2363C141.195 39.2363 142.284 38.7487 143.031 37.7734C143.779 36.7891 144.152 35.3535 144.152 33.4668C144.152 31.5801 143.774 30.1628 143.018 29.2148C142.27 28.2578 141.172 27.7793 139.723 27.7793C136.815 27.7793 135.361 29.6751 135.361 33.4668ZM155.924 41.2734C153.973 41.2734 152.46 40.599 151.385 39.25C150.309 37.901 149.771 35.9915 149.771 33.5215C149.771 31.0697 150.309 29.1556 151.385 27.7793C152.469 26.403 153.992 25.7148 155.951 25.7148C157.965 25.7148 159.515 26.4531 160.6 27.9297H160.777C160.75 27.7474 160.714 27.3828 160.668 26.8359C160.622 26.2799 160.6 25.9062 160.6 25.7148V19.7266H163.061V41H161.078L160.709 38.9902H160.6C159.551 40.5124 157.993 41.2734 155.924 41.2734ZM156.32 39.2363C157.815 39.2363 158.904 38.8307 159.588 38.0195C160.281 37.1992 160.627 35.8594 160.627 34V33.5488C160.627 31.4616 160.276 29.9759 159.574 29.0918C158.882 28.1986 157.788 27.752 156.293 27.752C155.026 27.752 154.046 28.2578 153.354 29.2695C152.661 30.2721 152.314 31.7077 152.314 33.5762C152.314 35.4355 152.656 36.8438 153.34 37.8008C154.033 38.7578 155.026 39.2363 156.32 39.2363ZM174.217 41.2734C171.965 41.2734 170.197 40.5944 168.912 39.2363C167.636 37.8691 166.998 35.9915 166.998 33.6035C166.998 31.1973 167.595 29.2832 168.789 27.8613C169.983 26.4303 171.596 25.7148 173.629 25.7148C175.516 25.7148 177.02 26.3255 178.141 27.5469C179.262 28.7591 179.822 30.4043 179.822 32.4824V33.9727H169.541C169.587 35.6771 170.02 36.9714 170.84 37.8555C171.66 38.7396 172.822 39.1816 174.326 39.1816C175.128 39.1816 175.889 39.1133 176.609 38.9766C177.329 38.8307 178.173 38.5527 179.139 38.1426V40.3027C178.309 40.6582 177.53 40.9089 176.801 41.0547C176.072 41.2005 175.21 41.2734 174.217 41.2734ZM173.602 27.7246C172.426 27.7246 171.496 28.1029 170.812 28.8594C170.129 29.6159 169.723 30.6686 169.596 32.0176H177.238C177.22 30.6139 176.896 29.5475 176.268 28.8184C175.639 28.0892 174.75 27.7246 173.602 27.7246ZM183.268 39.4824C183.268 39.1361 183.313 38.8444 183.404 38.6074C183.495 38.3613 183.618 38.1654 183.773 38.0195C183.928 37.8646 184.111 37.7552 184.32 37.6914C184.53 37.6185 184.758 37.582 185.004 37.582C185.241 37.582 185.464 37.6185 185.674 37.6914C185.893 37.7552 186.079 37.8646 186.234 38.0195C186.389 38.1654 186.512 38.3613 186.604 38.6074C186.695 38.8444 186.74 39.1361 186.74 39.4824C186.74 39.8197 186.695 40.1113 186.604 40.3574C186.512 40.5944 186.389 40.7904 186.234 40.9453C186.079 41.1003 185.893 41.2142 185.674 41.2871C185.464 41.36 185.241 41.3965 185.004 41.3965C184.758 41.3965 184.53 41.36 184.32 41.2871C184.111 41.2142 183.928 41.1003 183.773 40.9453C183.618 40.7904 183.495 40.5944 183.404 40.3574C183.313 40.1113 183.268 39.8197 183.268 39.4824ZM189.393 47.7266C188.536 47.7266 187.816 47.6126 187.232 47.3848V45.4023C187.861 45.5846 188.481 45.6758 189.092 45.6758C189.803 45.6758 190.322 45.4798 190.65 45.0879C190.988 44.7051 191.156 44.1172 191.156 43.3242V25.9883H193.617V43.2422C193.617 44.737 193.257 45.8581 192.537 46.6055C191.826 47.3529 190.778 47.7266 189.393 47.7266ZM190.965 21.9277C190.965 21.3809 191.102 20.9844 191.375 20.7383C191.658 20.4922 192.004 20.3691 192.414 20.3691C192.797 20.3691 193.13 20.4922 193.412 20.7383C193.704 20.9844 193.85 21.3809 193.85 21.9277C193.85 22.4655 193.704 22.862 193.412 23.1172C193.13 23.3724 192.797 23.5 192.414 23.5C192.004 23.5 191.658 23.3724 191.375 23.1172C191.102 22.862 190.965 22.4655 190.965 21.9277ZM208.15 36.8574C208.15 38.2611 207.626 39.3503 206.578 40.125C205.53 40.8906 204.058 41.2734 202.162 41.2734C200.184 41.2734 198.612 40.959 197.445 40.3301V38.0879C199.095 38.89 200.686 39.291 202.217 39.291C203.456 39.291 204.359 39.0905 204.924 38.6895C205.489 38.2884 205.771 37.7507 205.771 37.0762C205.771 36.4837 205.498 35.9824 204.951 35.5723C204.413 35.1621 203.452 34.6927 202.066 34.1641C200.654 33.6172 199.66 33.1523 199.086 32.7695C198.512 32.3776 198.088 31.9401 197.814 31.457C197.55 30.974 197.418 30.3861 197.418 29.6934C197.418 28.4629 197.919 27.4922 198.922 26.7812C199.924 26.0703 201.301 25.7148 203.051 25.7148C204.755 25.7148 206.35 26.0521 207.836 26.7266L207.002 28.6816C205.48 28.0436 204.108 27.7246 202.887 27.7246C201.866 27.7246 201.091 27.8887 200.562 28.2168C200.034 28.5358 199.77 28.9779 199.77 29.543C199.77 30.0898 199.997 30.5456 200.453 30.9102C200.909 31.2656 201.971 31.7624 203.639 32.4004C204.887 32.8652 205.808 33.2982 206.4 33.6992C207.002 34.1003 207.444 34.5514 207.727 35.0527C208.009 35.554 208.15 36.1556 208.15 36.8574Z" fill="white"/>
</svg>
