<svg width="204" height="50" viewBox="0 0 204 50" fill="none" xmlns="http://www.w3.org/2000/svg">
<rect x="2" y="2" width="46.254" height="46" stroke="white" stroke-width="4"/>
<path d="M15.3256 23.9649H16.7856C18.1502 23.9649 19.1713 23.6991 19.8488 23.1674C20.5263 22.6262 20.8651 21.8429 20.8651 20.8175C20.8651 19.7827 20.5788 19.0184 20.0062 18.5247C19.4432 18.031 18.5558 17.7841 17.3439 17.7841H15.3256V23.9649ZM25.3453 20.6609C25.3453 22.9016 24.6392 24.6153 23.2269 25.8021C21.8241 26.9889 19.8249 27.5823 17.2294 27.5823H15.3256V34.9879H10.8883V14.1667H17.5729C20.1112 14.1667 22.0388 14.7127 23.3557 15.8045C24.6821 16.8869 25.3453 18.5057 25.3453 20.6609Z" fill="white"/>
<path d="M39.2378 30.2597C39.2378 31.8927 38.6653 33.1365 37.5201 33.991C36.3846 34.8455 34.6812 35.2727 32.4101 35.2727C31.2459 35.2727 30.2535 35.192 29.4328 35.0306C28.6121 34.8787 27.844 34.6508 27.1283 34.347V30.7581C27.9394 31.1379 28.8507 31.456 29.8622 31.7123C30.8833 31.9687 31.7803 32.0968 32.5532 32.0968C34.1373 32.0968 34.9293 31.6411 34.9293 30.7297C34.9293 30.3879 34.8244 30.1125 34.6144 29.9036C34.4045 29.6853 34.0419 29.4432 33.5266 29.1773C33.0113 28.902 32.3242 28.5839 31.4654 28.2231C30.2344 27.7104 29.3278 27.2357 28.7457 26.799C28.1732 26.3622 27.7533 25.8638 27.4861 25.3036C27.2285 24.734 27.0996 24.0361 27.0996 23.2101C27.0996 21.7955 27.6483 20.7036 28.7457 19.9346C29.8527 19.156 31.4177 18.7668 33.4407 18.7668C35.3683 18.7668 37.2434 19.1845 39.066 20.02L37.7492 23.1532C36.9476 22.8114 36.1985 22.5313 35.5019 22.3129C34.8053 22.0945 34.0944 21.9854 33.3691 21.9854C32.0809 21.9854 31.4367 22.3319 31.4367 23.025C31.4367 23.4143 31.6419 23.7513 32.0522 24.0361C32.4721 24.321 33.3834 24.7435 34.7862 25.3036C36.0363 25.8068 36.9524 26.2768 37.5345 26.7135C38.1166 27.1503 38.546 27.6535 38.8227 28.2231C39.0994 28.7928 39.2378 29.4717 39.2378 30.2597Z" fill="white"/>
<path d="M75.5176 21.8906C75.5176 23.9323 74.8203 25.5 73.4258 26.5938C72.0312 27.6784 70.0671 28.2207 67.5332 28.2207H65.2363V36H62.7207V16.0117H68.0117C73.0156 16.0117 75.5176 17.9714 75.5176 21.8906ZM65.2363 26.0605H67.2461C69.2331 26.0605 70.6732 25.7415 71.5664 25.1035C72.4596 24.4564 72.9062 23.4219 72.9062 22C72.9062 20.7148 72.4915 19.7533 71.6621 19.1152C70.8327 18.4772 69.5384 18.1582 67.7793 18.1582H65.2363V26.0605ZM89.5586 36V26.4023C89.5586 25.181 89.2852 24.2741 88.7383 23.6816C88.2005 23.0801 87.3529 22.7793 86.1953 22.7793C84.6732 22.7793 83.5566 23.2031 82.8457 24.0508C82.1439 24.8984 81.793 26.2975 81.793 28.248V36H79.332V14.7266H81.793V20.9609C81.793 21.7812 81.7474 22.4831 81.6562 23.0664H81.8203C82.2669 22.3372 82.9004 21.7676 83.7207 21.3574C84.541 20.9473 85.4661 20.7422 86.4961 20.7422C88.319 20.7422 89.6908 21.1797 90.6113 22.0547C91.5319 22.9206 91.9922 24.3105 91.9922 26.2246V36H89.5586ZM109.684 28.4668C109.684 30.9186 109.064 32.8327 107.824 34.209C106.585 35.5853 104.871 36.2734 102.684 36.2734C101.326 36.2734 100.122 35.959 99.0742 35.3301C98.026 34.6921 97.2194 33.7806 96.6543 32.5957C96.0892 31.4108 95.8066 30.0345 95.8066 28.4668C95.8066 26.0241 96.4173 24.1237 97.6387 22.7656C98.86 21.3984 100.574 20.7148 102.779 20.7148C104.894 20.7148 106.571 21.4121 107.811 22.8066C109.059 24.1921 109.684 26.0788 109.684 28.4668ZM98.3496 28.4668C98.3496 30.3535 98.7188 31.7891 99.457 32.7734C100.204 33.7487 101.303 34.2363 102.752 34.2363C104.183 34.2363 105.272 33.7487 106.02 32.7734C106.767 31.7891 107.141 30.3535 107.141 28.4668C107.141 26.5801 106.762 25.1628 106.006 24.2148C105.258 23.2578 104.16 22.7793 102.711 22.7793C99.8034 22.7793 98.3496 24.6751 98.3496 28.4668ZM118.611 34.2637C118.93 34.2637 119.304 34.2318 119.732 34.168C120.161 34.1042 120.484 34.0312 120.703 33.9492V35.8359C120.475 35.9362 120.12 36.0319 119.637 36.123C119.163 36.2233 118.68 36.2734 118.188 36.2734C115.253 36.2734 113.785 34.7285 113.785 31.6387V22.9023H111.666V21.7266L113.812 20.7422L114.797 17.543H116.26V20.9883H120.594V22.9023H116.26V31.5703C116.26 32.4362 116.465 33.1016 116.875 33.5664C117.294 34.0312 117.873 34.2637 118.611 34.2637ZM136.754 28.4668C136.754 30.9186 136.134 32.8327 134.895 34.209C133.655 35.5853 131.941 36.2734 129.754 36.2734C128.396 36.2734 127.193 35.959 126.145 35.3301C125.096 34.6921 124.29 33.7806 123.725 32.5957C123.16 31.4108 122.877 30.0345 122.877 28.4668C122.877 26.0241 123.488 24.1237 124.709 22.7656C125.93 21.3984 127.644 20.7148 129.85 20.7148C131.964 20.7148 133.641 21.4121 134.881 22.8066C136.13 24.1921 136.754 26.0788 136.754 28.4668ZM125.42 28.4668C125.42 30.3535 125.789 31.7891 126.527 32.7734C127.275 33.7487 128.373 34.2363 129.822 34.2363C131.253 34.2363 132.342 33.7487 133.09 32.7734C133.837 31.7891 134.211 30.3535 134.211 28.4668C134.211 26.5801 133.833 25.1628 133.076 24.2148C132.329 23.2578 131.23 22.7793 129.781 22.7793C126.874 22.7793 125.42 24.6751 125.42 28.4668ZM150.439 31.8574C150.439 33.2611 149.915 34.3503 148.867 35.125C147.819 35.8906 146.347 36.2734 144.451 36.2734C142.473 36.2734 140.901 35.959 139.734 35.3301V33.0879C141.384 33.89 142.975 34.291 144.506 34.291C145.745 34.291 146.648 34.0905 147.213 33.6895C147.778 33.2884 148.061 32.7507 148.061 32.0762C148.061 31.4837 147.787 30.9824 147.24 30.5723C146.702 30.1621 145.741 29.6927 144.355 29.1641C142.943 28.6172 141.949 28.1523 141.375 27.7695C140.801 27.3776 140.377 26.9401 140.104 26.457C139.839 25.974 139.707 25.3861 139.707 24.6934C139.707 23.4629 140.208 22.4922 141.211 21.7812C142.214 21.0703 143.59 20.7148 145.34 20.7148C147.044 20.7148 148.639 21.0521 150.125 21.7266L149.291 23.6816C147.769 23.0436 146.397 22.7246 145.176 22.7246C144.155 22.7246 143.38 22.8887 142.852 23.2168C142.323 23.5358 142.059 23.9779 142.059 24.543C142.059 25.0898 142.286 25.5456 142.742 25.9102C143.198 26.2656 144.26 26.7624 145.928 27.4004C147.176 27.8652 148.097 28.2982 148.689 28.6992C149.291 29.1003 149.733 29.5514 150.016 30.0527C150.298 30.554 150.439 31.1556 150.439 31.8574ZM164.316 36V26.4023C164.316 25.181 164.043 24.2741 163.496 23.6816C162.958 23.0801 162.111 22.7793 160.953 22.7793C159.431 22.7793 158.314 23.2031 157.604 24.0508C156.902 24.8984 156.551 26.2975 156.551 28.248V36H154.09V14.7266H156.551V20.9609C156.551 21.7812 156.505 22.4831 156.414 23.0664H156.578C157.025 22.3372 157.658 21.7676 158.479 21.3574C159.299 20.9473 160.224 20.7422 161.254 20.7422C163.077 20.7422 164.449 21.1797 165.369 22.0547C166.29 22.9206 166.75 24.3105 166.75 26.2246V36H164.316ZM184.441 28.4668C184.441 30.9186 183.822 32.8327 182.582 34.209C181.342 35.5853 179.629 36.2734 177.441 36.2734C176.083 36.2734 174.88 35.959 173.832 35.3301C172.784 34.6921 171.977 33.7806 171.412 32.5957C170.847 31.4108 170.564 30.0345 170.564 28.4668C170.564 26.0241 171.175 24.1237 172.396 22.7656C173.618 21.3984 175.331 20.7148 177.537 20.7148C179.652 20.7148 181.329 21.4121 182.568 22.8066C183.817 24.1921 184.441 26.0788 184.441 28.4668ZM173.107 28.4668C173.107 30.3535 173.477 31.7891 174.215 32.7734C174.962 33.7487 176.061 34.2363 177.51 34.2363C178.941 34.2363 180.03 33.7487 180.777 32.7734C181.525 31.7891 181.898 30.3535 181.898 28.4668C181.898 26.5801 181.52 25.1628 180.764 24.2148C180.016 23.2578 178.918 22.7793 177.469 22.7793C174.561 22.7793 173.107 24.6751 173.107 28.4668ZM195.461 36.2734C193.447 36.2734 191.897 35.5488 190.812 34.0996H190.648L190.703 34.6602C190.776 35.3711 190.812 36.0046 190.812 36.5605V42.7266H188.352V20.9883H190.375L190.703 23.0391H190.812C191.396 22.2188 192.07 21.6263 192.836 21.2617C193.602 20.8971 194.486 20.7148 195.488 20.7148C197.439 20.7148 198.952 21.3939 200.027 22.752C201.112 24.1009 201.654 26.0059 201.654 28.4668C201.654 30.9186 201.112 32.8327 200.027 34.209C198.943 35.5853 197.421 36.2734 195.461 36.2734ZM195.051 22.7793C193.565 22.7793 192.49 23.1986 191.824 24.0371C191.168 24.8757 190.831 26.1927 190.812 27.9883V28.4668C190.812 30.4993 191.15 31.9714 191.824 32.8828C192.499 33.7852 193.592 34.2363 195.105 34.2363C196.363 34.2363 197.343 33.7259 198.045 32.7051C198.756 31.6842 199.111 30.2624 199.111 28.4395C199.111 26.6074 198.756 25.2083 198.045 24.2422C197.343 23.2669 196.345 22.7793 195.051 22.7793Z" fill="white"/>
</svg>
