<svg width="393" height="65" viewBox="0 0 393 65" fill="none" xmlns="http://www.w3.org/2000/svg">
<g filter="url(#filter0_d)">
<path d="M19.352 4.896C25.112 4.896 29.5707 6.32533 32.728 9.184C35.8853 12 37.464 15.8613 37.464 20.768C37.464 23.584 36.9093 26.2293 35.8 28.704C34.7333 31.136 32.9627 33.1413 30.488 34.72C28.056 36.2987 24.8987 37.088 21.016 37.088H14.36V52H5.08V4.896H19.352ZM20.952 28.064C22.7013 28.064 24.1093 27.68 25.176 26.912C26.2427 26.1013 27.0107 25.1627 27.48 24.096C27.9493 23.0293 28.184 22.0053 28.184 21.024C28.184 19.36 27.6933 17.76 26.712 16.224C25.7307 14.6453 23.832 13.856 21.016 13.856H14.36V28.064H20.952ZM42.8875 28.512C42.8875 24.2453 43.9542 20.256 46.0875 16.544C48.2635 12.832 51.1862 9.888 54.8555 7.712C58.5675 5.49333 62.5782 4.384 66.8875 4.384C71.1968 4.384 75.1862 5.49333 78.8555 7.712C82.5675 9.888 85.5115 12.832 87.6875 16.544C89.9062 20.256 91.0155 24.2453 91.0155 28.512C91.0155 32.864 89.9062 36.8747 87.6875 40.544C85.5115 44.2133 82.5675 47.136 78.8555 49.312C75.1862 51.4453 71.1968 52.512 66.8875 52.512C62.5355 52.512 58.5248 51.4453 54.8555 49.312C51.1862 47.136 48.2635 44.2133 46.0875 40.544C43.9542 36.8747 42.8875 32.864 42.8875 28.512ZM52.4875 28.512C52.4875 31.2427 53.1275 33.76 54.4075 36.064C55.7302 38.368 57.5008 40.2027 59.7195 41.568C61.9808 42.8907 64.4768 43.552 67.2075 43.552C69.8528 43.552 72.2635 42.8907 74.4395 41.568C76.6155 40.2027 78.3222 38.3893 79.5595 36.128C80.7968 33.824 81.4155 31.2853 81.4155 28.512C81.4155 25.696 80.7755 23.136 79.4955 20.832C78.2155 18.528 76.4662 16.7147 74.2475 15.392C72.0715 14.0267 69.6395 13.344 66.9515 13.344C64.2635 13.344 61.8102 14.0267 59.5915 15.392C57.4155 16.7147 55.6875 18.528 54.4075 20.832C53.1275 23.136 52.4875 25.696 52.4875 28.512ZM125.676 52L115.756 37.024H109.548V52H100.268V4.896H114.54C120.385 4.896 124.908 6.32533 128.108 9.184C131.35 12 132.972 15.8613 132.972 20.768C132.972 23.6693 132.353 26.4 131.116 28.96C129.921 31.4773 128.065 33.4613 125.548 34.912L136.492 52H125.676ZM109.548 28.064H116.14C118.657 28.064 120.492 27.3387 121.644 25.888C122.796 24.3947 123.372 22.7947 123.372 21.088C123.372 19.3813 122.881 17.76 121.9 16.224C120.918 14.6453 119.02 13.856 116.204 13.856H109.548V28.064ZM171.749 4.896V13.856H160.293V52H151.013V13.856H140.005V4.896H171.749ZM210.145 4.896V13.856H189.985V24.544H207.457V33.504H189.985V52H180.705V4.896H210.145ZM216.2 28.512C216.2 24.2453 217.267 20.256 219.4 16.544C221.576 12.832 224.499 9.888 228.168 7.712C231.88 5.49333 235.891 4.384 240.2 4.384C244.509 4.384 248.499 5.49333 252.168 7.712C255.88 9.888 258.824 12.832 261 16.544C263.219 20.256 264.328 24.2453 264.328 28.512C264.328 32.864 263.219 36.8747 261 40.544C258.824 44.2133 255.88 47.136 252.168 49.312C248.499 51.4453 244.509 52.512 240.2 52.512C235.848 52.512 231.837 51.4453 228.168 49.312C224.499 47.136 221.576 44.2133 219.4 40.544C217.267 36.8747 216.2 32.864 216.2 28.512ZM225.8 28.512C225.8 31.2427 226.44 33.76 227.72 36.064C229.043 38.368 230.813 40.2027 233.032 41.568C235.293 42.8907 237.789 43.552 240.52 43.552C243.165 43.552 245.576 42.8907 247.752 41.568C249.928 40.2027 251.635 38.3893 252.872 36.128C254.109 33.824 254.728 31.2853 254.728 28.512C254.728 25.696 254.088 23.136 252.808 20.832C251.528 18.528 249.779 16.7147 247.56 15.392C245.384 14.0267 242.952 13.344 240.264 13.344C237.576 13.344 235.123 14.0267 232.904 15.392C230.728 16.7147 229 18.528 227.72 20.832C226.44 23.136 225.8 25.696 225.8 28.512ZM282.86 4.896V43.04H305.004V52H273.58V4.896H282.86ZM323.86 4.896V52H314.58V4.896H323.86ZM333.138 28.512C333.138 24.2453 334.204 20.256 336.338 16.544C338.514 12.832 341.436 9.888 345.106 7.712C348.818 5.49333 352.828 4.384 357.138 4.384C361.447 4.384 365.436 5.49333 369.106 7.712C372.818 9.888 375.762 12.832 377.938 16.544C380.156 20.256 381.266 24.2453 381.266 28.512C381.266 32.864 380.156 36.8747 377.938 40.544C375.762 44.2133 372.818 47.136 369.106 49.312C365.436 51.4453 361.447 52.512 357.138 52.512C352.786 52.512 348.775 51.4453 345.106 49.312C341.436 47.136 338.514 44.2133 336.338 40.544C334.204 36.8747 333.138 32.864 333.138 28.512ZM342.738 28.512C342.738 31.2427 343.378 33.76 344.658 36.064C345.98 38.368 347.751 40.2027 349.97 41.568C352.231 42.8907 354.727 43.552 357.458 43.552C360.103 43.552 362.514 42.8907 364.69 41.568C366.866 40.2027 368.572 38.3893 369.81 36.128C371.047 33.824 371.666 31.2853 371.666 28.512C371.666 25.696 371.026 23.136 369.746 20.832C368.466 18.528 366.716 16.7147 364.498 15.392C362.322 14.0267 359.89 13.344 357.202 13.344C354.514 13.344 352.06 14.0267 349.842 15.392C347.666 16.7147 345.938 18.528 344.658 20.832C343.378 23.136 342.738 25.696 342.738 28.512Z" fill="#FA3140"/>
</g>
<defs>
<filter id="filter0_d" x="0.0800018" y="0.384003" width="392.186" height="64.128" filterUnits="userSpaceOnUse" color-interpolation-filters="sRGB">
<feFlood flood-opacity="0" result="BackgroundImageFix"/>
<feColorMatrix in="SourceAlpha" type="matrix" values="0 0 0 0 0 0 0 0 0 0 0 0 0 0 0 0 0 0 127 0"/>
<feOffset dx="3" dy="4"/>
<feGaussianBlur stdDeviation="4"/>
<feColorMatrix type="matrix" values="0 0 0 0 0 0 0 0 0 0 0 0 0 0 0 0 0 0 0.25 0"/>
<feBlend mode="normal" in2="BackgroundImageFix" result="effect1_dropShadow"/>
<feBlend mode="normal" in="SourceGraphic" in2="effect1_dropShadow" result="shape"/>
</filter>
</defs>
</svg>
