<svg width="137" height="52" viewBox="0 0 137 52" fill="none" xmlns="http://www.w3.org/2000/svg">
<path d="M60.2594 29.8599C57.8119 29.8734 55.6925 30.4561 53.9151 31.3233C53.2587 30.036 52.6024 28.9113 52.493 28.0712C52.37 27.0956 52.2196 26.4993 52.37 25.334C52.5204 24.1686 53.2041 22.5155 53.2041 22.38C53.1904 22.258 53.0536 21.6618 51.6453 21.6482C50.237 21.6347 49.0201 21.9193 48.8834 22.2851C48.7466 22.651 48.4732 23.4911 48.2954 24.3583C48.0493 25.6321 45.4788 30.1444 44.0158 32.5158C43.5372 31.5943 43.127 30.7813 43.045 30.1309C42.9219 29.1552 42.7715 28.559 42.9219 27.3937C43.0723 26.2283 43.756 24.5752 43.756 24.4396C43.7423 24.3177 43.6056 23.7215 42.1972 23.7079C40.7889 23.6944 39.572 23.9789 39.4353 24.3448C39.2985 24.7107 39.1481 25.5779 38.8473 26.418C38.5602 27.2582 35.1419 34.7923 34.2532 36.7571C33.802 37.7598 33.4054 38.5593 33.1183 39.1013C32.8312 39.6433 33.1046 39.142 33.0773 39.1962C32.8312 39.6569 32.6944 39.9144 32.6944 39.9144V39.9279C32.503 40.2667 32.2979 40.5919 32.2022 40.5919C32.1339 40.5919 31.9971 39.684 32.2296 38.4373C32.7355 35.8221 33.966 31.7434 33.9524 31.5943C33.9524 31.5266 34.1848 30.8084 33.1593 30.4425C32.1612 30.0767 31.8057 30.6864 31.7237 30.6864C31.6416 30.6864 31.5733 30.9033 31.5733 30.9033C31.5733 30.9033 32.6808 26.3096 29.4539 26.3096C27.4303 26.3096 24.641 28.4913 23.26 30.4832C22.385 30.9575 20.5254 31.9602 18.5565 33.0307C17.8045 33.4372 17.0251 33.8708 16.2868 34.2638L16.1364 34.1012C12.2259 29.9683 4.99281 27.0414 5.29362 21.4856C5.403 19.4666 6.114 14.1412 19.1855 7.6912C29.8915 2.40649 38.4645 3.8564 39.9548 7.08142C42.0742 11.6886 35.3744 20.2525 24.2445 21.4856C20.0058 21.9599 17.7771 20.3338 17.2165 19.7241C16.6286 19.0872 16.5466 19.0601 16.3278 19.182C15.9723 19.3718 16.1911 19.9409 16.3278 20.2796C16.6559 21.1333 18.0232 22.651 20.3477 23.4098C22.385 24.0738 27.3619 24.4396 33.3781 22.1361C40.1189 19.5479 45.3831 12.3661 43.838 6.36325C42.2656 0.251957 32.0381 -1.75352 22.3713 1.64766C16.6149 3.68024 10.38 6.85107 5.89523 11.0111C0.562738 15.9435 -0.284993 20.2525 0.0705072 22.0412C1.31476 28.4235 10.1886 32.5835 13.7436 35.6595C13.5658 35.7543 13.4017 35.8492 13.2513 35.9305C11.4738 36.7977 4.70568 40.3073 3.01022 44.0202C1.09599 48.2208 3.31102 51.2426 4.78772 51.6491C9.35452 52.9093 14.0307 50.6464 16.5602 46.92C19.0761 43.1936 18.7753 38.356 17.6131 36.1473L17.572 36.066L18.9667 35.253C19.8691 34.7245 20.7579 34.2367 21.5372 33.8166C21.0997 34.9955 20.7852 36.3912 20.6211 38.4238C20.4297 40.8087 21.4142 43.8982 22.7131 45.1178C23.2874 45.6462 23.971 45.6598 24.3949 45.6598C25.8989 45.6598 26.5826 44.4267 27.3346 42.9497C28.2644 41.1475 29.0848 39.0607 29.0848 39.0607C29.0848 39.0607 28.0593 44.7112 30.8623 44.7112C31.8877 44.7112 32.9132 43.3968 33.3781 42.7193V42.7329C33.3781 42.7329 33.4054 42.6922 33.4601 42.5974C33.5695 42.4348 33.6242 42.3399 33.6242 42.3399V42.3128C34.0344 41.6082 34.9505 39.9957 36.3178 37.3262C38.0816 33.8844 39.7771 29.5753 39.7771 29.5753C39.7771 29.5753 39.9412 30.6322 40.4471 32.3667C40.7479 33.3965 41.4042 34.5212 41.9101 35.6188C41.4999 36.188 41.2538 36.5132 41.2538 36.5132L41.2675 36.5267C40.9393 36.9603 40.5701 37.4211 40.1873 37.8818C38.7926 39.5349 37.1245 41.4185 36.9058 41.9605C36.646 42.5974 36.7007 43.0716 37.2066 43.451C37.5757 43.7221 38.232 43.7763 38.9294 43.7221C40.1873 43.6408 41.0624 43.3291 41.4999 43.1394C42.1836 42.8955 42.9629 42.5296 43.7149 41.9876C45.0822 40.9848 45.9163 39.562 45.8343 37.665C45.7932 36.6216 45.4514 35.5917 45.0276 34.6161C45.1506 34.4399 45.2737 34.2638 45.3967 34.0741C47.5571 30.9439 49.2252 27.5021 49.2252 27.5021C49.2252 27.5021 49.3893 28.559 49.8952 30.2935C50.155 31.1743 50.6745 32.1363 51.1394 33.0849C49.1158 34.7245 47.8442 36.6216 47.4067 37.8682C46.6 40.1718 47.2289 41.2152 48.4185 41.4591C48.9517 41.5675 49.7174 41.3236 50.2917 41.0797C51.0027 40.8493 51.8641 40.4564 52.6571 39.8737C54.0244 38.871 55.337 37.4753 55.2687 35.5917C55.2277 34.7245 54.9952 33.8708 54.6807 33.0578C56.4035 32.3532 58.6323 31.9466 61.4626 32.2854C67.5471 32.99 68.7503 36.7571 68.5179 38.3289C68.2854 39.9008 67.0138 40.768 66.59 41.039C66.1661 41.2965 66.0294 41.3914 66.0704 41.5811C66.1251 41.8656 66.3165 41.8521 66.6857 41.7979C67.1916 41.7166 69.8852 40.5106 69.9946 37.6108C70.1587 33.8844 66.59 29.8192 60.2594 29.8599ZM13.3334 45.5378C11.3234 47.7195 8.49312 48.546 7.28989 47.8414C5.99095 47.0961 6.49685 43.8847 8.97167 41.5675C10.4757 40.1583 12.431 38.8574 13.7162 38.0579C14.0034 37.8818 14.4409 37.6243 14.9605 37.3127C15.0425 37.2584 15.0972 37.2313 15.0972 37.2313C15.1929 37.1771 15.3023 37.1094 15.4117 37.0416C16.3278 40.348 15.4527 43.2478 13.3334 45.5378ZM28.0319 35.6324C27.3346 37.3262 25.8579 41.6759 24.9692 41.432C24.2035 41.2288 23.7386 37.936 24.8188 34.6838C25.3657 33.0442 26.5279 31.093 27.2115 30.3341C28.3191 29.1146 29.5223 28.7081 29.8231 29.2094C30.1786 29.8599 28.4695 34.5754 28.0319 35.6324ZM40.1599 41.3778C39.8591 41.5269 39.5857 41.6353 39.4626 41.554C39.3669 41.4998 39.5857 41.2965 39.5857 41.2965C39.5857 41.2965 41.1034 39.684 41.705 38.9387C42.0468 38.5051 42.457 38.0037 42.8946 37.4346V37.5972C42.8946 39.5485 41.0077 40.8493 40.1599 41.3778ZM49.5123 39.2639C49.2936 39.1013 49.3209 38.6 50.0592 37.0281C50.3464 36.4048 51.0027 35.3614 52.1376 34.3722C52.2743 34.7787 52.3563 35.1717 52.3426 35.5375C52.329 37.9766 50.5788 38.8845 49.5123 39.2639Z" fill="white"/>
<path d="M93.0547 32.6543C93.0547 34.3952 92.4258 35.7669 91.168 36.7695C89.9102 37.7721 88.1602 38.2734 85.918 38.2734C83.5482 38.2734 81.7161 37.959 80.4219 37.3301V34.9238C81.2695 35.2884 82.1947 35.5755 83.1973 35.7852C84.209 35.9948 85.1523 36.0996 86.0273 36.0996C87.5221 36.0996 88.6478 35.8125 89.4043 35.2383C90.1608 34.6641 90.5391 33.8757 90.5391 32.873C90.5391 32.2077 90.4023 31.6608 90.1289 31.2324C89.8555 30.804 89.3952 30.403 88.748 30.0293C88.11 29.6556 87.1393 29.2318 85.8359 28.7578C83.9857 28.0833 82.6641 27.2904 81.8711 26.3789C81.0781 25.4583 80.6816 24.2734 80.6816 22.8242C80.6816 21.2656 81.265 20.026 82.4316 19.1055C83.6074 18.1849 85.1523 17.7246 87.0664 17.7246C89.0625 17.7246 90.8991 18.0983 92.5762 18.8457L91.7969 21.0059C90.0833 20.2949 88.4883 19.9395 87.0117 19.9395C85.8268 19.9395 84.8971 20.1947 84.2227 20.7051C83.5573 21.2155 83.2246 21.931 83.2246 22.8516C83.2246 23.5078 83.3522 24.0547 83.6074 24.4922C83.8717 24.9206 84.291 25.3125 84.8652 25.668C85.4486 26.0234 86.36 26.429 87.5996 26.8848C89.0853 27.4316 90.1927 27.9648 90.9219 28.4844C91.651 28.9948 92.1888 29.5872 92.5352 30.2617C92.8815 30.9271 93.0547 31.7246 93.0547 32.6543ZM106.016 38L105.537 35.8672H105.428C104.68 36.806 103.933 37.444 103.186 37.7812C102.447 38.1094 101.513 38.2734 100.383 38.2734C98.9062 38.2734 97.7487 37.8861 96.9102 37.1113C96.0716 36.3366 95.6523 35.2428 95.6523 33.8301C95.6523 30.7858 98.054 29.1908 102.857 29.0449L105.4 28.9492V28.0605C105.4 26.9212 105.154 26.0827 104.662 25.5449C104.17 24.998 103.382 24.7246 102.297 24.7246C101.504 24.7246 100.752 24.8431 100.041 25.0801C99.3392 25.3171 98.6784 25.5814 98.0586 25.873L97.3066 24.0273C98.0632 23.6263 98.888 23.3118 99.7812 23.084C100.674 22.8561 101.559 22.7422 102.434 22.7422C104.247 22.7422 105.596 23.1432 106.48 23.9453C107.365 24.7474 107.807 26.0234 107.807 27.7734V38H106.016ZM100.943 36.291C102.32 36.291 103.4 35.9219 104.184 35.1836C104.977 34.4362 105.373 33.3789 105.373 32.0117V30.6582L103.158 30.7539C101.436 30.8177 100.178 31.0911 99.3848 31.5742C98.6009 32.0573 98.209 32.8184 98.209 33.8574C98.209 34.6413 98.446 35.2428 98.9199 35.6621C99.403 36.0814 100.077 36.291 100.943 36.291ZM122.244 33.8574C122.244 35.2611 121.72 36.3503 120.672 37.125C119.624 37.8906 118.152 38.2734 116.256 38.2734C114.278 38.2734 112.706 37.959 111.539 37.3301V35.0879C113.189 35.89 114.779 36.291 116.311 36.291C117.55 36.291 118.452 36.0905 119.018 35.6895C119.583 35.2884 119.865 34.7507 119.865 34.0762C119.865 33.4837 119.592 32.9824 119.045 32.5723C118.507 32.1621 117.546 31.6927 116.16 31.1641C114.747 30.6172 113.754 30.1523 113.18 29.7695C112.605 29.3776 112.182 28.9401 111.908 28.457C111.644 27.974 111.512 27.3861 111.512 26.6934C111.512 25.4629 112.013 24.4922 113.016 23.7812C114.018 23.0703 115.395 22.7148 117.145 22.7148C118.849 22.7148 120.444 23.0521 121.93 23.7266L121.096 25.6816C119.574 25.0436 118.202 24.7246 116.98 24.7246C115.96 24.7246 115.185 24.8887 114.656 25.2168C114.128 25.5358 113.863 25.9779 113.863 26.543C113.863 27.0898 114.091 27.5456 114.547 27.9102C115.003 28.2656 116.064 28.7624 117.732 29.4004C118.981 29.8652 119.902 30.2982 120.494 30.6992C121.096 31.1003 121.538 31.5514 121.82 32.0527C122.103 32.554 122.244 33.1556 122.244 33.8574ZM135.67 33.8574C135.67 35.2611 135.146 36.3503 134.098 37.125C133.049 37.8906 131.577 38.2734 129.682 38.2734C127.704 38.2734 126.132 37.959 124.965 37.3301V35.0879C126.615 35.89 128.205 36.291 129.736 36.291C130.976 36.291 131.878 36.0905 132.443 35.6895C133.008 35.2884 133.291 34.7507 133.291 34.0762C133.291 33.4837 133.018 32.9824 132.471 32.5723C131.933 32.1621 130.971 31.6927 129.586 31.1641C128.173 30.6172 127.18 30.1523 126.605 29.7695C126.031 29.3776 125.607 28.9401 125.334 28.457C125.07 27.974 124.938 27.3861 124.938 26.6934C124.938 25.4629 125.439 24.4922 126.441 23.7812C127.444 23.0703 128.82 22.7148 130.57 22.7148C132.275 22.7148 133.87 23.0521 135.355 23.7266L134.521 25.6816C132.999 25.0436 131.628 24.7246 130.406 24.7246C129.385 24.7246 128.611 24.8887 128.082 25.2168C127.553 25.5358 127.289 25.9779 127.289 26.543C127.289 27.0898 127.517 27.5456 127.973 27.9102C128.428 28.2656 129.49 28.7624 131.158 29.4004C132.407 29.8652 133.327 30.2982 133.92 30.6992C134.521 31.1003 134.964 31.5514 135.246 32.0527C135.529 32.554 135.67 33.1556 135.67 33.8574Z" fill="white"/>
</svg>
