<svg width="152" height="50" viewBox="0 0 152 50" fill="none" xmlns="http://www.w3.org/2000/svg">
<path fill-rule="evenodd" clip-rule="evenodd" d="M25.9962 0.159733L27.5 0H27.5001L29.0038 0.159708L42.9999 1.64634L43.7775 16.2591L43.861 17.8289L43.8612 17.8292L43.861 17.8292L42.504 17.8292H12.4961H11.1389L11.2224 16.2591L12.0002 1.64636L25.9962 0.159733ZM0.741522 16.8292L12.0001 1.64636L11.9038 3.45485L11.1388 17.8292H1.24493L0 17.8292L0.741522 16.8292ZM5.54345e-05 17.8293L0.854818 18.8293L8.2555 27.4869L24.7302 46.7596L27.5 49.9998L26.9391 48.8969L27.5001 49.9998L27.5002 49.9997L30.2698 46.7596L54.145 18.8293L54.9998 17.8293H53.6842H43.8613H43.861H42.7394H12.2608H11.1389H11.1388H1.31557H5.54345e-05ZM44.0788 3.10108L54.2583 16.8292L54.9998 17.8292H53.7549H43.8612L43.0962 3.45487L43 1.64635L43.0001 1.64636L44.0788 3.10108ZM12.9534 2.55073L12.2855 15.1007L24.9738 1.27396L12.9534 2.55073ZM22.7978 42.9601L10.5255 18.8293H2.17038L22.7978 42.9601ZM32.2021 42.9601L52.8294 18.8293H44.4743L32.2021 42.9601ZM42.2308 18.8293L27.5001 47.7939L12.7693 18.8293H42.2308ZM30.0263 1.27392L42.0466 2.55053L42.7144 15.1007L30.0263 1.27392ZM44.1751 4.90981L44.8094 16.8292H53.0134L44.1751 4.90981ZM10.825 4.90976L10.1906 16.8292H1.98645L10.825 4.90976ZM13.4138 16.8292H41.5864L27.5001 1.47902L13.4138 16.8292Z" fill="white"/>
<path d="M79.0547 29.6543C79.0547 31.3952 78.4258 32.7669 77.168 33.7695C75.9102 34.7721 74.1602 35.2734 71.918 35.2734C69.5482 35.2734 67.7161 34.959 66.4219 34.3301V31.9238C67.2695 32.2884 68.1947 32.5755 69.1973 32.7852C70.209 32.9948 71.1523 33.0996 72.0273 33.0996C73.5221 33.0996 74.6478 32.8125 75.4043 32.2383C76.1608 31.6641 76.5391 30.8757 76.5391 29.873C76.5391 29.2077 76.4023 28.6608 76.1289 28.2324C75.8555 27.804 75.3952 27.403 74.748 27.0293C74.11 26.6556 73.1393 26.2318 71.8359 25.7578C69.9857 25.0833 68.6641 24.2904 67.8711 23.3789C67.0781 22.4583 66.6816 21.2734 66.6816 19.8242C66.6816 18.2656 67.265 17.026 68.4316 16.1055C69.6074 15.1849 71.1523 14.7246 73.0664 14.7246C75.0625 14.7246 76.8991 15.0983 78.5762 15.8457L77.7969 18.0059C76.0833 17.2949 74.4883 16.9395 73.0117 16.9395C71.8268 16.9395 70.8971 17.1947 70.2227 17.7051C69.5573 18.2155 69.2246 18.931 69.2246 19.8516C69.2246 20.5078 69.3522 21.0547 69.6074 21.4922C69.8717 21.9206 70.291 22.3125 70.8652 22.668C71.4486 23.0234 72.36 23.429 73.5996 23.8848C75.0853 24.4316 76.1927 24.9648 76.9219 25.4844C77.651 25.9948 78.1888 26.5872 78.5352 27.2617C78.8815 27.9271 79.0547 28.7246 79.0547 29.6543ZM85.1797 27.2754L86.0137 26.209L86.9707 25.0605L91.7695 19.9883H94.6406L88.5703 26.4004L95.0645 35H92.0977L86.8887 28L85.1797 29.4902V35H82.7461V13.7266H85.1797V24.8418L85.0703 27.2754H85.1797ZM103.814 35.2734C101.563 35.2734 99.7949 34.5944 98.5098 33.2363C97.2337 31.8691 96.5957 29.9915 96.5957 27.6035C96.5957 25.1973 97.1927 23.2832 98.3867 21.8613C99.5807 20.4303 101.194 19.7148 103.227 19.7148C105.113 19.7148 106.617 20.3255 107.738 21.5469C108.859 22.7591 109.42 24.4043 109.42 26.4824V27.9727H99.1387C99.1842 29.6771 99.6172 30.9714 100.438 31.8555C101.258 32.7396 102.42 33.1816 103.924 33.1816C104.726 33.1816 105.487 33.1133 106.207 32.9766C106.927 32.8307 107.77 32.5527 108.736 32.1426V34.3027C107.907 34.6582 107.128 34.9089 106.398 35.0547C105.669 35.2005 104.808 35.2734 103.814 35.2734ZM103.199 21.7246C102.023 21.7246 101.094 22.1029 100.41 22.8594C99.7266 23.6159 99.321 24.6686 99.1934 26.0176H106.836C106.818 24.6139 106.494 23.5475 105.865 22.8184C105.236 22.0892 104.348 21.7246 103.199 21.7246ZM118.252 33.2637C118.571 33.2637 118.945 33.2318 119.373 33.168C119.801 33.1042 120.125 33.0312 120.344 32.9492V34.8359C120.116 34.9362 119.76 35.0319 119.277 35.123C118.803 35.2233 118.32 35.2734 117.828 35.2734C114.893 35.2734 113.426 33.7285 113.426 30.6387V21.9023H111.307V20.7266L113.453 19.7422L114.438 16.543H115.9V19.9883H120.234V21.9023H115.9V30.5703C115.9 31.4362 116.105 32.1016 116.516 32.5664C116.935 33.0312 117.514 33.2637 118.252 33.2637ZM129.367 35.2734C127.207 35.2734 125.525 34.6126 124.322 33.291C123.119 31.9603 122.518 30.0553 122.518 27.5762C122.518 25.0605 123.124 23.1237 124.336 21.7656C125.557 20.3984 127.294 19.7148 129.545 19.7148C130.274 19.7148 130.994 19.7923 131.705 19.9473C132.425 20.0931 133.018 20.2845 133.482 20.5215L132.73 22.5723C131.464 22.0983 130.383 21.8613 129.49 21.8613C127.977 21.8613 126.861 22.3398 126.141 23.2969C125.421 24.2448 125.061 25.6621 125.061 27.5488C125.061 29.3626 125.421 30.7526 126.141 31.7188C126.861 32.6758 127.927 33.1543 129.34 33.1543C130.661 33.1543 131.96 32.8626 133.236 32.2793V34.4668C132.197 35.0046 130.908 35.2734 129.367 35.2734ZM147.031 35V25.4023C147.031 24.181 146.758 23.2741 146.211 22.6816C145.673 22.0801 144.826 21.7793 143.668 21.7793C142.146 21.7793 141.029 22.2031 140.318 23.0508C139.617 23.8984 139.266 25.2975 139.266 27.248V35H136.805V13.7266H139.266V19.9609C139.266 20.7812 139.22 21.4831 139.129 22.0664H139.293C139.74 21.3372 140.373 20.7676 141.193 20.3574C142.014 19.9473 142.939 19.7422 143.969 19.7422C145.792 19.7422 147.163 20.1797 148.084 21.0547C149.005 21.9206 149.465 23.3105 149.465 25.2246V35H147.031Z" fill="white"/>
</svg>
