<svg width="212" height="60" viewBox="0 0 212 60" fill="none" xmlns="http://www.w3.org/2000/svg">
<path d="M31.5806 56.9803V51.7706L44.5924 45.1793C44.7455 45.1019 44.874 44.9835 44.9638 44.8373C45.0535 44.6912 45.1009 44.523 45.1008 44.3515V41.3691C46.3162 40.9481 47.13 39.7362 46.9924 38.4019C46.8316 36.8452 45.4395 35.7127 43.8823 35.8734C42.3251 36.0337 41.1926 37.4259 41.3538 38.9834C41.4701 40.1149 42.2374 41.0191 43.2455 41.3691V43.7817L31.5806 49.6898V44.8434L36.7228 42.4645C36.8833 42.3902 37.0192 42.2716 37.1146 42.1227C37.2099 41.9738 37.2607 41.8007 37.2609 41.6238L37.271 33.5508L46.7871 28.2049C46.9307 28.1243 47.0503 28.0069 47.1335 27.8648C47.2167 27.7227 47.2606 27.561 47.2605 27.3963V25.1442C48.4765 24.7247 49.2893 23.5123 49.152 22.1773C48.9912 20.6191 47.5985 19.4871 46.0418 19.6488C44.4844 19.8091 43.3528 21.2018 43.5131 22.759C43.6303 23.8898 44.3972 24.7945 45.4045 25.1442V26.8537L35.8898 32.1989C35.7463 32.2795 35.6267 32.3969 35.5435 32.539C35.4602 32.6811 35.4163 32.8428 35.4162 33.0075L35.4061 41.0299L31.5806 42.798V25.3533L39.5864 21.438C39.7425 21.3622 39.8741 21.2439 39.9661 21.0968C40.0581 20.9496 40.1068 20.7796 40.1067 20.606V17.6231C41.322 17.2024 42.1357 15.9912 41.9981 14.6555C41.8376 13.099 40.4449 11.9667 38.8882 12.128C37.3305 12.288 36.1983 13.6802 36.3595 15.2388C36.4755 16.3697 37.2431 17.2723 38.2509 17.6224V20.0266L31.5806 23.2868V13.2141C32.7961 12.7938 33.6105 11.5812 33.4723 10.2469C33.3124 8.68969 31.9198 7.55766 30.3621 7.71773C28.8054 7.87945 27.6734 9.27094 27.8341 10.8284C27.9499 11.9587 28.7177 12.863 29.7251 13.2129V29.6398L25.0099 27.1624V19.7004C25.0099 19.5582 24.9772 19.4179 24.9142 19.2903C24.8512 19.1628 24.7596 19.0516 24.6466 18.9652L21.4216 16.4953C21.597 16.0732 21.6729 15.6035 21.6223 15.1167C21.462 13.5598 20.0691 12.4287 18.5121 12.5888C16.9547 12.7495 15.8229 14.1415 15.9832 15.6989C16.1437 17.2566 17.5364 18.3886 19.0941 18.228C19.477 18.1881 19.8478 18.0707 20.1839 17.883L23.1548 20.1591V27.7228C23.1548 28.0678 23.3461 28.3842 23.651 28.5448L29.7251 31.7353V37.7688L19.5912 33.082L19.7302 29.411C19.7369 29.2344 19.6931 29.0596 19.6038 28.9071C19.5145 28.7546 19.3835 28.6307 19.2262 28.5502L14.5812 26.168C14.6537 25.8622 14.6746 25.5464 14.6428 25.2337C14.4818 23.6768 13.0896 22.5443 11.5327 22.7055C9.97523 22.8659 8.84367 24.2585 9.00398 25.8155C9.16477 27.3717 10.5567 28.5037 12.1144 28.3432C12.652 28.2884 13.1624 28.0797 13.5844 27.742L17.8533 29.9316L17.7134 33.6302C17.7065 33.8132 17.7539 33.9942 17.8497 34.1503C17.9454 34.3064 18.0852 34.4307 18.2515 34.5075L29.7251 39.814V44.1211C29.7145 44.2023 29.7145 44.2846 29.7251 44.3658V57.0227C28.7594 57.0125 27.7949 56.951 26.8357 56.8385V45.9593C26.8357 45.5967 26.6245 45.2679 26.2952 45.1167L19.0964 41.8038C19.1145 41.6187 19.1147 41.4293 19.0945 41.2366C18.934 39.6799 17.5418 38.547 15.9844 38.7089C14.4272 38.8695 13.2954 40.2612 13.4557 41.8186C13.6167 43.3748 15.0089 44.5076 16.5666 44.347C17.2343 44.2787 17.8557 43.9742 18.319 43.4885L24.9799 46.5541V56.5549C12.4662 54.1948 2.96906 43.1888 2.96906 30.0002C2.96906 15.0959 15.0954 2.9693 30 2.9693C44.9051 2.9693 57.0307 15.0959 57.0307 30.0002C57.0307 44.3738 45.7521 56.1588 31.5804 56.9803H31.5806ZM30.0002 0C13.4578 0 0 13.4588 0 30C0 46.5417 13.4578 59.9993 30 60C46.5427 60 60 46.5417 60 30C60 13.459 46.5427 0 30 0H30.0002Z" fill="white"/>
<path d="M77.512 44.364C81.796 44.364 84.484 41.788 84.484 38.54C84.484 35.488 82.636 34.088 80.256 33.052L77.316 31.792C75.72 31.12 73.928 30.364 73.928 28.376C73.928 26.528 75.44 25.352 77.764 25.352C79.668 25.352 81.18 26.108 82.44 27.284L83.812 25.632C82.356 24.12 80.2 23.084 77.764 23.084C74.04 23.084 71.296 25.38 71.296 28.544C71.296 31.54 73.564 32.996 75.468 33.808L78.436 35.096C80.368 35.964 81.852 36.636 81.852 38.736C81.852 40.752 80.228 42.096 77.54 42.096C75.412 42.096 73.34 41.088 71.856 39.548L70.316 41.312C72.108 43.188 74.6 44.364 77.512 44.364ZM94.191 44.364C97.915 44.364 101.247 41.452 101.247 36.412C101.247 31.344 97.915 28.404 94.191 28.404C90.467 28.404 87.135 31.344 87.135 36.412C87.135 41.452 90.467 44.364 94.191 44.364ZM94.191 42.236C91.559 42.236 89.795 39.912 89.795 36.412C89.795 32.912 91.559 30.532 94.191 30.532C96.823 30.532 98.615 32.912 98.615 36.412C98.615 39.912 96.823 42.236 94.191 42.236ZM109.688 44.364C111.788 44.364 113.3 43.272 114.728 41.62H114.812L115.008 44H117.136V28.796H114.588V39.576C113.132 41.396 112.04 42.152 110.472 42.152C108.456 42.152 107.616 40.948 107.616 38.12V28.796H105.068V38.428C105.068 42.292 106.496 44.364 109.688 44.364ZM122.271 44H124.819V34.228C125.827 31.624 127.395 30.728 128.655 30.728C129.271 30.728 129.635 30.784 130.139 30.98L130.615 28.74C130.139 28.488 129.663 28.404 128.991 28.404C127.283 28.404 125.743 29.636 124.679 31.568H124.595L124.371 28.796H122.271V44ZM138.818 44.364C140.638 44.364 142.374 43.664 143.718 42.432L142.626 40.724C141.674 41.592 140.442 42.236 139.042 42.236C136.242 42.236 134.338 39.912 134.338 36.412C134.338 32.912 136.354 30.532 139.098 30.532C140.33 30.532 141.254 31.092 142.15 31.904L143.466 30.196C142.374 29.244 141.002 28.404 139.014 28.404C135.122 28.404 131.678 31.344 131.678 36.412C131.678 41.452 134.786 44.364 138.818 44.364ZM152.521 44.364C154.593 44.364 156.217 43.664 157.561 42.796L156.637 41.116C155.517 41.872 154.313 42.32 152.829 42.32C149.945 42.32 147.957 40.248 147.789 37H158.037C158.093 36.636 158.149 36.104 158.149 35.544C158.149 31.204 155.965 28.404 152.101 28.404C148.573 28.404 145.241 31.484 145.241 36.412C145.241 41.424 148.489 44.364 152.521 44.364ZM147.761 35.18C148.069 32.184 149.973 30.448 152.129 30.448C154.509 30.448 155.909 32.1 155.909 35.18H147.761ZM166.38 44.364C167.304 44.364 168.312 44.084 169.18 43.804L168.676 41.9C168.172 42.096 167.472 42.292 166.94 42.292C165.176 42.292 164.588 41.228 164.588 39.352V30.868H168.704V28.796H164.588V24.54H162.46L162.152 28.796L159.772 28.936V30.868H162.04V39.296C162.04 42.348 163.132 44.364 166.38 44.364ZM172.146 44H174.694V34.228C175.702 31.624 177.27 30.728 178.53 30.728C179.146 30.728 179.51 30.784 180.014 30.98L180.49 28.74C180.014 28.488 179.538 28.404 178.866 28.404C177.158 28.404 175.618 29.636 174.554 31.568H174.47L174.246 28.796H172.146V44ZM188.833 44.364C190.905 44.364 192.529 43.664 193.873 42.796L192.949 41.116C191.829 41.872 190.625 42.32 189.141 42.32C186.257 42.32 184.269 40.248 184.101 37H194.349C194.405 36.636 194.461 36.104 194.461 35.544C194.461 31.204 192.277 28.404 188.413 28.404C184.885 28.404 181.553 31.484 181.553 36.412C181.553 41.424 184.801 44.364 188.833 44.364ZM184.073 35.18C184.381 32.184 186.285 30.448 188.441 30.448C190.821 30.448 192.221 32.1 192.221 35.18H184.073ZM204.337 44.364C206.409 44.364 208.033 43.664 209.377 42.796L208.453 41.116C207.333 41.872 206.129 42.32 204.645 42.32C201.761 42.32 199.773 40.248 199.605 37H209.853C209.909 36.636 209.965 36.104 209.965 35.544C209.965 31.204 207.781 28.404 203.917 28.404C200.389 28.404 197.057 31.484 197.057 36.412C197.057 41.424 200.305 44.364 204.337 44.364ZM199.577 35.18C199.885 32.184 201.789 30.448 203.945 30.448C206.325 30.448 207.725 32.1 207.725 35.18H199.577Z" fill="white"/>
</svg>
