<svg width="161" height="26" viewBox="0 0 161 26" fill="none" xmlns="http://www.w3.org/2000/svg">
<path d="M10.9902 25H7.91895V3.41797H0.332031V0.728516H18.5273V3.41797H10.9902V25ZM43.0811 12.8311C43.0811 16.7158 42.096 19.7705 40.126 21.9951C38.167 24.2197 35.4222 25.332 31.8916 25.332C28.3167 25.332 25.5498 24.2419 23.5908 22.0615C21.6429 19.8701 20.6689 16.7822 20.6689 12.7979C20.6689 8.84668 21.6374 5.78646 23.5742 3.61719C25.5221 1.43685 28.3057 0.34668 31.9248 0.34668C35.4443 0.34668 38.1836 1.45345 40.1426 3.66699C42.1016 5.86947 43.0811 8.92415 43.0811 12.8311ZM23.8896 12.8311C23.8896 16.0407 24.5703 18.4867 25.9316 20.1689C27.293 21.8512 29.2796 22.6924 31.8916 22.6924C34.4925 22.6924 36.4681 21.8623 37.8184 20.2021C39.1686 18.542 39.8438 16.085 39.8438 12.8311C39.8438 9.58822 39.1742 7.14779 37.835 5.50977C36.4958 3.86068 34.5257 3.03613 31.9248 3.03613C29.2907 3.03613 27.293 3.87174 25.9316 5.54297C24.5703 7.20312 23.8896 9.63249 23.8896 12.8311ZM62.0234 25H48.46V0.728516H62.0234V3.41797H51.5146V10.9883H61.4092V13.6445H51.5146V22.3105H62.0234V25ZM74.209 25H65.4434V23.2402L68.2988 22.5928V3.16895L65.4434 2.48828V0.728516H74.209V2.48828L71.3535 3.16895V22.5928L74.209 23.2402V25ZM89.2998 3.06934C86.6878 3.06934 84.6348 3.94368 83.1406 5.69238C81.6465 7.44108 80.8994 9.83171 80.8994 12.8643C80.8994 15.9964 81.6243 18.4147 83.0742 20.1191C84.5241 21.8125 86.5882 22.6592 89.2666 22.6592C90.9932 22.6592 92.9355 22.3382 95.0938 21.6963V24.3525C94.0645 24.7288 93.0739 24.9834 92.1221 25.1162C91.1702 25.2601 90.0745 25.332 88.835 25.332C85.2601 25.332 82.5042 24.2474 80.5674 22.0781C78.6416 19.8978 77.6787 16.8154 77.6787 12.8311C77.6787 10.3298 78.138 8.13835 79.0566 6.25684C79.9863 4.37533 81.3311 2.92546 83.0908 1.90723C84.8617 0.888997 86.9424 0.379883 89.333 0.379883C91.9007 0.379883 94.1364 0.855794 96.04 1.80762L94.8115 4.39746C92.8747 3.51204 91.0374 3.06934 89.2998 3.06934ZM115.298 0.34668C116.228 0.34668 117.102 0.468424 117.921 0.711914C118.751 0.955404 119.476 1.32064 120.096 1.80762C120.727 2.2946 121.225 2.90332 121.59 3.63379C121.955 4.36426 122.138 5.21647 122.138 6.19043C122.138 6.93197 122.027 7.60156 121.806 8.19922C121.584 8.79688 121.28 9.33919 120.893 9.82617C120.505 10.3021 120.046 10.7337 119.515 11.1211C118.983 11.4974 118.408 11.8405 117.788 12.1504C118.43 12.4935 119.055 12.8753 119.664 13.2959C120.284 13.7165 120.832 14.1924 121.308 14.7236C121.795 15.2438 122.182 15.8304 122.47 16.4834C122.769 17.1364 122.918 17.8669 122.918 18.6748C122.918 19.693 122.73 20.6172 122.354 21.4473C121.988 22.2663 121.468 22.9635 120.793 23.5391C120.129 24.1146 119.326 24.5573 118.386 24.8672C117.456 25.1771 116.427 25.332 115.298 25.332C114.08 25.332 112.996 25.1826 112.044 24.8838C111.103 24.585 110.306 24.1589 109.653 23.6055C109.011 23.041 108.519 22.3548 108.176 21.5469C107.844 20.7389 107.678 19.8258 107.678 18.8076C107.678 17.9775 107.799 17.2305 108.043 16.5664C108.298 15.9023 108.635 15.3047 109.056 14.7734C109.476 14.2422 109.974 13.7718 110.55 13.3623C111.125 12.9528 111.734 12.5931 112.376 12.2832C111.834 11.9401 111.325 11.5693 110.849 11.1709C110.373 10.7614 109.958 10.3076 109.604 9.80957C109.26 9.31152 108.984 8.76367 108.773 8.16602C108.574 7.55729 108.475 6.8877 108.475 6.15723C108.475 5.19434 108.657 4.35319 109.022 3.63379C109.399 2.90332 109.902 2.2946 110.533 1.80762C111.164 1.32064 111.889 0.955404 112.708 0.711914C113.538 0.468424 114.401 0.34668 115.298 0.34668ZM110.649 18.8408C110.649 19.4274 110.738 19.9697 110.915 20.4678C111.092 20.9548 111.369 21.3753 111.745 21.7295C112.121 22.0726 112.597 22.3438 113.173 22.543C113.748 22.7311 114.435 22.8252 115.231 22.8252C116.006 22.8252 116.687 22.7311 117.273 22.543C117.871 22.3438 118.369 22.0671 118.768 21.7129C119.166 21.3477 119.465 20.9105 119.664 20.4014C119.863 19.8923 119.963 19.3278 119.963 18.708C119.963 18.1325 119.852 17.6123 119.631 17.1475C119.421 16.6826 119.111 16.251 118.701 15.8525C118.303 15.4541 117.821 15.0778 117.257 14.7236C116.692 14.3695 116.062 14.0208 115.364 13.6777L114.866 13.4453C113.472 14.1094 112.42 14.873 111.712 15.7363C111.004 16.5885 110.649 17.6234 110.649 18.8408ZM115.265 2.87012C114.091 2.87012 113.156 3.16341 112.459 3.75C111.773 4.33659 111.43 5.1888 111.43 6.30664C111.43 6.9375 111.524 7.47982 111.712 7.93359C111.911 8.38737 112.182 8.79134 112.525 9.14551C112.868 9.49967 113.278 9.82064 113.754 10.1084C114.241 10.3851 114.767 10.6562 115.331 10.9219C115.862 10.6784 116.36 10.4128 116.825 10.125C117.301 9.83724 117.711 9.51074 118.054 9.14551C118.408 8.78027 118.685 8.36523 118.884 7.90039C119.083 7.43555 119.183 6.9043 119.183 6.30664C119.183 5.1888 118.834 4.33659 118.137 3.75C117.439 3.16341 116.482 2.87012 115.265 2.87012ZM133.692 10.1084C134.788 10.1084 135.806 10.2633 136.747 10.5732C137.699 10.8721 138.523 11.3203 139.221 11.918C139.929 12.5156 140.482 13.2572 140.881 14.1426C141.279 15.028 141.479 16.0518 141.479 17.2139C141.479 18.4756 141.29 19.61 140.914 20.6172C140.538 21.6243 139.979 22.4766 139.237 23.1738C138.496 23.8711 137.577 24.4079 136.481 24.7842C135.397 25.1494 134.146 25.332 132.729 25.332C132.165 25.332 131.606 25.3044 131.053 25.249C130.51 25.1937 129.985 25.1107 129.476 25C128.978 24.9004 128.502 24.7676 128.048 24.6016C127.594 24.4355 127.185 24.2419 126.819 24.0205V21.165C127.185 21.4196 127.611 21.6465 128.098 21.8457C128.596 22.0449 129.116 22.2109 129.658 22.3438C130.201 22.4766 130.743 22.5817 131.285 22.6592C131.839 22.7256 132.348 22.7588 132.812 22.7588C133.687 22.7588 134.467 22.6592 135.153 22.46C135.84 22.2497 136.421 21.9287 136.896 21.4971C137.372 21.0654 137.738 20.5231 137.992 19.8701C138.247 19.2171 138.374 18.4424 138.374 17.5459C138.374 15.9632 137.887 14.7568 136.913 13.9268C135.939 13.0856 134.522 12.665 132.663 12.665C132.364 12.665 132.038 12.6816 131.684 12.7148C131.34 12.737 130.992 12.7702 130.638 12.8145C130.295 12.8587 129.963 12.9085 129.642 12.9639C129.332 13.0081 129.061 13.0524 128.828 13.0967L127.334 12.1504L128.247 0.728516H139.702V3.48438H130.87L130.223 10.4404C130.577 10.374 131.042 10.3021 131.617 10.2246C132.204 10.1471 132.896 10.1084 133.692 10.1084ZM160.504 12.8311C160.504 14.79 160.36 16.5443 160.072 18.0938C159.796 19.6432 159.342 20.9548 158.711 22.0283C158.091 23.1019 157.289 23.9209 156.304 24.4854C155.319 25.0498 154.123 25.332 152.718 25.332C151.412 25.332 150.272 25.0498 149.298 24.4854C148.335 23.9209 147.533 23.1019 146.891 22.0283C146.26 20.9548 145.784 19.6432 145.463 18.0938C145.153 16.5443 144.998 14.79 144.998 12.8311C144.998 10.8721 145.136 9.11784 145.413 7.56836C145.701 6.01888 146.149 4.71289 146.758 3.65039C147.378 2.57682 148.174 1.75781 149.148 1.19336C150.133 0.628906 151.323 0.34668 152.718 0.34668C154.035 0.34668 155.18 0.628906 156.154 1.19336C157.128 1.74674 157.936 2.56022 158.578 3.63379C159.22 4.69629 159.701 6.00228 160.022 7.55176C160.343 9.10124 160.504 10.861 160.504 12.8311ZM148.069 12.8311C148.069 14.4912 148.152 15.9411 148.318 17.1807C148.484 18.4202 148.75 19.4551 149.115 20.2852C149.48 21.1042 149.956 21.724 150.543 22.1445C151.141 22.554 151.866 22.7588 152.718 22.7588C153.57 22.7588 154.295 22.554 154.893 22.1445C155.49 21.735 155.977 21.1208 156.354 20.3018C156.741 19.4827 157.018 18.4535 157.184 17.2139C157.361 15.9632 157.449 14.5023 157.449 12.8311C157.449 11.1709 157.361 9.72103 157.184 8.48145C157.018 7.24186 156.741 6.21257 156.354 5.39355C155.977 4.57454 155.49 3.96029 154.893 3.55078C154.295 3.14128 153.57 2.93652 152.718 2.93652C151.866 2.93652 151.141 3.14128 150.543 3.55078C149.956 3.96029 149.48 4.57454 149.115 5.39355C148.75 6.21257 148.484 7.24186 148.318 8.48145C148.152 9.72103 148.069 11.1709 148.069 12.8311Z" fill="white"/>
</svg>
