<svg width="174" height="57" viewBox="0 0 174 57" fill="none" xmlns="http://www.w3.org/2000/svg">
<path fill-rule="evenodd" clip-rule="evenodd" d="M28.5 57C44.2401 57 57 44.2401 57 28.5C57 12.7599 44.2401 0 28.5 0C12.7599 0 0 12.7599 0 28.5C0 44.2401 12.7599 57 28.5 57ZM26.7664 32.1282V20H22.7066V31.4487C22.7066 32.9017 22.4044 33.9701 21.8 34.6538C21.2044 35.3291 20.2409 35.6667 18.9095 35.6667C17.5343 35.6667 16.5489 35.3291 15.9533 34.6538C15.3577 33.9786 15.0599 32.9188 15.0599 31.4744V20H11V32.0769C11 34.2222 11.6832 35.9145 13.0496 37.1538C14.4161 38.3846 16.3343 39 18.8044 39C20.4423 39 21.8613 38.7222 23.0613 38.1667C24.2613 37.6111 25.1766 36.812 25.8073 35.7692C26.4467 34.7265 26.7664 33.5128 26.7664 32.1282ZM42.3489 38.7436H47L40.5095 29.2949L46.5401 20H42.1518L38.092 26.7436L33.9533 20H29.4599L35.4248 29.0769L29.0526 38.7436H33.4146L37.8818 31.6538L42.3489 38.7436Z" fill="white"/>
<path d="M74.56 29.273C77.71 29.273 80.104 27.593 80.104 22.637V13.607H78.235V22.7C78.235 26.417 76.618 27.572 74.56 27.572C72.565 27.572 70.99 26.417 70.99 22.7V13.607H69.037V22.637C69.037 27.593 71.431 29.273 74.56 29.273ZM86.9667 29.273C89.6547 29.273 91.1247 27.74 91.1247 25.892C91.1247 23.729 89.2977 23.057 87.6387 22.427C86.3577 21.944 85.1187 21.545 85.1187 20.453C85.1187 19.571 85.7697 18.815 87.1977 18.815C88.2267 18.815 89.0247 19.235 89.8227 19.823L90.7467 18.584C89.8437 17.891 88.6047 17.303 87.1977 17.303C84.7197 17.303 83.2707 18.731 83.2707 20.537C83.2707 22.469 85.0767 23.246 86.6727 23.834C87.9327 24.317 89.2767 24.842 89.2767 25.997C89.2767 26.984 88.5417 27.782 87.0297 27.782C85.6647 27.782 84.6357 27.236 83.6487 26.438L82.7037 27.698C83.7957 28.601 85.3497 29.273 86.9667 29.273ZM98.407 29.273C99.961 29.273 101.179 28.748 102.187 28.097L101.494 26.837C100.654 27.404 99.751 27.74 98.638 27.74C96.475 27.74 94.984 26.186 94.858 23.75H102.544C102.586 23.477 102.628 23.078 102.628 22.658C102.628 19.403 100.99 17.303 98.092 17.303C95.446 17.303 92.947 19.613 92.947 23.309C92.947 27.068 95.383 29.273 98.407 29.273ZM94.837 22.385C95.068 20.138 96.496 18.836 98.113 18.836C99.898 18.836 100.948 20.075 100.948 22.385H94.837ZM105.436 29H107.347V21.671C108.103 19.718 109.279 19.046 110.224 19.046C110.686 19.046 110.959 19.088 111.337 19.235L111.694 17.555C111.337 17.366 110.98 17.303 110.476 17.303C109.195 17.303 108.04 18.227 107.242 19.676H107.179L107.011 17.597H105.436V29ZM69.1 52H78.214V50.341H71.053V44.734H76.891V43.075H71.053V38.245H77.983V36.607H69.1V52ZM78.9429 52H80.9589L82.4919 49.333C82.8909 48.64 83.2689 47.947 83.6679 47.296H83.7729C84.1929 47.947 84.6129 48.64 84.9909 49.333L86.6709 52H88.7709L85.0119 46.246L88.4769 40.597H86.4819L85.0749 43.117C84.7389 43.747 84.4029 44.377 84.0459 45.007H83.9619C83.5839 44.377 83.1849 43.747 82.8279 43.117L81.2949 40.597H79.2369L82.7019 46.057L78.9429 52ZM91.0189 56.809H92.9299V52.945L92.8879 50.95C93.9169 51.79 95.0089 52.273 96.0379 52.273C98.6629 52.273 100.994 50.026 100.994 46.12C100.994 42.613 99.3979 40.303 96.4579 40.303C95.1349 40.303 93.8539 41.059 92.8249 41.899H92.7619L92.5939 40.597H91.0189V56.809ZM95.7229 50.677C94.9669 50.677 93.9589 50.362 92.9299 49.48V43.495C94.0429 42.466 95.0299 41.92 95.9959 41.92C98.1589 41.92 98.9989 43.621 98.9989 46.141C98.9989 48.976 97.6129 50.677 95.7229 50.677ZM108.64 52.273C110.194 52.273 111.412 51.748 112.42 51.097L111.727 49.837C110.887 50.404 109.984 50.74 108.871 50.74C106.708 50.74 105.217 49.186 105.091 46.75H112.777C112.819 46.477 112.861 46.078 112.861 45.658C112.861 42.403 111.223 40.303 108.325 40.303C105.679 40.303 103.18 42.613 103.18 46.309C103.18 50.068 105.616 52.273 108.64 52.273ZM105.07 45.385C105.301 43.138 106.729 41.836 108.346 41.836C110.131 41.836 111.181 43.075 111.181 45.385H105.07ZM115.669 52H117.58V44.671C118.336 42.718 119.512 42.046 120.457 42.046C120.919 42.046 121.192 42.088 121.57 42.235L121.927 40.555C121.57 40.366 121.213 40.303 120.709 40.303C119.428 40.303 118.273 41.227 117.475 42.676H117.412L117.244 40.597H115.669V52ZM123.811 52H125.722V40.597H123.811V52ZM124.777 38.245C125.533 38.245 126.1 37.72 126.1 37.006C126.1 36.229 125.533 35.767 124.777 35.767C124.021 35.767 123.454 36.229 123.454 37.006C123.454 37.72 124.021 38.245 124.777 38.245ZM134.193 52.273C135.747 52.273 136.965 51.748 137.973 51.097L137.28 49.837C136.44 50.404 135.537 50.74 134.424 50.74C132.261 50.74 130.77 49.186 130.644 46.75H138.33C138.372 46.477 138.414 46.078 138.414 45.658C138.414 42.403 136.776 40.303 133.878 40.303C131.232 40.303 128.733 42.613 128.733 46.309C128.733 50.068 131.169 52.273 134.193 52.273ZM130.623 45.385C130.854 43.138 132.282 41.836 133.899 41.836C135.684 41.836 136.734 43.075 136.734 45.385H130.623ZM141.222 52H143.133V43.726C144.288 42.571 145.086 41.983 146.262 41.983C147.774 41.983 148.425 42.886 148.425 45.028V52H150.336V44.776C150.336 41.857 149.244 40.303 146.85 40.303C145.296 40.303 144.12 41.164 143.028 42.235H142.965L142.797 40.597H141.222V52ZM158.554 52.273C159.919 52.273 161.221 51.748 162.229 50.824L161.41 49.543C160.696 50.194 159.772 50.677 158.722 50.677C156.622 50.677 155.194 48.934 155.194 46.309C155.194 43.684 156.706 41.899 158.764 41.899C159.688 41.899 160.381 42.319 161.053 42.928L162.04 41.647C161.221 40.933 160.192 40.303 158.701 40.303C155.782 40.303 153.199 42.508 153.199 46.309C153.199 50.089 155.53 52.273 158.554 52.273ZM168.831 52.273C170.385 52.273 171.603 51.748 172.611 51.097L171.918 49.837C171.078 50.404 170.175 50.74 169.062 50.74C166.899 50.74 165.408 49.186 165.282 46.75H172.968C173.01 46.477 173.052 46.078 173.052 45.658C173.052 42.403 171.414 40.303 168.516 40.303C165.87 40.303 163.371 42.613 163.371 46.309C163.371 50.068 165.807 52.273 168.831 52.273ZM165.261 45.385C165.492 43.138 166.92 41.836 168.537 41.836C170.322 41.836 171.372 43.075 171.372 45.385H165.261Z" fill="white"/>
</svg>
