<svg width="113" height="49" viewBox="0 0 113 49" fill="none" xmlns="http://www.w3.org/2000/svg">
<path fill-rule="evenodd" clip-rule="evenodd" d="M26.15 0H29.5239V4.55814C30.7818 4.55814 32.0397 4.5587 33.2976 4.55926H33.2977C37.7253 4.56122 42.1528 4.56318 46.5802 4.54082C46.7194 4.54657 46.8606 4.55005 47.0028 4.55357C47.8419 4.5743 48.7178 4.59593 49.4315 5.0878C49.9327 5.81051 49.9546 6.70064 49.9755 7.55013C49.979 7.69181 49.9825 7.83236 49.9881 7.97082C49.9634 16.6618 49.9692 25.3486 49.9749 34.0346V34.0373L49.9772 37.6329C49.9692 38.1038 49.9781 38.5775 49.987 39.0518V39.0519C50.0095 40.2477 50.032 41.4476 49.7841 42.6186C49.5627 43.7737 48.2082 43.8298 47.2612 43.869L47.1882 43.8721C44.0567 43.8811 40.9236 43.8773 37.7897 43.8735H37.789C35.0344 43.8701 32.2792 43.8668 29.5239 43.8721V49H25.9965C20.3117 47.9634 14.6195 46.9786 8.92658 45.9937C5.95094 45.479 2.9751 44.9641 0 44.4419V4.56406C2.87908 4.06164 5.75812 3.56175 8.63692 3.0619L8.63791 3.06173L8.63803 3.06171C14.4768 2.04791 20.3146 1.03428 26.15 0ZM48.2673 6.26746H29.5238V9.68606H34.0677V13.6744H29.5238V15.9535H34.0677V19.9419H29.5238V22.2209H34.0677V26.2093H29.5238V28.4884H34.0677V32.4768H29.5238V34.7558H34.0677V38.7442H29.5238V42.1628H48.2673V6.26746ZM36.3397 9.68604H44.2915V13.6744H36.3397V9.68604ZM36.3397 15.9535H44.2915V19.9419H36.3397V15.9535ZM36.3397 22.2209H44.2915V26.2093H36.3397V22.2209ZM36.3397 28.4884H44.2915V32.4767H36.3397V28.4884ZM36.3397 34.7558H44.2915V38.7442H36.3397V34.7558ZM20.6861 14.7911C19.397 14.8536 18.1074 14.9334 16.8238 15.0245C16.5342 15.7307 16.2303 16.4312 15.9263 17.1316C15.2223 18.7539 14.5185 20.3757 13.9952 22.0668C13.4771 20.3739 12.8348 18.7283 12.1926 17.0831C11.9681 16.5077 11.7435 15.9323 11.5242 15.355C10.2747 15.4234 9.02511 15.4972 7.77554 15.5715C8.31086 16.7566 8.86028 17.9351 9.40966 19.1135C10.2126 20.8358 11.0155 22.5579 11.7742 24.3003C10.7951 26.1537 9.85684 28.024 8.9188 29.8938C8.41493 30.8982 7.91114 31.9024 7.40112 32.9038C8.64478 32.9553 9.8889 33.0064 11.133 33.0237C11.4839 32.1251 11.8688 31.24 12.2536 30.3549C12.8402 29.006 13.4268 27.6571 13.893 26.2603C14.3761 27.9924 15.0941 29.633 15.8119 31.2731C16.1235 31.9852 16.4351 32.6972 16.7274 33.4166C18.0937 33.5126 19.4605 33.6 20.8278 33.6787C20.0952 32.1874 19.3564 30.7012 18.6178 29.2152C17.7762 27.5218 16.9347 25.8288 16.1027 24.1294C17.644 21.0234 19.1719 17.9106 20.6861 14.7911Z" fill="white"/>
<path d="M60 15.0117H62.6387L67.1367 27.8359C67.7109 29.4583 68.1302 30.9121 68.3945 32.1973C68.6224 31.0488 69.0462 29.5768 69.666 27.7812L74.1367 15.0117H76.8027L69.666 35H67.1367L60 15.0117ZM79.5371 15.0117H85.2383C87.918 15.0117 89.8503 15.4128 91.0352 16.2148C92.2292 17.0078 92.8262 18.2565 92.8262 19.9609C92.8262 21.1458 92.5026 22.1257 91.8555 22.9004C91.2083 23.666 90.265 24.1628 89.0254 24.3906V24.5273C90.5658 24.7917 91.696 25.3249 92.416 26.127C93.1452 26.929 93.5098 27.9909 93.5098 29.3125C93.5098 31.099 92.8991 32.4935 91.6777 33.4961C90.4564 34.4987 88.752 35 86.5645 35H79.5371V15.0117ZM82.0527 23.5156H85.7441C87.3118 23.5156 88.4512 23.265 89.1621 22.7637C89.873 22.2624 90.2285 21.4238 90.2285 20.248C90.2285 19.1543 89.8366 18.3659 89.0527 17.8828C88.278 17.3997 87.0475 17.1582 85.3613 17.1582H82.0527V23.5156ZM82.0527 25.6211V32.8672H86.0859C87.6901 32.8672 88.8796 32.5573 89.6543 31.9375C90.429 31.3177 90.8164 30.3789 90.8164 29.1211C90.8164 27.9271 90.4062 27.0475 89.5859 26.4824C88.7656 25.9082 87.5352 25.6211 85.8945 25.6211H82.0527ZM110.012 35L107.605 28.8066H99.6758L97.2969 35H94.7539L102.561 14.9297H104.83L112.623 35H110.012ZM106.854 26.5781L104.611 20.5215L103.654 17.5273C103.381 18.6211 103.094 19.6191 102.793 20.5215L100.523 26.5781H106.854Z" fill="white"/>
</svg>
