<svg width="175" height="50" viewBox="0 0 175 50" fill="none" xmlns="http://www.w3.org/2000/svg">
<path d="M43.6943 38.5372L23.4296 50V41.0721L36.0557 34.1266L43.6943 38.5372ZM45.0805 37.2819V13.3094L37.6648 17.5892V32.9973L45.0805 37.2819ZM1.3862 38.5372L21.6508 50V41.0721L9.02482 34.1266L1.3862 38.5372ZM0 37.2819V13.3094L7.41567 17.5892V32.9973L0 37.2819ZM0.867584 11.7584L21.6508 0V8.63222L8.33657 15.9558L8.23478 16.014L0.867584 11.7584ZM44.2129 11.7584L23.4296 0V8.63222L36.7439 15.9558L36.8457 16.014L44.2129 11.7584Z" fill="white" fill-opacity="0.5"/>
<path d="M21.651 39.0413L9.19458 32.1927V18.6216L21.651 25.8143V39.0413ZM23.4297 39.0413L35.8861 32.1927V18.6216L23.4297 25.8143V39.0413ZM10.0379 17.0512L22.5428 10.1735L35.0476 17.0512L22.5428 24.273L10.0379 17.0512Z" fill="white"/>
<path d="M60.068 36H63.148L66.2 23.624C66.536 22 66.9 20.516 67.236 18.948H67.348C67.684 20.516 67.992 22 68.356 23.624L71.464 36H74.572L78.828 15.476H76.336L74.18 26.648C73.788 28.832 73.396 31.044 73.004 33.284H72.864C72.388 31.044 71.912 28.832 71.408 26.648L68.524 15.476H66.172L63.344 26.648C62.84 28.86 62.336 31.072 61.86 33.284H61.748C61.356 31.072 60.936 28.86 60.544 26.648L58.388 15.476H55.7L60.068 36ZM88.29 36.364C90.362 36.364 91.986 35.664 93.33 34.796L92.406 33.116C91.286 33.872 90.082 34.32 88.598 34.32C85.714 34.32 83.726 32.248 83.558 29H93.806C93.862 28.636 93.918 28.104 93.918 27.544C93.918 23.204 91.734 20.404 87.87 20.404C84.342 20.404 81.01 23.484 81.01 28.412C81.01 33.424 84.258 36.364 88.29 36.364ZM83.53 27.18C83.838 24.184 85.742 22.448 87.898 22.448C90.278 22.448 91.678 24.1 91.678 27.18H83.53ZM104.354 36.364C107.854 36.364 110.962 33.368 110.962 28.132C110.962 23.484 108.834 20.404 104.886 20.404C103.206 20.404 101.498 21.356 100.126 22.56L100.21 19.816V13.712H97.6619V36H99.7059L99.9299 34.432H100.014C101.358 35.664 102.954 36.364 104.354 36.364ZM103.934 34.236C102.926 34.236 101.554 33.816 100.21 32.64V24.66C101.666 23.288 103.01 22.56 104.298 22.56C107.182 22.56 108.302 24.828 108.302 28.188C108.302 31.968 106.454 34.236 103.934 34.236ZM114.971 42.412H117.519V37.26L117.463 34.6C118.835 35.72 120.291 36.364 121.663 36.364C125.163 36.364 128.271 33.368 128.271 28.16C128.271 23.484 126.143 20.404 122.223 20.404C120.459 20.404 118.751 21.412 117.379 22.532H117.295L117.071 20.796H114.971V42.412ZM121.243 34.236C120.235 34.236 118.891 33.816 117.519 32.64V24.66C119.003 23.288 120.319 22.56 121.607 22.56C124.491 22.56 125.611 24.828 125.611 28.188C125.611 31.968 123.763 34.236 121.243 34.236ZM135.396 36.364C137.272 36.364 138.98 35.384 140.436 34.18H140.52L140.744 36H142.844V26.648C142.844 22.896 141.276 20.404 137.58 20.404C135.144 20.404 132.988 21.496 131.588 22.392L132.596 24.156C133.8 23.344 135.396 22.532 137.16 22.532C139.652 22.532 140.296 24.408 140.296 26.368C133.828 27.096 130.944 28.748 130.944 32.052C130.944 34.796 132.848 36.364 135.396 36.364ZM136.124 34.32C134.612 34.32 133.436 33.62 133.436 31.884C133.436 29.924 135.172 28.664 140.296 28.048V32.304C138.812 33.62 137.608 34.32 136.124 34.32ZM153.693 36.364C155.513 36.364 157.249 35.664 158.593 34.432L157.501 32.724C156.549 33.592 155.317 34.236 153.917 34.236C151.117 34.236 149.213 31.912 149.213 28.412C149.213 24.912 151.229 22.532 153.973 22.532C155.205 22.532 156.129 23.092 157.025 23.904L158.341 22.196C157.249 21.244 155.877 20.404 153.889 20.404C149.997 20.404 146.553 23.344 146.553 28.412C146.553 33.452 149.661 36.364 153.693 36.364ZM161.947 36H164.467V31.996L167.323 28.664L171.775 36H174.547L168.779 26.9L173.875 20.796H171.047L164.523 28.832H164.467V13.712H161.947V36Z" fill="white"/>
</svg>
