<svg width="318" height="359" viewBox="0 0 318 359" fill="none" xmlns="http://www.w3.org/2000/svg">
<path fill-rule="evenodd" clip-rule="evenodd" d="M297.031 0L278.327 39.0809L265.437 42.4042L254.214 69.8315L233.433 86.8701H245.84L238.354 111.379L260.723 105.531L238.354 133.278L133.524 171.675L114.754 189.165L57.0482 218.079L0 308.469L51.0081 279.268L65.663 253.16L61.8956 273.281L93.3915 247.978C85.5933 262.547 81.6942 269.831 81.6942 269.831C81.6942 269.831 75.0947 291.119 61.8956 333.697L70.9379 359H81.6942L78.5289 330.16L101.269 279.268L128.75 244.537L145.817 240.329L128.75 289.194L133.524 344.847H152.039V289.194L172.478 269.831L188.456 223.761H210.704V294.015L229.413 330.16L245.84 327.644L229.413 294.015L238.354 218.079L250.242 212.261L254.214 297.272L269.744 327.644H283.383L269.744 294.015L274.942 223.203L283.383 206.548V179.5L293.016 197.429L308.516 142.543V58.7188L318 21.3877L313.844 17.6338L306.779 28.4362V8.80841L297.031 0Z" fill="#002142"/>
</svg>
