<svg width="1530" height="685" viewBox="0 0 1530 685" fill="none" xmlns="http://www.w3.org/2000/svg">
<path d="M991 265L243 392L0 684.5H1530L1349.5 433.5L991 265Z" fill="#002142"/>
<path fill-rule="evenodd" clip-rule="evenodd" d="M925.031 0L906.327 39.0809L893.437 42.4042L882.214 69.8315L861.433 86.8701H873.84L866.354 111.379L888.723 105.531L866.354 133.278L761.524 171.675L742.754 189.165L685.048 218.079L628 308.469L679.008 279.268L693.663 253.16L689.896 273.281L721.392 247.978C713.593 262.547 709.694 269.831 709.694 269.831C709.694 269.831 703.095 291.119 689.896 333.697L698.938 359H709.694L706.529 330.16L729.269 279.268L756.75 244.537L773.817 240.329L756.75 289.194L761.524 344.847H780.039V289.194L800.478 269.831L816.456 223.761H838.705V294.015L857.413 330.16L873.84 327.644L857.413 294.015L866.354 218.079L878.242 212.261L882.214 297.272L897.744 327.644H911.383L897.744 294.015L902.942 223.203L911.383 206.548V179.5L921.016 197.429L936.516 142.543V58.7188L946 21.3877L941.844 17.6338L934.779 28.4362V8.80841L925.031 0Z" fill="#002142"/>
</svg>
