<svg width="468" height="317" viewBox="0 0 468 317" fill="none" xmlns="http://www.w3.org/2000/svg">
<path fill-rule="evenodd" clip-rule="evenodd" d="M79.5 139.934C101.831 139.934 119.934 121.831 119.934 99.5C119.934 77.1691 101.831 59.0664 79.5 59.0664C57.1691 59.0664 39.0664 77.1691 39.0664 99.5C39.0664 121.831 57.1691 139.934 79.5 139.934ZM79.5 145C104.629 145 125 124.629 125 99.5C125 74.371 104.629 54 79.5 54C54.371 54 34 74.371 34 99.5C34 124.629 54.371 145 79.5 145Z" fill="white"/>
<circle cx="79.5" cy="99.5" r="24.5" fill="white"/>
<circle cx="113.5" cy="73.5" r="10.5" fill="white"/>
<path d="M171.43 87.9736L167.467 77.7748H154.409L150.492 87.9736H146.304L159.16 54.9231H162.897L175.73 87.9736H171.43ZM166.229 74.105L162.537 64.1313L160.961 59.2007C160.511 61.0019 160.038 62.6454 159.543 64.1313L155.805 74.105H166.229Z" fill="white"/>
<path d="M187.978 85.1144C188.503 85.1144 189.118 85.0618 189.824 84.9568C190.529 84.8517 191.062 84.7316 191.422 84.5965V87.7035C191.047 87.8686 190.462 88.0262 189.666 88.1763C188.886 88.3414 188.09 88.4239 187.28 88.4239C182.447 88.4239 180.03 85.8798 180.03 80.7917V66.4052H176.541V64.469L180.075 62.848L181.696 57.5797H184.105V63.2533H191.242V66.4052H184.105V80.6791C184.105 82.105 184.443 83.2007 185.118 83.9662C185.809 84.7316 186.762 85.1144 187.978 85.1144Z" fill="white"/>
<path d="M217.854 75.5684C217.854 79.6059 216.833 82.7579 214.792 85.0243C212.751 87.2907 209.929 88.4239 206.327 88.4239C204.09 88.4239 202.109 87.9061 200.383 86.8705C198.657 85.8198 197.329 84.3189 196.398 82.3677C195.467 80.4164 195.002 78.15 195.002 75.5684C195.002 71.5459 196.008 68.4165 198.019 66.1801C200.03 63.9287 202.852 62.803 206.484 62.803C209.966 62.803 212.728 63.9512 214.769 66.2476C216.826 68.529 217.854 71.636 217.854 75.5684ZM199.19 75.5684C199.19 78.6754 199.798 81.0393 201.013 82.6603C202.244 84.2663 204.053 85.0693 206.439 85.0693C208.796 85.0693 210.589 84.2663 211.82 82.6603C213.051 81.0393 213.666 78.6754 213.666 75.5684C213.666 72.4615 213.043 70.1275 211.798 68.5666C210.567 66.9906 208.758 66.2026 206.372 66.2026C201.584 66.2026 199.19 69.3245 199.19 75.5684Z" fill="white"/>
<path d="M255.745 87.9736V72.0562C255.745 68.1538 254.071 66.2026 250.724 66.2026C248.428 66.2026 246.739 66.8705 245.659 68.2063C244.578 69.5422 244.038 71.5834 244.038 74.3302V87.9736H240.008V72.0562C240.008 70.105 239.595 68.6416 238.769 67.666C237.959 66.6904 236.683 66.2026 234.942 66.2026C232.661 66.2026 230.987 66.9005 229.921 68.2964C228.871 69.6923 228.345 71.9812 228.345 75.1632V87.9736H224.293V63.2533H227.557L228.165 66.6304H228.39C229.096 65.4296 230.086 64.4915 231.362 63.8161C232.653 63.1407 234.094 62.803 235.685 62.803C239.557 62.803 242.079 64.1838 243.25 66.9456H243.475C244.27 65.6247 245.351 64.6041 246.717 63.8837C248.098 63.1632 249.659 62.803 251.4 62.803C254.191 62.803 256.278 63.5234 257.659 64.9643C259.054 66.4052 259.752 68.7092 259.752 71.8761V87.9736H255.745Z" fill="white"/>
<path d="M271.482 87.9736H267.43V63.2533H271.482V87.9736ZM267.115 56.5666C267.115 55.666 267.34 55.0131 267.79 54.6079C268.255 54.2026 268.826 54 269.501 54C270.131 54 270.679 54.2026 271.145 54.6079C271.625 55.0131 271.865 55.666 271.865 56.5666C271.865 57.4521 271.625 58.1051 271.145 58.5253C270.679 58.9456 270.131 59.1557 269.501 59.1557C268.826 59.1557 268.255 58.9456 267.79 58.5253C267.34 58.1051 267.115 57.4521 267.115 56.5666Z" fill="white"/>
<path d="M289.223 88.4239C285.666 88.4239 282.897 87.3357 280.916 85.1594C278.934 82.968 277.944 79.8311 277.944 75.7485C277.944 71.606 278.942 68.4165 280.938 66.1801C282.949 63.9287 285.809 62.803 289.516 62.803C290.717 62.803 291.902 62.9306 293.073 63.1857C294.259 63.4259 295.235 63.7411 296 64.1313L294.762 67.5084C292.675 66.7279 290.897 66.3377 289.426 66.3377C286.934 66.3377 285.096 67.1257 283.91 68.7017C282.724 70.2626 282.131 72.5966 282.131 75.7035C282.131 78.6904 282.724 80.9793 283.91 82.5703C285.096 84.1463 286.852 84.9343 289.178 84.9343C291.355 84.9343 293.493 84.454 295.595 83.4934V87.0956C293.884 87.9811 291.76 88.4239 289.223 88.4239Z" fill="white"/>
<path d="M177.149 117.309C177.149 122.743 175.663 126.9 172.691 129.782C169.734 132.649 165.486 134.082 159.948 134.082H150.785V101.167H160.916C166.034 101.167 170.019 102.578 172.871 105.399C175.723 108.206 177.149 112.176 177.149 117.309ZM172.781 117.444C172.781 113.257 171.745 110.09 169.674 107.944C167.618 105.782 164.503 104.702 160.331 104.702H154.927V130.525H159.407C168.323 130.525 172.781 126.165 172.781 117.444Z" fill="white"/>
<path d="M194.417 134.533C190.709 134.533 187.798 133.414 185.681 131.178C183.58 128.927 182.529 125.835 182.529 121.902C182.529 117.94 183.512 114.788 185.479 112.446C187.445 110.09 190.102 108.912 193.449 108.912C196.556 108.912 199.032 109.917 200.878 111.929C202.724 113.925 203.648 116.634 203.648 120.056V122.51H186.717C186.792 125.317 187.505 127.448 188.856 128.904C190.207 130.36 192.12 131.088 194.597 131.088C195.918 131.088 197.171 130.975 198.357 130.75C199.542 130.51 200.931 130.052 202.522 129.377V132.934C201.156 133.519 199.873 133.932 198.672 134.172C197.471 134.413 196.053 134.533 194.417 134.533ZM193.404 112.221C191.467 112.221 189.936 112.844 188.811 114.09C187.685 115.336 187.017 117.069 186.807 119.291H199.392C199.362 116.979 198.83 115.223 197.794 114.022C196.758 112.822 195.295 112.221 193.404 112.221Z" fill="white"/>
<path d="M226.026 127.261C226.026 129.572 225.163 131.366 223.437 132.641C221.711 133.902 219.287 134.533 216.165 134.533C212.908 134.533 210.319 134.015 208.398 132.979V129.287C211.115 130.608 213.734 131.268 216.255 131.268C218.297 131.268 219.783 130.938 220.713 130.277C221.644 129.617 222.109 128.732 222.109 127.621C222.109 126.645 221.659 125.82 220.758 125.144C219.873 124.469 218.289 123.696 216.008 122.825C213.681 121.925 212.045 121.159 211.1 120.529C210.154 119.884 209.456 119.163 209.006 118.368C208.571 117.572 208.353 116.604 208.353 115.463C208.353 113.437 209.178 111.838 210.829 110.668C212.481 109.497 214.747 108.912 217.629 108.912C220.435 108.912 223.062 109.467 225.509 110.578L224.135 113.797C221.629 112.747 219.37 112.221 217.359 112.221C215.677 112.221 214.402 112.491 213.531 113.032C212.661 113.557 212.225 114.285 212.225 115.216C212.225 116.116 212.601 116.867 213.351 117.467C214.102 118.052 215.85 118.87 218.597 119.921C220.653 120.687 222.169 121.399 223.145 122.06C224.135 122.72 224.863 123.463 225.329 124.289C225.794 125.114 226.026 126.105 226.026 127.261Z" fill="white"/>
<path d="M236.09 134.082H232.038V109.362H236.09V134.082ZM231.722 102.675C231.722 101.775 231.948 101.122 232.398 100.717C232.863 100.311 233.434 100.109 234.109 100.109C234.739 100.109 235.287 100.311 235.752 100.717C236.233 101.122 236.473 101.775 236.473 102.675C236.473 103.561 236.233 104.214 235.752 104.634C235.287 105.054 234.739 105.264 234.109 105.264C233.434 105.264 232.863 105.054 232.398 104.634C231.948 104.214 231.722 103.561 231.722 102.675Z" fill="white"/>
<path d="M253.336 131.223C255.827 131.223 257.636 130.555 258.762 129.219C259.903 127.868 260.473 125.707 260.473 122.735V121.767C260.473 118.465 259.903 116.064 258.762 114.563C257.621 113.062 255.782 112.311 253.246 112.311C251.175 112.311 249.569 113.137 248.428 114.788C247.302 116.424 246.739 118.765 246.739 121.812C246.739 124.874 247.287 127.208 248.383 128.814C249.494 130.42 251.145 131.223 253.336 131.223ZM260.428 133.857L260.563 130.818H260.383C258.717 133.294 256.165 134.533 252.728 134.533C249.531 134.533 247.032 133.422 245.231 131.201C243.445 128.964 242.552 125.82 242.552 121.767C242.552 117.79 243.452 114.653 245.253 112.356C247.07 110.06 249.546 108.912 252.683 108.912C256.03 108.912 258.612 110.157 260.428 112.649H260.676L261.216 109.362H264.435V134.488C264.435 138.03 263.535 140.694 261.734 142.48C259.948 144.266 257.163 145.159 253.381 145.159C249.779 145.159 246.814 144.634 244.488 143.583V139.846C246.889 141.137 249.929 141.782 253.606 141.782C255.707 141.782 257.366 141.167 258.582 139.936C259.812 138.705 260.428 137.002 260.428 134.825V133.857Z" fill="white"/>
<path d="M289.133 134.082V118.278C289.133 116.266 288.683 114.773 287.782 113.797C286.897 112.807 285.501 112.311 283.595 112.311C281.058 112.311 279.212 113.017 278.056 114.428C276.916 115.823 276.345 118.105 276.345 121.272V134.082H272.293V109.362H275.557L276.165 112.739H276.39C277.156 111.523 278.229 110.585 279.61 109.925C280.991 109.249 282.514 108.912 284.18 108.912C287.212 108.912 289.463 109.647 290.934 111.118C292.405 112.589 293.141 114.878 293.141 117.985V134.082H289.133Z" fill="white"/>
<path d="M98.2417 223.527C98.2417 230.643 96.3118 236.087 92.4519 239.862C88.6116 243.616 83.0947 245.493 75.9013 245.493H64V202.386H77.1587C83.8062 202.386 88.982 204.234 92.6859 207.929C96.3898 211.605 98.2417 216.804 98.2417 223.527ZM92.5689 223.704C92.5689 218.219 91.2238 214.072 88.5336 211.261C85.8629 208.43 81.8178 207.015 76.3984 207.015H69.3804V240.835H75.1995C86.7791 240.835 92.5689 235.124 92.5689 223.704Z" fill="white"/>
<path d="M120.67 246.083C115.855 246.083 112.073 244.619 109.324 241.69C106.595 238.741 105.23 234.692 105.23 229.542C105.23 224.352 106.507 220.224 109.061 217.158C111.615 214.072 115.065 212.529 119.413 212.529C123.448 212.529 126.664 213.846 129.062 216.48C131.46 219.094 132.659 222.642 132.659 227.124V230.338H110.669C110.767 234.014 111.693 236.805 113.447 238.712C115.202 240.618 117.687 241.572 120.904 241.572C122.619 241.572 124.247 241.424 125.787 241.129C127.327 240.815 129.13 240.215 131.197 239.331V243.99C129.423 244.756 127.756 245.297 126.197 245.611C124.637 245.926 122.795 246.083 120.67 246.083ZM119.354 216.863C116.839 216.863 114.851 217.679 113.389 219.31C111.927 220.942 111.059 223.212 110.786 226.121H127.132C127.093 223.094 126.401 220.794 125.056 219.222C123.711 217.649 121.81 216.863 119.354 216.863Z" fill="white"/>
<path d="M161.725 236.559C161.725 239.586 160.604 241.935 158.362 243.606C156.12 245.257 152.972 246.083 148.917 246.083C144.687 246.083 141.324 245.405 138.829 244.048V239.213C142.357 240.943 145.759 241.808 149.034 241.808C151.685 241.808 153.615 241.375 154.824 240.51C156.033 239.645 156.637 238.486 156.637 237.031C156.637 235.753 156.052 234.672 154.882 233.788C153.732 232.903 151.676 231.891 148.713 230.751C145.691 229.571 143.566 228.569 142.338 227.743C141.11 226.898 140.203 225.954 139.618 224.913C139.053 223.871 138.77 222.603 138.77 221.109C138.77 218.455 139.843 216.362 141.987 214.829C144.131 213.295 147.075 212.529 150.818 212.529C154.463 212.529 157.875 213.256 161.052 214.711L159.269 218.927C156.013 217.551 153.079 216.863 150.467 216.863C148.284 216.863 146.627 217.217 145.496 217.925C144.365 218.613 143.8 219.566 143.8 220.785C143.8 221.964 144.287 222.947 145.262 223.733C146.237 224.5 148.508 225.571 152.075 226.947C154.746 227.95 156.715 228.883 157.982 229.748C159.269 230.613 160.214 231.586 160.818 232.667C161.423 233.748 161.725 235.046 161.725 236.559Z" fill="white"/>
<path d="M174.796 245.493H169.532V213.118H174.796V245.493ZM169.123 204.361C169.123 203.182 169.415 202.327 170 201.796C170.605 201.265 171.345 201 172.223 201C173.041 201 173.753 201.265 174.357 201.796C174.981 202.327 175.293 203.182 175.293 204.361C175.293 205.521 174.981 206.376 174.357 206.927C173.753 207.477 173.041 207.752 172.223 207.752C171.345 207.752 170.605 207.477 170 206.927C169.415 206.376 169.123 205.521 169.123 204.361Z" fill="white"/>
<path d="M197.195 241.749C200.431 241.749 202.78 240.874 204.242 239.124C205.724 237.355 206.464 234.525 206.464 230.633V229.365C206.464 225.04 205.724 221.895 204.242 219.93C202.76 217.964 200.372 216.981 197.078 216.981C194.388 216.981 192.302 218.062 190.82 220.224C189.358 222.367 188.627 225.433 188.627 229.424C188.627 233.434 189.339 236.49 190.762 238.594C192.204 240.697 194.349 241.749 197.195 241.749ZM206.406 245.198L206.581 241.218H206.347C204.184 244.461 200.87 246.083 196.405 246.083C192.253 246.083 189.007 244.628 186.668 241.719C184.348 238.79 183.188 234.672 183.188 229.365C183.188 224.156 184.358 220.047 186.697 217.04C189.056 214.032 192.273 212.529 196.347 212.529C200.694 212.529 204.047 214.16 206.406 217.423H206.728L207.429 213.118H211.611V246.024C211.611 250.663 210.441 254.152 208.102 256.491C205.782 258.83 202.166 260 197.253 260C192.575 260 188.725 259.312 185.703 257.936V253.041C188.822 254.732 192.77 255.577 197.546 255.577C200.275 255.577 202.429 254.771 204.008 253.159C205.607 251.548 206.406 249.317 206.406 246.466V245.198Z" fill="white"/>
<path d="M243.689 245.493V224.795C243.689 222.161 243.104 220.205 241.934 218.927C240.784 217.63 238.971 216.981 236.495 216.981C233.201 216.981 230.803 217.905 229.302 219.753C227.82 221.581 227.08 224.569 227.08 228.716V245.493H221.816V213.118H226.056L226.846 217.541H227.138C228.132 215.949 229.526 214.72 231.32 213.856C233.113 212.971 235.092 212.529 237.256 212.529C241.193 212.529 244.118 213.492 246.028 215.418C247.939 217.345 248.894 220.342 248.894 224.411V245.493H243.689Z" fill="white"/>
<path d="M299.365 233.965C299.365 237.719 298.019 240.677 295.329 242.84C292.639 245.002 288.896 246.083 284.1 246.083C279.032 246.083 275.114 245.405 272.345 244.048V238.859C274.158 239.645 276.137 240.265 278.281 240.717C280.445 241.169 282.463 241.395 284.334 241.395C287.531 241.395 289.939 240.776 291.557 239.537C293.175 238.299 293.984 236.599 293.984 234.436C293.984 233.001 293.692 231.822 293.107 230.898C292.522 229.974 291.538 229.109 290.153 228.303C288.789 227.497 286.713 226.583 283.925 225.561C279.968 224.107 277.141 222.396 275.445 220.431C273.749 218.445 272.901 215.89 272.901 212.765C272.901 209.403 274.149 206.73 276.644 204.745C279.159 202.759 282.463 201.767 286.557 201.767C290.826 201.767 294.754 202.573 298.341 204.184L296.674 208.843C293.009 207.31 289.598 206.543 286.44 206.543C283.906 206.543 281.917 207.094 280.475 208.194C279.051 209.295 278.34 210.838 278.34 212.824C278.34 214.239 278.613 215.418 279.159 216.362C279.724 217.286 280.621 218.131 281.849 218.898C283.097 219.664 285.046 220.539 287.697 221.522C290.875 222.701 293.243 223.851 294.803 224.972C296.362 226.072 297.513 227.35 298.253 228.805C298.994 230.24 299.365 231.96 299.365 233.965Z" fill="white"/>
<path d="M302.23 213.118H307.874L314.804 231.547C316.266 235.557 317.163 238.495 317.494 240.363H317.728C317.904 239.636 318.303 238.279 318.927 236.294C319.551 234.289 320.077 232.687 320.506 231.488L327.027 213.118H332.7L318.869 249.975C317.523 253.553 315.925 256.118 314.073 257.671C312.221 259.224 309.93 260 307.201 260C305.739 260 304.287 259.833 302.844 259.499V255.282C303.819 255.518 304.989 255.636 306.353 255.636C308.03 255.636 309.453 255.164 310.622 254.221C311.792 253.297 312.747 251.862 313.488 249.916L315.155 245.611L302.23 213.118Z" fill="white"/>
<path d="M358.695 236.559C358.695 239.586 357.574 241.935 355.333 243.606C353.091 245.257 349.942 246.083 345.888 246.083C341.657 246.083 338.295 245.405 335.799 244.048V239.213C339.328 240.943 342.73 241.808 346.005 241.808C348.656 241.808 350.586 241.375 351.794 240.51C353.003 239.645 353.607 238.486 353.607 237.031C353.607 235.753 353.023 234.672 351.853 233.788C350.703 232.903 348.646 231.891 345.683 230.751C342.661 229.571 340.536 228.569 339.308 227.743C338.08 226.898 337.174 225.954 336.589 224.913C336.024 223.871 335.741 222.603 335.741 221.109C335.741 218.455 336.813 216.362 338.957 214.829C341.102 213.295 344.045 212.529 347.788 212.529C351.434 212.529 354.845 213.256 358.023 214.711L356.239 218.927C352.984 217.551 350.05 216.863 347.437 216.863C345.254 216.863 343.597 217.217 342.466 217.925C341.336 218.613 340.77 219.566 340.77 220.785C340.77 221.964 341.258 222.947 342.232 223.733C343.207 224.5 345.478 225.571 349.046 226.947C351.716 227.95 353.685 228.883 354.953 229.748C356.239 230.613 357.185 231.586 357.789 232.667C358.393 233.748 358.695 235.046 358.695 236.559Z" fill="white"/>
<path d="M377.235 241.749C377.917 241.749 378.716 241.68 379.632 241.542C380.549 241.405 381.241 241.247 381.708 241.07V245.139C381.221 245.356 380.461 245.562 379.428 245.759C378.414 245.975 377.381 246.083 376.328 246.083C370.051 246.083 366.912 242.751 366.912 236.087V217.246H362.38V214.711L366.971 212.588L369.076 205.688H372.205V213.118H381.475V217.246H372.205V235.94C372.205 237.807 372.644 239.242 373.521 240.245C374.418 241.247 375.655 241.749 377.235 241.749Z" fill="white"/>
<path d="M401.797 246.083C396.982 246.083 393.2 244.619 390.452 241.69C387.722 238.741 386.358 234.692 386.358 229.542C386.358 224.352 387.635 220.224 390.188 217.158C392.742 214.072 396.193 212.529 400.54 212.529C404.575 212.529 407.792 213.846 410.19 216.48C412.587 219.094 413.786 222.642 413.786 227.124V230.338H391.797C391.894 234.014 392.82 236.805 394.575 238.712C396.329 240.618 398.815 241.572 402.031 241.572C403.747 241.572 405.375 241.424 406.915 241.129C408.455 240.815 410.258 240.215 412.324 239.331V243.99C410.55 244.756 408.884 245.297 407.324 245.611C405.764 245.926 403.922 246.083 401.797 246.083ZM400.481 216.863C397.967 216.863 395.978 217.679 394.516 219.31C393.054 220.942 392.187 223.212 391.914 226.121H408.26C408.221 223.094 407.529 220.794 406.184 219.222C404.838 217.649 402.938 216.863 400.481 216.863Z" fill="white"/>
<path d="M462.795 245.493V224.647C462.795 219.536 460.621 216.981 456.274 216.981C453.292 216.981 451.098 217.856 449.695 219.605C448.291 221.355 447.589 224.028 447.589 227.625V245.493H442.355V224.647C442.355 222.092 441.819 220.175 440.747 218.898C439.694 217.62 438.037 216.981 435.776 216.981C432.813 216.981 430.639 217.895 429.255 219.723C427.89 221.551 427.208 224.549 427.208 228.716V245.493H421.945V213.118H426.185L426.974 217.541H427.267C428.183 215.969 429.469 214.74 431.127 213.856C432.803 212.971 434.674 212.529 436.741 212.529C441.77 212.529 445.045 214.337 446.566 217.954H446.858C447.892 216.224 449.295 214.888 451.069 213.944C452.863 213 454.89 212.529 457.151 212.529C460.777 212.529 463.487 213.472 465.281 215.359C467.094 217.246 468 220.264 468 224.411V245.493H462.795Z" fill="white"/>
</svg>
