<svg width="205" height="54" viewBox="0 0 205 54" fill="none" xmlns="http://www.w3.org/2000/svg">
<path d="M3.83778 26.9993C3.83778 36.1675 9.16564 44.0905 16.8914 47.8452L5.84305 17.5729C4.55792 20.4536 3.83778 23.6414 3.83778 26.9993ZM42.6352 25.8305C42.6352 22.9679 41.607 20.9855 40.7251 19.4425C39.551 17.5346 38.4505 15.9189 38.4505 14.0109C38.4505 11.8817 40.0653 9.89976 42.3399 9.89976C42.4426 9.89976 42.54 9.91254 42.64 9.91827C38.5193 6.14294 33.0293 3.83791 26.9993 3.83791C18.9077 3.83791 11.7888 7.98962 7.64736 14.278C8.19077 14.2943 8.70288 14.3058 9.13787 14.3058C11.5605 14.3058 15.3106 14.0118 15.3106 14.0118C16.5591 13.9382 16.7063 15.7721 15.4591 15.9197C15.4591 15.9197 14.2044 16.0674 12.8082 16.1405L21.2427 41.2293L26.3114 26.0271L22.7028 16.1397C21.4555 16.0665 20.274 15.9189 20.274 15.9189C19.0258 15.8457 19.1722 13.9373 20.4203 14.0109C20.4203 14.0109 24.2453 14.3049 26.5212 14.3049C28.9434 14.3049 32.6939 14.0109 32.6939 14.0109C33.9433 13.9373 34.0901 15.7712 32.8424 15.9189C32.8424 15.9189 31.585 16.0665 30.1915 16.1397L38.5616 41.0385L40.8719 33.3181C41.8732 30.1144 42.6352 27.8134 42.6352 25.8305ZM27.4057 29.0254L20.4564 49.2194C22.5313 49.8293 24.7257 50.163 26.9993 50.163C29.6965 50.163 32.2831 49.6967 34.6908 48.85C34.6286 48.7509 34.5722 48.6455 34.5259 48.5309L27.4057 29.0254ZM47.3227 15.8867C47.4223 16.6245 47.4787 17.4165 47.4787 18.2684C47.4787 20.6188 47.0397 23.261 45.7176 26.5648L38.6427 47.0205C45.5285 43.005 50.16 35.5447 50.16 26.9998C50.1605 22.9728 49.1318 19.186 47.3227 15.8867ZM26.9993 0C12.1123 0 0 12.1118 0 26.9993C0 41.8886 12.1123 54 26.9993 54C41.886 54 54 41.8886 54 26.9993C53.9996 12.1118 41.886 0 26.9993 0ZM26.9993 52.7624C12.795 52.7624 1.23798 41.2051 1.23798 26.9993C1.23798 12.7945 12.7945 1.23802 26.9993 1.23802C41.2033 1.23802 52.7594 12.7945 52.7594 26.9993C52.7594 41.2051 41.2033 52.7624 26.9993 52.7624Z" fill="white"/>
<path d="M82.3574 37H79.8145L75.918 23.9023C75.3438 21.9518 75.0065 20.6348 74.9062 19.9512C74.7604 20.9993 74.4414 22.3438 73.9492 23.9844L70.1758 37H67.6328L62.3418 17.0117H64.9668L68.0703 29.2207C68.4896 30.8158 68.8086 32.4017 69.0273 33.9785C69.2279 32.4837 69.5833 30.8477 70.0938 29.0703L73.6211 17.0117H76.2188L79.8965 29.166C80.3704 30.7428 80.735 32.347 80.9902 33.9785C81.1361 32.7207 81.4596 31.1257 81.9609 29.1934L85.0508 17.0117H87.6758L82.3574 37ZM103.207 29.4668C103.207 31.9186 102.587 33.8327 101.348 35.209C100.108 36.5853 98.3945 37.2734 96.207 37.2734C94.849 37.2734 93.6458 36.959 92.5977 36.3301C91.5495 35.6921 90.7428 34.7806 90.1777 33.5957C89.6126 32.4108 89.3301 31.0345 89.3301 29.4668C89.3301 27.0241 89.9408 25.1237 91.1621 23.7656C92.3835 22.3984 94.097 21.7148 96.3027 21.7148C98.4173 21.7148 100.094 22.4121 101.334 23.8066C102.583 25.1921 103.207 27.0788 103.207 29.4668ZM91.873 29.4668C91.873 31.3535 92.2422 32.7891 92.9805 33.7734C93.7279 34.7487 94.8262 35.2363 96.2754 35.2363C97.7064 35.2363 98.7956 34.7487 99.543 33.7734C100.29 32.7891 100.664 31.3535 100.664 29.4668C100.664 27.5801 100.286 26.1628 99.5293 25.2148C98.7819 24.2578 97.6836 23.7793 96.2344 23.7793C93.3268 23.7793 91.873 25.6751 91.873 29.4668ZM114.117 21.7148C114.783 21.7148 115.37 21.7695 115.881 21.8789L115.58 24.1484C115.024 24.0208 114.482 23.957 113.953 23.957C113.16 23.957 112.422 24.1758 111.738 24.6133C111.064 25.0508 110.535 25.6569 110.152 26.4316C109.77 27.1973 109.578 28.0495 109.578 28.9883V37H107.117V21.9883H109.141L109.414 24.7363H109.523C110.098 23.7428 110.777 22.9909 111.561 22.4805C112.344 21.9701 113.197 21.7148 114.117 21.7148ZM123.729 37.2734C121.778 37.2734 120.265 36.599 119.189 35.25C118.114 33.901 117.576 31.9915 117.576 29.5215C117.576 27.0697 118.114 25.1556 119.189 23.7793C120.274 22.403 121.796 21.7148 123.756 21.7148C125.77 21.7148 127.32 22.4531 128.404 23.9297H128.582C128.555 23.7474 128.518 23.3828 128.473 22.8359C128.427 22.2799 128.404 21.9062 128.404 21.7148V15.7266H130.865V37H128.883L128.514 34.9902H128.404C127.356 36.5124 125.798 37.2734 123.729 37.2734ZM124.125 35.2363C125.62 35.2363 126.709 34.8307 127.393 34.0195C128.085 33.1992 128.432 31.8594 128.432 30V29.5488C128.432 27.4616 128.081 25.9759 127.379 25.0918C126.686 24.1986 125.592 23.752 124.098 23.752C122.831 23.752 121.851 24.2578 121.158 25.2695C120.465 26.2721 120.119 27.7077 120.119 29.5762C120.119 31.4355 120.461 32.8438 121.145 33.8008C121.837 34.7578 122.831 35.2363 124.125 35.2363ZM148.775 22.8906C148.775 24.9323 148.078 26.5 146.684 27.5938C145.289 28.6784 143.325 29.2207 140.791 29.2207H138.494V37H135.979V17.0117H141.27C146.273 17.0117 148.775 18.9714 148.775 22.8906ZM138.494 27.0605H140.504C142.491 27.0605 143.931 26.7415 144.824 26.1035C145.717 25.4564 146.164 24.4219 146.164 23C146.164 21.7148 145.749 20.7533 144.92 20.1152C144.09 19.4772 142.796 19.1582 141.037 19.1582H138.494V27.0605ZM159.59 21.7148C160.255 21.7148 160.843 21.7695 161.354 21.8789L161.053 24.1484C160.497 24.0208 159.954 23.957 159.426 23.957C158.633 23.957 157.895 24.1758 157.211 24.6133C156.536 25.0508 156.008 25.6569 155.625 26.4316C155.242 27.1973 155.051 28.0495 155.051 28.9883V37H152.59V21.9883H154.613L154.887 24.7363H154.996C155.57 23.7428 156.249 22.9909 157.033 22.4805C157.817 21.9701 158.669 21.7148 159.59 21.7148ZM170.268 37.2734C168.016 37.2734 166.248 36.5944 164.963 35.2363C163.687 33.8691 163.049 31.9915 163.049 29.6035C163.049 27.1973 163.646 25.2832 164.84 23.8613C166.034 22.4303 167.647 21.7148 169.68 21.7148C171.566 21.7148 173.07 22.3255 174.191 23.5469C175.312 24.7591 175.873 26.4043 175.873 28.4824V29.9727H165.592C165.637 31.6771 166.07 32.9714 166.891 33.8555C167.711 34.7396 168.873 35.1816 170.377 35.1816C171.179 35.1816 171.94 35.1133 172.66 34.9766C173.38 34.8307 174.223 34.5527 175.189 34.1426V36.3027C174.36 36.6582 173.581 36.9089 172.852 37.0547C172.122 37.2005 171.261 37.2734 170.268 37.2734ZM169.652 23.7246C168.477 23.7246 167.547 24.1029 166.863 24.8594C166.18 25.6159 165.774 26.6686 165.646 28.0176H173.289C173.271 26.6139 172.947 25.5475 172.318 24.8184C171.689 24.0892 170.801 23.7246 169.652 23.7246ZM189.463 32.8574C189.463 34.2611 188.939 35.3503 187.891 36.125C186.842 36.8906 185.37 37.2734 183.475 37.2734C181.497 37.2734 179.924 36.959 178.758 36.3301V34.0879C180.408 34.89 181.998 35.291 183.529 35.291C184.769 35.291 185.671 35.0905 186.236 34.6895C186.801 34.2884 187.084 33.7507 187.084 33.0762C187.084 32.4837 186.811 31.9824 186.264 31.5723C185.726 31.1621 184.764 30.6927 183.379 30.1641C181.966 29.6172 180.973 29.1523 180.398 28.7695C179.824 28.3776 179.4 27.9401 179.127 27.457C178.863 26.974 178.73 26.3861 178.73 25.6934C178.73 24.4629 179.232 23.4922 180.234 22.7812C181.237 22.0703 182.613 21.7148 184.363 21.7148C186.068 21.7148 187.663 22.0521 189.148 22.7266L188.314 24.6816C186.792 24.0436 185.421 23.7246 184.199 23.7246C183.178 23.7246 182.404 23.8887 181.875 24.2168C181.346 24.5358 181.082 24.9779 181.082 25.543C181.082 26.0898 181.31 26.5456 181.766 26.9102C182.221 27.2656 183.283 27.7624 184.951 28.4004C186.2 28.8652 187.12 29.2982 187.713 29.6992C188.314 30.1003 188.757 30.5514 189.039 31.0527C189.322 31.554 189.463 32.1556 189.463 32.8574ZM202.889 32.8574C202.889 34.2611 202.365 35.3503 201.316 36.125C200.268 36.8906 198.796 37.2734 196.9 37.2734C194.923 37.2734 193.35 36.959 192.184 36.3301V34.0879C193.833 34.89 195.424 35.291 196.955 35.291C198.195 35.291 199.097 35.0905 199.662 34.6895C200.227 34.2884 200.51 33.7507 200.51 33.0762C200.51 32.4837 200.236 31.9824 199.689 31.5723C199.152 31.1621 198.19 30.6927 196.805 30.1641C195.392 29.6172 194.398 29.1523 193.824 28.7695C193.25 28.3776 192.826 27.9401 192.553 27.457C192.288 26.974 192.156 26.3861 192.156 25.6934C192.156 24.4629 192.658 23.4922 193.66 22.7812C194.663 22.0703 196.039 21.7148 197.789 21.7148C199.493 21.7148 201.089 22.0521 202.574 22.7266L201.74 24.6816C200.218 24.0436 198.846 23.7246 197.625 23.7246C196.604 23.7246 195.829 23.8887 195.301 24.2168C194.772 24.5358 194.508 24.9779 194.508 25.543C194.508 26.0898 194.736 26.5456 195.191 26.9102C195.647 27.2656 196.709 27.7624 198.377 28.4004C199.626 28.8652 200.546 29.2982 201.139 29.6992C201.74 30.1003 202.182 30.5514 202.465 31.0527C202.747 31.554 202.889 32.1556 202.889 32.8574Z" fill="white"/>
</svg>
